<?xml version="1.0" encoding="UTF-8"?>
<svg version="1.1" xmlns="http://www.w3.org/2000/svg" width="236" height="247">
<path d="M0 0 C1.82371124 -0.00262848 1.82371124 -0.00262848 3.68426514 -0.00531006 C6.99417051 -0.00893814 10.30401275 -0.00811442 13.61391449 -0.00493097 C17.09303364 -0.00238281 20.57215026 -0.00475172 24.05126953 -0.00631714 C29.89160643 -0.0081317 35.73193065 -0.00575129 41.57226562 -0.00097656 C48.30522999 0.00446468 55.03816407 0.00270152 61.7711277 -0.00280297 C67.57267832 -0.00735447 73.37421988 -0.0079747 79.17577171 -0.0053643 C82.63169221 -0.00381271 86.08759851 -0.0035769 89.54351807 -0.00690079 C93.3988155 -0.01035041 97.25407955 -0.00555656 101.109375 0 C102.80691925 -0.00303635 102.80691925 -0.00303635 104.53875732 -0.00613403 C121.46420337 0.0389104 121.46420337 0.0389104 124.4921875 3.06689453 C125.69702919 6.53967351 126.31391815 9.96503648 126.97265625 13.57470703 C128.75330462 21.39043878 133.43271485 28.25129164 139.98828125 32.82861328 C146.32984833 36.7202436 151.43657467 39.35446164 158.9921875 39.43798828 C160.21679688 39.463125 161.44140625 39.48826172 162.703125 39.51416016 C165.27078283 39.54931571 167.8384971 39.58056593 170.40625 39.60791016 C171.63085938 39.63433594 172.85546875 39.66076172 174.1171875 39.68798828 C175.78974609 39.70817017 175.78974609 39.70817017 177.49609375 39.72875977 C181.87006506 40.30169135 184.47536138 42.05006841 187.5546875 45.12939453 C189.03792263 52.76148414 188.71158665 60.57157952 188.6796875 68.31689453 C188.67747192 69.02238434 188.67525635 69.72787415 188.67297363 70.45474243 C188.65495693 75.34662329 188.61103668 80.23780631 188.5546875 85.12939453 C188.54211914 86.27150391 188.52955078 87.41361328 188.51660156 88.59033203 C188.47214845 91.50065028 188.39715856 94.40775497 188.3046875 97.31689453 C188.29066895 98.1518042 188.27665039 98.98671387 188.26220703 99.84692383 C188.22981934 100.61431885 188.19743164 101.38171387 188.1640625 102.17236328 C188.14311523 102.82229248 188.12216797 103.47222168 188.10058594 104.1418457 C186.93460781 108.38702813 184.31143222 110.69736842 180.58129883 112.8269043 C179.4445874 113.31989014 178.30787598 113.81287598 177.13671875 114.32080078 C176.5200383 114.59278793 175.90335785 114.86477509 175.26799011 115.14500427 C173.30635638 116.00676611 171.33724188 116.84958813 169.3671875 117.69189453 C168.06390757 118.26030676 166.76116738 118.8299582 165.45898438 119.40087891 C162.95259712 120.49814155 160.44224001 121.58538244 157.92822266 122.66503906 C154.45066736 124.17454671 151.01004576 125.75063023 147.58862305 127.38305664 C145.5546875 128.12939453 145.5546875 128.12939453 139.5546875 129.12939453 C139.5546875 134.07939453 139.5546875 139.02939453 139.5546875 144.12939453 C143.53473198 142.54823964 147.51373351 140.9645424 151.4921875 139.37939453 C152.60916016 138.93595703 153.72613281 138.49251953 154.87695312 138.03564453 C159.81608627 136.06578498 164.71752529 134.08038957 169.5390625 131.83642578 C172.70814659 130.41031983 175.34044536 129.56112245 178.8671875 129.56689453 C179.66769531 129.54498047 180.46820313 129.52306641 181.29296875 129.50048828 C184.6713311 130.43989474 185.6535868 132.23914436 187.5546875 135.12939453 C188.0693512 138.24491882 188.0693512 138.24491882 188.08813477 141.78051758 C188.09675034 142.42842758 188.10536591 143.07633759 188.11424255 143.74388123 C188.13686235 145.87670374 188.13016817 148.00820685 188.12109375 150.14111328 C188.12633405 151.63459154 188.13261202 153.12806648 188.13987732 154.62153625 C188.1502763 157.7511858 188.14573211 160.88038064 188.13110352 164.01000977 C188.11398315 167.99682546 188.13732755 171.98219073 188.17259312 175.96884441 C188.19469767 179.05497063 188.19309334 182.14075741 188.1848278 185.22693825 C188.18401409 186.6951741 188.19076539 188.16343637 188.20559883 189.63159752 C188.28244829 198.62028973 187.39111035 205.3915024 182.5546875 213.12939453 C182.05123558 214.20509956 182.05123558 214.20509956 181.53761292 215.30253601 C180.12642594 217.92535856 178.12836801 218.69292169 175.5546875 220.12939453 C174.8121875 220.81001953 174.0696875 221.49064453 173.3046875 222.19189453 C165.19442324 227.90594435 153.72830041 226.40617238 144.22827148 226.37231445 C142.47639902 226.37338869 140.72452691 226.37532947 138.97265625 226.37806702 C134.23516441 226.38289556 129.49776742 226.37528468 124.76028705 226.36511397 C119.79259021 226.35630039 114.82489606 226.35809156 109.85719299 226.35847473 C101.51749087 226.35753956 93.17782523 226.34887525 84.83813477 226.33520508 C75.20702555 226.31947602 65.57595626 226.31420726 55.94483513 226.31494063 C45.67414577 226.31561699 35.40347172 226.30867143 25.13278699 226.29949403 C22.18036099 226.29736658 19.22793748 226.29665338 16.27551079 226.29625511 C11.6305814 226.2952478 6.98568529 226.28911946 2.34076691 226.27908897 C0.6396486 226.27617777 -1.06147353 226.2749358 -2.76259422 226.27551651 C-5.09119984 226.27601046 -7.41971353 226.27031985 -9.74830627 226.2631073 C-11.04925012 226.26143146 -12.35019396 226.25975561 -13.69056034 226.25802898 C-23.83542951 225.91047483 -30.4549628 223.34346761 -38.2578125 216.75439453 C-43.61927722 210.32063687 -46.54758441 205.06288914 -46.60353088 196.61314392 C-46.61821411 194.92959557 -46.61821411 194.92959557 -46.63319397 193.21203613 C-46.63894943 191.98456665 -46.6447049 190.75709717 -46.65063477 189.49243164 C-46.66053436 188.1958815 -46.67043396 186.89933136 -46.68063354 185.56349182 C-46.70767685 182.00473492 -46.72870306 178.44596486 -46.74863553 174.88716197 C-46.77058194 171.14574391 -46.79794668 167.4043654 -46.82469177 163.66297913 C-46.86897081 157.36396037 -46.90973223 151.06492718 -46.94799805 144.76586914 C-47.0015772 135.94666665 -47.06131302 127.12751422 -47.12239373 118.30836093 C-47.17000679 111.40366131 -47.2160787 104.4989512 -47.26171875 97.59423828 C-47.2665355 96.86568784 -47.27135226 96.13713739 -47.27631497 95.38650966 C-47.38213767 79.30075275 -47.47703365 63.21557409 -47.4453125 47.12939453 C-47.44462265 45.98977264 -47.4439328 44.85015076 -47.44322205 43.67599487 C-47.41745403 31.09969092 -47.03084494 20.69521615 -38.3984375 10.77783203 C-27.47872147 0.12917278 -14.42823841 -0.02580736 0 0 Z " fill="#08A97A" transform="translate(47.4453125,20.87060546875)"/>
<path d="M0 0 C1.07830078 0.00128906 2.15660156 0.00257812 3.26757812 0.00390625 C4.37423828 0.03613281 5.48089844 0.06835938 6.62109375 0.1015625 C7.73162109 0.09511719 8.84214844 0.08867188 9.98632812 0.08203125 C16.22297958 0.16414156 20.42817917 0.36580601 25.05859375 4.7265625 C26.74766732 7.5329921 27.30763583 9.59248856 27.29910278 12.85211182 C27.30322678 14.07199799 27.30322678 14.07199799 27.30743408 15.31652832 C27.29664825 16.64146301 27.29664825 16.64146301 27.28564453 17.99316406 C27.28593658 18.93009094 27.28622864 19.86701782 27.28652954 20.83233643 C27.28513686 23.92738118 27.26957841 27.02218483 27.25390625 30.1171875 C27.2501759 32.26381295 27.24732903 34.41044011 27.24533081 36.55706787 C27.23769607 42.20581771 27.21804886 47.85446464 27.19592285 53.50317383 C27.17546106 59.26772672 27.16632837 65.03229625 27.15625 70.796875 C27.13480289 82.10681604 27.10066878 93.41668071 27.05859375 104.7265625 C26.14549438 105.11758652 25.23239502 105.50861053 24.29162598 105.91148376 C17.74133126 108.71721565 11.19219285 111.52545403 4.65234375 114.35546875 C3.93220093 114.66688812 3.21205811 114.9783075 2.47009277 115.29916382 C0.16616022 116.29556674 -2.13762486 117.29231011 -4.44140625 118.2890625 C-6.0703071 118.99358345 -7.69921344 119.69809171 -9.328125 120.40258789 C-15.63233365 123.12944714 -21.93626432 125.85694577 -28.23828125 128.58886719 C-28.91441971 128.88196777 -29.59055817 129.17506836 -30.28718567 129.47705078 C-31.60746828 130.04977589 -32.92753069 130.62300892 -34.24736023 131.19677734 C-37.38874772 132.56176531 -40.53327928 133.91806283 -43.68676758 135.25488281 C-48.97921697 137.51057553 -54.17499947 139.78787493 -59.234375 142.53125 C-70.63187295 148.50570859 -80.76383366 149.51958648 -93.44140625 149.4765625 C-94.2226889 149.47459869 -95.00397156 149.47263489 -95.80892944 149.47061157 C-110.56271767 149.34215215 -110.56271767 149.34215215 -114.94140625 145.7265625 C-117.58190901 141.32129168 -118.32743461 138.02127823 -118.37719727 132.91430664 C-118.39231102 131.93499428 -118.39231102 131.93499428 -118.4077301 130.93589783 C-118.43604652 128.79432698 -118.44207764 126.65346471 -118.4453125 124.51171875 C-118.45496351 123.01248391 -118.46505672 121.51325186 -118.47557068 120.01402283 C-118.49349005 116.87785291 -118.49909592 113.74193036 -118.49731445 110.60571289 C-118.49700948 106.59945346 -118.53799432 102.59478795 -118.58963108 98.58890629 C-118.62308721 95.49434715 -118.62906931 92.40016997 -118.62748528 89.30544853 C-118.63101014 87.82911105 -118.6441943 86.35276208 -118.66748238 84.87660408 C-118.85252966 71.93850474 -118.85252966 71.93850474 -115.265625 67.31884766 C-112.35040253 64.63409463 -110.07983587 63.85662867 -106.0625 63.90234375 C-104.97646484 63.90685547 -103.89042969 63.91136719 -102.77148438 63.91601562 C-101.65193359 63.95662109 -100.53238281 63.99722656 -99.37890625 64.0390625 C-97.6937793 64.03616211 -97.6937793 64.03616211 -95.97460938 64.03320312 C-87.86950076 64.17286334 -87.86950076 64.17286334 -83.7265625 66.64453125 C-80.91743925 69.92081723 -80.81179151 71.80135883 -80.78369141 76.04663086 C-80.77342926 77.15795883 -80.76316711 78.2692868 -80.75259399 79.41429138 C-80.74529266 80.61948929 -80.73799133 81.82468719 -80.73046875 83.06640625 C-80.70240687 85.59831383 -80.67374245 88.13021479 -80.64453125 90.66210938 C-80.60319496 94.66951551 -80.56527129 98.67678971 -80.54003906 102.68432617 C-80.51252615 106.54111497 -80.46665922 110.39733464 -80.41796875 114.25390625 C-80.41471588 115.45707993 -80.41146301 116.6602536 -80.40811157 117.89988708 C-80.3915451 119.01436722 -80.37497864 120.12884735 -80.35791016 121.27709961 C-80.34577988 122.75030922 -80.34577988 122.75030922 -80.33340454 124.25328064 C-80.12333401 126.75849049 -80.12333401 126.75849049 -78.63412476 128.57496643 C-76.79979808 130.06707113 -76.79979808 130.06707113 -73.44140625 129.6015625 C-69.3975357 128.6871854 -69.3975357 128.6871854 -66.94140625 125.7265625 C-66.65235044 122.93403691 -66.54506669 120.36344275 -66.57250977 117.57080078 C-66.56874329 116.7395871 -66.56497681 115.90837341 -66.56109619 115.05197144 C-66.55465872 113.24644219 -66.55499845 111.44087906 -66.5612812 109.63534927 C-66.57037547 106.77708489 -66.56018642 103.91947876 -66.54466248 101.06124878 C-66.50451786 92.93488621 -66.50336013 84.80857411 -66.50561523 76.68212891 C-66.50566633 71.71186409 -66.48649964 66.7419535 -66.45628166 61.77178574 C-66.44544774 58.95701059 -66.457593 56.14290914 -66.47010803 53.32815552 C-66.46120323 51.59913465 -66.45112871 49.87011929 -66.43969727 48.14111328 C-66.44944077 47.35963928 -66.45918427 46.57816528 -66.46922302 45.77301025 C-66.42006378 42.04574683 -66.07175804 39.92921554 -64.03526306 36.76315308 C-59.45719799 32.31029645 -53.75589539 33.42643274 -47.69140625 33.3515625 C-46.55832031 33.31417969 -45.42523438 33.27679688 -44.2578125 33.23828125 C-34.87934073 33.13932903 -34.87934073 33.13932903 -31.20703125 36.125 C-27.86153187 39.96655619 -27.80702681 41.85854927 -27.75195312 46.88867188 C-27.7352356 48.18341431 -27.71851807 49.47815674 -27.70129395 50.81213379 C-27.69461197 51.50595657 -27.68792999 52.19977936 -27.68104553 52.91462708 C-27.66003394 55.08293456 -27.63301048 57.25109226 -27.60437012 59.41931152 C-27.53450083 64.8042254 -27.4751235 70.1892462 -27.41534424 75.57427979 C-27.36444124 80.12386879 -27.30962177 84.67337746 -27.24952698 89.22285461 C-27.22291256 91.36220933 -27.2021226 93.50157137 -27.18151855 95.64099121 C-27.16480103 96.93573364 -27.1480835 98.23047607 -27.13085938 99.56445312 C-27.1183313 100.70869751 -27.10580322 101.85294189 -27.09289551 103.03186035 C-27.12165665 105.69631623 -27.12165665 105.69631623 -25.94140625 107.7265625 C-22.43677612 108.25756707 -20.24828512 107.60807957 -17.30627441 105.78733826 C-15.18959995 104.2048942 -14.11967553 103.28567943 -13.311203 100.75001717 C-13.08759579 98.28806036 -13.08987907 95.91276407 -13.16601562 93.44165039 C-13.16648392 92.51421524 -13.16695221 91.58678009 -13.16743469 90.63124084 C-13.17286397 88.62155789 -13.19434816 86.61186822 -13.23005676 84.60249519 C-13.28566841 81.41990848 -13.29765961 78.23978967 -13.29821777 75.05674744 C-13.30865399 67.15364272 -13.39445308 59.25167249 -13.4776001 51.34906006 C-13.5450166 44.66935652 -13.5839886 37.99065947 -13.5851593 31.310606 C-13.59749501 28.17766933 -13.6516831 25.04723196 -13.70739746 21.91481018 C-13.71258954 19.99016762 -13.71582689 18.06551846 -13.71679688 16.14086914 C-13.74361038 15.27262512 -13.77042389 14.4043811 -13.79804993 13.50982666 C-13.76342926 9.9747107 -13.68658032 7.66123346 -11.43612766 4.83849335 C-7.74502171 1.54960029 -5.09183659 -0.03121497 0 0 Z " fill="#F9FCFC" transform="translate(158.94140625,63.2734375)"/>
<path d="M0 0 C4.86363675 6.15107001 5.68321005 12.12925866 5.48046875 19.78515625 C4.95719964 24.05756232 3.50042829 27.14504946 1.125 30.6875 C0.568125 31.574375 0.01125 32.46125 -0.5625 33.375 C-6.0316584 38.8441584 -11.09757322 41.01482943 -18.875 41.25 C-26.30285426 40.96924957 -31.718143 39.30538141 -37.4375 34.5625 C-38.875 32.6875 -38.875 32.6875 -38.875 30.6875 C-39.535 30.6875 -40.195 30.6875 -40.875 30.6875 C-44.11825275 22.52145289 -45.53047552 14.98811091 -41.9765625 6.66796875 C-37.62682432 -1.15230522 -31.77094964 -5.34718345 -23.4375 -8.125 C-13.98047248 -8.81697762 -7.31252977 -5.88181743 0 0 Z " fill="#EBA72A" transform="translate(229.875,8.3125)"/>
<path d="M0 0 C1.82371124 -0.00262848 1.82371124 -0.00262848 3.68426514 -0.00531006 C6.99417051 -0.00893814 10.30401275 -0.00811442 13.61391449 -0.00493097 C17.09303364 -0.00238281 20.57215026 -0.00475172 24.05126953 -0.00631714 C29.89160643 -0.0081317 35.73193065 -0.00575129 41.57226562 -0.00097656 C48.30522999 0.00446468 55.03816407 0.00270152 61.7711277 -0.00280297 C67.57267832 -0.00735447 73.37421988 -0.0079747 79.17577171 -0.0053643 C82.63169221 -0.00381271 86.08759851 -0.0035769 89.54351807 -0.00690079 C93.3988155 -0.01035041 97.25407955 -0.00555656 101.109375 0 C102.80691925 -0.00303635 102.80691925 -0.00303635 104.53875732 -0.00613403 C121.46420337 0.0389104 121.46420337 0.0389104 124.4921875 3.06689453 C125.97903926 7.35252608 126.78770442 11.6669475 127.5546875 16.12939453 C127.88356571 17.79694603 128.21563665 19.46388157 128.5546875 21.12939453 C124.81166413 17.99252879 123.98473171 15.8108412 123.4296875 11.00439453 C123.0785131 6.55969876 123.0785131 6.55969876 120.5546875 3.12939453 C117.92797506 2.82998009 117.92797506 2.82998009 114.80941772 2.8888855 C113.58661606 2.88613617 112.36381439 2.88338684 111.10395813 2.8805542 C109.74166773 2.88763294 108.37937831 2.89490256 107.01708984 2.90234375 C105.58824166 2.90290765 104.15939289 2.90259171 102.73054504 2.90145874 C98.84437333 2.90088341 94.95832434 2.91266678 91.07218122 2.92660666 C87.01359137 2.93908405 82.9549989 2.94028215 78.89639282 2.94265747 C71.20762571 2.94888106 63.51891526 2.96530372 55.83017313 2.98535645 C47.07818515 3.00768816 38.3261945 3.018702 29.57418513 3.02874732 C11.56765376 3.04966922 -6.43882482 3.08486222 -24.4453125 3.12939453 C-17.7601862 -1.32735633 -7.79444907 -0.0139417 0 0 Z " fill="#132439" transform="translate(47.4453125,20.87060546875)"/>
<path d="M0 0 C1 3 1 3 1 5 C0.34 5 -0.32 5 -1 5 C-2.78667491 9.61363207 -3.25735105 13.46769614 -3.2784729 18.40316772 C-3.2842653 19.12699949 -3.2900577 19.85083125 -3.29602563 20.59659731 C-3.3129651 23.01024478 -3.31589687 25.42370034 -3.31884766 27.83740234 C-3.32815002 29.57226019 -3.33831915 31.30711357 -3.34928894 33.04196167 C-3.37656825 37.74392629 -3.39173224 42.44586098 -3.40471697 47.14788389 C-3.42035653 52.06465808 -3.44714414 56.98137123 -3.4727478 61.89810181 C-3.51952094 71.20519523 -3.55627216 80.51230014 -3.58942068 89.81945097 C-3.62765239 100.41676601 -3.67705982 111.01401973 -3.72740483 121.61128306 C-3.83070291 143.40747675 -3.91997025 165.20370927 -4 187 C-4.33 187 -4.66 187 -5 187 C-5.13125059 169.5959521 -5.26167692 152.19189823 -5.39115143 134.78783703 C-5.4513023 126.70482788 -5.51171176 118.62182083 -5.57275391 110.53881836 C-5.62602605 103.48460394 -5.67878863 96.43038591 -5.73096704 89.3761633 C-5.75855099 85.64927823 -5.78637122 81.92239529 -5.81480408 78.19551659 C-6.3459339 8.47685635 -6.3459339 8.47685635 0 0 Z " fill="#0F6054" transform="translate(6,36)"/>
<path d="M0 0 C3.8320097 3.8320097 4.11095364 9.82736664 5 15 C5.32887821 16.6675515 5.66094915 18.33448704 6 20 C2.25697663 16.86313426 1.43004421 14.68144667 0.875 9.875 C0.5238256 5.43030422 0.5238256 5.43030422 -2 2 C-5.07211889 1.78192685 -8.05665972 1.68853362 -11.13134766 1.68115234 C-12.55093025 1.66608391 -12.55093025 1.66608391 -13.99919128 1.65071106 C-17.13747532 1.61974016 -20.27567353 1.60280537 -23.4140625 1.5859375 C-25.5859756 1.56723703 -27.75788136 1.54766448 -29.92977905 1.5272522 C-35.65409014 1.47580652 -41.37842482 1.43624747 -47.10284424 1.39910889 C-52.94101862 1.35914703 -58.77909383 1.30801913 -64.6171875 1.2578125 C-76.07805546 1.16090603 -87.53897926 1.07654853 -99 1 C-99 0.67 -99 0.34 -99 0 C-89.18497943 -0.13140001 -79.36994682 -0.26185778 -69.55489826 -0.39115143 C-64.99614671 -0.45123265 -60.43739973 -0.51162416 -55.87866211 -0.57275391 C-51.46959074 -0.63186482 -47.0605088 -0.69012266 -42.65141869 -0.74781799 C-40.97913406 -0.7698451 -39.30685328 -0.79216657 -37.6345768 -0.81480408 C-5.9294978 -1.2432818 -5.9294978 -1.2432818 0 0 Z " fill="#0D2F3A" transform="translate(170,22)"/>
<path d="M0 0 C2.68366357 2.69340146 3.89937833 4.35917105 4.49447632 8.14916992 C4.49020126 9.92191284 4.49020126 9.92191284 4.48583984 11.73046875 C4.48963654 12.38641022 4.49343323 13.04235168 4.49734497 13.71817017 C4.50472278 15.87510817 4.4834096 18.03068281 4.4609375 20.1875 C4.45855124 21.69295087 4.45764814 23.19840475 4.4581604 24.70385742 C4.45503715 27.8545199 4.43850954 31.00472581 4.41162109 34.15527344 C4.37764179 38.18700946 4.36999285 42.21824436 4.37151146 46.25010681 C4.37096672 49.35742954 4.3599829 52.46464347 4.34550858 55.57192993 C4.33915953 57.05822934 4.33520612 58.54454104 4.33372116 60.03085327 C4.32936783 62.11062463 4.31182426 64.18987301 4.29052734 66.26953125 C4.28290375 67.45135986 4.27528015 68.63318848 4.26742554 69.85083008 C4.0030226 72.96440618 3.32677755 75.19014966 2 78 C0.85232472 74.55697416 1.09893304 72.51826945 1.4296875 68.91015625 C2.25157043 58.56465827 2.14993276 48.20713975 2.13037109 37.83569336 C2.1249616 34.41320467 2.13037132 30.99084434 2.13671875 27.56835938 C2.13605874 25.37760388 2.13477917 23.18684846 2.1328125 20.99609375 C2.13483673 19.98042831 2.13686096 18.96476288 2.13894653 17.9183197 C2.12321311 13.16574434 1.99343611 8.67270124 1 4 C-4.99727473 2.99365458 -9.11237154 3.15290087 -15 5 C-17.19921875 4.5625 -17.19921875 4.5625 -19 4 C-13.10510643 0.81049237 -6.75443971 -1.87817754 0 0 Z " fill="#0D6E5B" transform="translate(231,151)"/>
<path d="M0 0 C0.99 0 1.98 0 3 0 C4.63241288 2.95746768 5.45432765 5.62066088 6.0625 8.9375 C6.21847656 9.77152344 6.37445313 10.60554688 6.53515625 11.46484375 C6.76525391 12.71974609 6.76525391 12.71974609 7 14 C7.33066482 15.66719815 7.66322859 17.33402464 8 19 C4.28141687 15.87608907 3.43198684 13.71929131 2.875 8.9375 C2.29900877 4.1819428 2.29900877 4.1819428 0 0 Z " fill="#0B4443" transform="translate(168,23)"/>
<path d="M0 0 C2.97 1.65 5.94 3.3 9 5 C9 5.66 9 6.32 9 7 C9.99 7.33 10.98 7.66 12 8 C11.01 8.495 11.01 8.495 10 9 C5.89753489 7.30550354 2.86108337 5.41129171 0 2 C0 1.34 0 0.68 0 0 Z " fill="#7F6732" transform="translate(191,39)"/>
</svg>
