<?xml version="1.0" encoding="UTF-8"?>
<svg version="1.1" xmlns="http://www.w3.org/2000/svg" width="985" height="246">
<path d="M0 0 C1.35413242 -0.00463479 2.70826355 -0.00966032 4.06239319 -0.01504517 C7.72328706 -0.02809822 11.38416266 -0.0345989 15.04507613 -0.03905582 C17.33349777 -0.04199501 19.62191449 -0.04610115 21.91033363 -0.05056 C29.0746706 -0.06420948 36.23899623 -0.07389142 43.40334529 -0.07776189 C51.66727089 -0.0822517 59.93103184 -0.09985285 68.19490737 -0.12876248 C74.59081524 -0.15036045 80.98667667 -0.16046498 87.38262063 -0.16180301 C91.20008812 -0.16285139 95.01740029 -0.16876746 98.83482933 -0.18662262 C102.42098698 -0.20307322 106.00687193 -0.20527371 109.59305382 -0.19648361 C111.5364721 -0.1953438 113.47988123 -0.20908006 115.42324829 -0.22323608 C116.57978409 -0.21766693 117.73631989 -0.21209778 118.92790222 -0.20635986 C120.43522305 -0.2085597 120.43522305 -0.2085597 121.9729948 -0.21080399 C125.04944511 0.22462859 126.39642675 0.99629347 128.60083008 3.16113281 C129.65551758 6.41894531 129.65551758 6.41894531 130.47583008 10.28613281 C132.92202461 20.56310299 137.77821513 28.17046834 146.60083008 34.16113281 C153.28196428 37.51700022 159.68845968 39.23350554 167.16333008 39.37207031 C168.2074707 39.40042969 169.25161133 39.42878906 170.32739258 39.45800781 C172.50951186 39.51008703 174.69183145 39.55435957 176.87426758 39.59082031 C178.44047852 39.63722656 178.44047852 39.63722656 180.03833008 39.68457031 C180.98579102 39.70438965 181.93325195 39.72420898 182.90942383 39.74462891 C186.08483587 40.23603429 188.00643983 41.29255412 190.60083008 43.16113281 C191.93805279 45.83557824 191.75012729 47.91362876 191.77783203 50.90844727 C191.79708488 52.71591179 191.79708488 52.71591179 191.81672668 54.55989075 C191.82411362 55.86818344 191.83150055 57.17647614 191.83911133 58.52441406 C191.84318686 59.18932547 191.84726238 59.85423687 191.85146141 60.5392971 C191.87232088 64.05931665 191.88662249 67.57929725 191.89599609 71.09936523 C191.90705435 74.73114138 191.94144668 78.36230376 191.98116779 81.99386311 C192.00734382 84.78976054 192.01568878 87.58551203 192.01927757 90.38152122 C192.02650303 92.36961469 192.05293886 94.35760835 192.07966614 96.34553528 C192.07527779 98.16718452 192.07527779 98.16718452 192.07080078 100.02563477 C192.07666702 101.09215775 192.08253326 102.15868073 192.08857727 103.25752258 C191.47968916 106.88229743 190.11637212 108.532063 187.60083008 111.16113281 C185.42871094 112.51977539 185.42871094 112.51977539 183.06567383 113.55566406 C181.74092041 114.1477063 181.74092041 114.1477063 180.3894043 114.75170898 C179.4485498 115.15494385 178.50769531 115.55817871 177.53833008 115.97363281 C176.08450928 116.612323 176.08450928 116.612323 174.60131836 117.26391602 C172.59628315 118.1413027 170.58843039 119.01227736 168.57788086 119.87695312 C165.73100167 121.10498204 162.89756433 122.35993789 160.06567383 123.62207031 C158.36967007 124.36565257 156.67308339 125.10790714 154.97583008 125.84863281 C153.79621704 126.37517456 153.79621704 126.37517456 152.59277344 126.91235352 C146.47499255 129.52656538 146.47499255 129.52656538 142.60083008 128.16113281 C140.6955458 126.25584854 141.43696649 122.7610994 141.42724609 120.16625977 C141.42055908 119.43448013 141.41387207 118.7027005 141.40698242 117.94874573 C141.39289798 116.35381572 141.38101484 114.75886516 141.37103462 113.16390419 C141.3546593 110.63752991 141.33142022 108.11130657 141.30613708 105.58500671 C141.2352856 98.39992782 141.17537083 91.21478512 141.12402344 84.02954102 C141.09216229 79.63868842 141.05086096 75.24800526 141.00382805 70.85729027 C140.98784144 69.18483735 140.97550448 67.51234533 140.96692085 65.83983803 C140.95471439 63.4940443 140.9305402 61.14864545 140.90380859 58.80297852 C140.90321945 58.11546509 140.90263031 57.42795166 140.90202332 56.71960449 C140.83887047 52.51987479 140.24279744 49.0356516 138.60083008 45.16113281 C136.82302868 44.16159588 136.82302868 44.16159588 134.60083008 44.16113281 C133.71983643 44.09748535 132.83884277 44.03383789 131.93115234 43.96826172 C128.67515704 43.88122418 125.42023603 43.82677486 122.16333008 43.78613281 C121.03088867 43.74875 119.89844727 43.71136719 118.73168945 43.67285156 C117.63791992 43.66125 116.54415039 43.64964844 115.41723633 43.63769531 C114.42151611 43.61787598 113.4257959 43.59805664 112.39990234 43.57763672 C108.3953446 44.41242896 107.10235089 45.94293896 104.60083008 49.16113281 C103.88847315 52.23461819 103.95054304 55.2267237 104.00488281 58.37011719 C103.99879501 59.749049 103.99879501 59.749049 103.99258423 61.15583801 C103.98707268 63.14741528 103.99305949 65.13905034 104.00924492 67.13056946 C104.03465221 70.28322155 104.02987118 73.43456541 104.01734924 76.58728027 C103.99659857 83.27870821 104.01629092 89.96973152 104.03833008 96.66113281 C104.05942882 104.4156145 104.06401772 112.16967587 104.03782845 119.92414856 C104.0344651 123.02928022 104.05569839 126.13361085 104.07823181 129.23864746 C104.0757206 131.14314956 104.07216062 133.04765067 104.06738281 134.95214844 C104.0802684 135.81463699 104.09315399 136.67712555 104.10643005 137.56575012 C104.07238817 141.63321662 103.92975954 143.64613558 101.68885803 147.15466309 C98.61480981 150.10863919 96.79742542 151.03903125 92.53833008 151.47363281 C89.60083008 151.16113281 89.60083008 151.16113281 87.942276 150.0375824 C85.98530835 147.30012495 86.21488935 145.16886497 86.20019531 141.82543945 C86.18018715 139.86309105 86.18018715 139.86309105 86.15977478 137.86109924 C86.15963956 136.43116252 86.15952303 135.00122579 86.15942383 133.57128906 C86.14765243 132.10540953 86.13428878 130.63954198 86.11940002 129.1736908 C86.0831888 125.3135368 86.06300676 121.45348905 86.04785156 117.59320068 C86.02303786 111.41792889 85.9833358 105.24289208 85.925951 99.06783867 C85.90963635 96.91187418 85.90584539 94.7561315 85.90293884 92.60011292 C85.88765892 90.63303627 85.88765892 90.63303627 85.87207031 88.6262207 C85.86565773 86.89439293 85.86565773 86.89439293 85.8591156 85.12757874 C85.60650946 82.22636136 85.18256352 80.57641286 83.60083008 78.16113281 C79.01895415 75.0333069 73.49517569 75.75334588 68.16333008 75.72363281 C66.60775391 75.67432617 66.60775391 75.67432617 65.02075195 75.62402344 C64.0172168 75.61693359 63.01368164 75.60984375 61.97973633 75.60253906 C61.06780518 75.58908447 60.15587402 75.57562988 59.21630859 75.56176758 C55.39022948 76.43855505 54.02856728 78.10678261 51.60083008 81.16113281 C51.12329516 84.1500309 50.94778596 86.56333935 51.00488281 89.54394531 C51.00082428 90.37545105 50.99676575 91.20695679 50.99258423 92.06365967 C50.98707591 93.86370864 50.9930505 95.66382161 51.00924492 97.46380615 C51.03467295 100.31405724 51.02986497 103.16286276 51.01734924 106.01318359 C50.99660754 112.06265916 51.01628504 118.11168676 51.03833008 124.16113281 C51.05943597 131.17217572 51.06400597 138.18275362 51.03782845 145.19378662 C51.03446735 147.99980222 51.05568987 150.80492958 51.07823181 153.61083984 C51.07572039 155.3333353 51.07216021 157.05582965 51.06738281 158.77832031 C51.0802684 159.55665222 51.09315399 160.33498413 51.10643005 161.13690186 C51.07199977 164.86086914 50.7309948 166.95869538 48.69667053 170.12255859 C45.91680616 172.82646663 45.09871464 173.12492303 41.16333008 173.41113281 C37.60083008 173.16113281 37.60083008 173.16113281 35.90222168 171.96966553 C34.1527113 169.538386 34.22264278 167.95736364 34.21606445 164.97460938 C34.20595337 163.9163092 34.19584229 162.85800903 34.1854248 161.76763916 C34.18844604 160.62389832 34.19146729 159.48015747 34.19458008 158.30175781 C34.1837439 157.12401794 34.17290771 155.94627808 34.16174316 154.73284912 C34.1273998 150.95888817 34.11187668 147.18522965 34.10083008 143.41113281 C34.08625002 138.45771717 34.05250618 133.50497597 34.00708008 128.55175781 C34.01010132 127.41611389 34.01312256 126.28046997 34.01623535 125.1104126 C33.95894314 119.04234541 33.63826656 114.47814578 30.60083008 109.16113281 C26.46758914 106.40816683 21.47717176 106.82898448 16.66333008 106.84863281 C15.48480469 106.82446289 15.48480469 106.82446289 14.2824707 106.79980469 C9.36230337 106.79568739 5.75804152 107.24791136 1.60083008 110.16113281 C-0.41480532 114.04843927 -0.65633879 117.35231791 -0.67382812 121.69213867 C-0.68336014 122.9937645 -0.69289215 124.29539032 -0.70271301 125.63645935 C-0.70245157 127.04963203 -0.70151444 128.46280472 -0.69995117 129.87597656 C-0.70384132 131.33419415 -0.70817665 132.79241061 -0.7129364 134.25062561 C-0.72038569 137.30278196 -0.7201167 140.35482261 -0.71484375 143.40698242 C-0.70904996 147.30864309 -0.72598375 151.20982891 -0.74918842 155.11141109 C-0.76395545 158.1218185 -0.76479347 161.13211231 -0.7616787 164.14254951 C-0.76219039 165.58059187 -0.76739958 167.01864083 -0.77749062 168.45664787 C-0.78989433 170.47130553 -0.78110208 172.48605953 -0.77148438 174.50073242 C-0.7721138 175.64481064 -0.77274323 176.78888885 -0.77339172 177.96763611 C-0.34407867 181.63126503 0.66625796 184.03332203 2.60083008 187.16113281 C8.93438944 190.24045701 16.0831454 189.60680623 22.97583008 189.66113281 C24.24555664 189.70238281 25.5152832 189.74363281 26.82348633 189.78613281 C37.14114072 189.8695921 45.30151026 187.22529245 54.60083008 183.16113281 C56.43474726 182.37912396 58.26908379 181.59809807 60.10375977 180.81787109 C65.37783962 178.56145923 70.63497022 176.26773777 75.88851929 173.96398926 C81.74660161 171.39601378 87.61106397 168.84270566 93.47583008 166.29003906 C94.66194382 165.77363861 95.84805756 165.25723816 97.07011414 164.72518921 C110.46340204 158.9028768 123.91184662 153.21293626 137.37963867 147.56542969 C139.16952354 146.81479907 140.95940004 146.06414851 142.74926758 145.31347656 C143.60217377 144.95595306 144.45507996 144.59842957 145.33383179 144.23007202 C150.53872531 142.04328087 155.72137745 139.81133311 160.88989258 137.54003906 C162.11218051 137.00687669 163.33458738 136.47398687 164.55712891 135.94140625 C166.69250519 135.00753833 168.82316503 134.06275378 170.94726562 133.10351562 C176.4397945 130.71322599 180.59824491 129.30545883 186.60083008 130.16113281 C189.28916931 131.77154541 189.28916931 131.77154541 191.60083008 134.16113281 C192.22901917 137.24578857 192.22901917 137.24578857 192.23193359 140.9140625 C192.24266655 141.91978806 192.24266655 141.91978806 192.25361633 142.9458313 C192.27050169 145.15892044 192.25109725 147.36998194 192.22973633 149.58300781 C192.23056545 151.12754483 192.23302647 152.67208176 192.23704529 154.21661377 C192.23990365 157.45490057 192.22520652 160.69249594 192.19775391 163.93066406 C192.16378426 168.06441521 192.16965032 172.19692093 192.18841648 176.33073044 C192.19903429 179.52230028 192.19000373 182.71358506 192.17503166 185.90512848 C192.16987661 187.42802328 192.1702989 188.95094822 192.17657661 190.47383881 C192.20345543 200.91860668 191.39702541 208.53226939 184.22583008 216.71191406 C177.61427167 222.60827986 170.87612881 225.30742472 162.14564514 225.32176208 C160.99681332 225.32939381 160.99681332 225.32939381 159.82477278 225.33717972 C157.2502084 225.35291526 154.67567212 225.36143233 152.10107422 225.36987305 C150.25805482 225.37941094 148.41503723 225.38930207 146.57202148 225.39952087 C140.51003142 225.43092446 134.44802759 225.45118016 128.38598633 225.46972656 C126.83807313 225.47467255 126.83807313 225.47467255 125.25888896 225.47971845 C115.52212591 225.51050898 105.78535974 225.53721181 96.04856205 225.55413723 C83.60485841 225.57602254 71.16158744 225.61794211 58.71805674 225.6875748 C49.96374349 225.73489337 41.20954662 225.7590816 32.45510954 225.76633412 C27.2298388 225.77128002 22.00505554 225.78625918 16.77992439 225.82607841 C11.85743808 225.86309509 6.93571456 225.87130529 2.01311493 225.85807228 C0.21367012 225.85812599 -1.58580977 225.86832278 -3.38512611 225.88982391 C-14.93518698 226.02037887 -24.53250282 225.28353937 -33.61678982 217.18387508 C-44.7009455 205.77098341 -43.55011815 191.24702678 -43.54443359 176.40527344 C-43.54743098 174.83383607 -43.55083483 173.26239943 -43.55461121 171.69096375 C-43.56339368 167.44928024 -43.5657868 163.20761694 -43.56642699 158.96592522 C-43.56714045 156.31076221 -43.56928029 153.65560425 -43.57192421 151.0004425 C-43.58115662 141.72343624 -43.58526149 132.4464443 -43.58447266 123.16943359 C-43.58387153 114.54318442 -43.59443554 105.9169977 -43.61021632 97.29076433 C-43.62331575 89.86371331 -43.62865559 82.43668266 -43.62801725 75.00962019 C-43.62776309 70.58283249 -43.63056919 66.15610045 -43.6411953 61.72932434 C-43.65091756 57.56615081 -43.65092732 53.40308571 -43.64367867 49.23990822 C-43.64263814 47.71861931 -43.64496386 46.1973235 -43.65103912 44.67604637 C-43.70096029 31.3020417 -43.18047488 19.65314244 -33.73120117 9.34082031 C-23.60028617 0.11403731 -13.10734142 0.01163839 0 0 Z " fill="#10B081" transform="translate(43.399169921875,20.8388671875)"/>
<path d="M0 0 C3.64226538 1.05956811 5.08861345 2.08738068 7.4375 5 C7.91316406 4.6390625 8.38882812 4.278125 8.87890625 3.90625 C16.07841154 -0.86690268 23.00361252 -0.97983275 31.4375 0 C37.96283187 1.65678639 42.03455619 5.03257622 46.4375 10 C47.489375 8.88625 47.489375 8.88625 48.5625 7.75 C55.87957386 0.75105979 61.78585375 -0.4690754 71.6328125 -0.27734375 C78.8945587 0.25200325 84.5280124 3.28039854 89.8671875 8.16015625 C98.37523566 18.12854104 97.70745912 29.84051826 97.78759766 42.13745117 C97.80418442 44.00248672 97.83151024 45.867458 97.86962891 47.73217773 C97.9245026 50.43506493 97.94628135 53.13647405 97.9609375 55.83984375 C97.98360687 56.66814194 98.00627625 57.49644012 98.02963257 58.34983826 C98.0146024 62.48565699 97.71328371 65.20985302 95.12744141 68.53344727 C92.4375 71 92.4375 71 88.875 71.625 C84.98638428 70.91797896 83.80279954 70.09308401 81.4375 67 C79.7725876 63.67017521 80.25818599 59.92897739 80.2265625 56.265625 C80.19848476 54.47655349 80.16982024 52.68749112 80.140625 50.8984375 C80.09942885 48.07650089 80.0625443 45.25473305 80.03613281 42.43261719 C80.00843796 39.70992716 79.96255679 36.98801359 79.9140625 34.265625 C79.91080963 33.42791565 79.90755676 32.5902063 79.90420532 31.72711182 C79.80080716 26.77191978 79.20600584 23.27912381 76.4375 19 C72.1011145 16.04337353 68.62792137 15.36257983 63.4375 16 C59.12577133 17.49354725 57.00503311 18.90911038 54.85986328 23.0324707 C53.06389684 27.37540172 53.0476695 31.39346269 53.1015625 36.0390625 C53.08905908 37.77083715 53.07602239 39.50260801 53.0625 41.234375 C53.05856178 43.93796077 53.06258712 46.64117557 53.07714844 49.34472656 C53.08572057 51.97256286 53.06404931 54.59886175 53.0390625 57.2265625 C53.05240631 58.03187408 53.06575012 58.83718567 53.07949829 59.66690063 C53.02387366 63.89926583 52.78894769 65.5425472 50.12255859 69.01318359 C47.4375 71 47.4375 71 43.875 71.5625 C40.4375 71 40.4375 71 38.26953125 69.64453125 C35.35953505 65.44396105 35.75857124 61.12194731 35.6875 56.125 C35.65640137 55.09157471 35.62530273 54.05814941 35.59326172 52.9934082 C35.43976778 47.38473954 35.45094775 41.79609912 35.5625 36.1875 C35.59716478 30.46087886 35.09061908 25.16000326 32.4375 20 C30.04762067 17.8613923 30.04762067 17.8613923 27.4375 17 C26.7775 16.67 26.1175 16.34 25.4375 16 C20.331465 16.04012601 15.31614165 16.46359144 11.4375 20 C8.79223426 25.84867374 8.02512659 30.5514706 8.1015625 36.91796875 C8.08906187 38.6009154 8.07602531 40.28385815 8.0625 41.96679688 C8.05855952 44.58697229 8.06260692 47.20676462 8.07714844 49.8269043 C8.08572019 52.37866671 8.06405514 54.92884601 8.0390625 57.48046875 C8.05240631 58.2607695 8.06575012 59.04107025 8.07949829 59.84501648 C8.02495953 63.86745715 7.60956262 65.77721865 5.12255859 68.99731445 C2.4375 71 2.4375 71 -1.125 71.5625 C-5.16038917 70.90216359 -6.09912809 70.18431596 -8.5625 67 C-9.0771637 64.1541748 -9.0771637 64.1541748 -9.09594727 60.82617188 C-9.1117836 59.57807739 -9.12761993 58.32998291 -9.14393616 57.04406738 C-9.14009483 55.68562445 -9.13505586 54.32718445 -9.12890625 52.96875 C-9.13414261 51.57156968 -9.14041914 50.1743929 -9.14768982 48.77722168 C-9.15808966 45.85179994 -9.15353882 42.92686476 -9.13891602 40.00146484 C-9.12172066 36.2550143 -9.14523177 32.51009637 -9.18040562 28.76381683 C-9.20237966 25.87951523 -9.20093855 22.99558048 -9.1926403 20.11122131 C-9.1918209 18.7301312 -9.19868248 17.34901413 -9.21341133 15.96800232 C-9.23085341 14.03667839 -9.21299729 12.10513344 -9.19360352 10.17382812 C-9.19264175 9.07558716 -9.19167999 7.97734619 -9.19068909 6.8458252 C-8.5625 4 -8.5625 4 -6.24571228 1.61413574 C-3.5625 0 -3.5625 0 0 0 Z " fill="#1EB588" transform="translate(300.5625,106)"/>
<path d="M0 0 C0.42410156 -0.44472656 0.84820313 -0.88945313 1.28515625 -1.34765625 C4.52157278 -4.47026473 6.06293735 -5.95235275 10.6875 -6.1875 C14.6487974 -4.76741225 15.72513106 -3.49027239 18 0 C18.50793457 2.84545898 18.50793457 2.84545898 18.51757812 5.99609375 C18.53018677 7.18082275 18.54279541 8.36555176 18.55578613 9.58618164 C18.54768921 10.8571167 18.53959229 12.12805176 18.53125 13.4375 C18.53699036 15.40674438 18.53699036 15.40674438 18.54284668 17.41577148 C18.54873166 20.18980815 18.54021219 22.96332826 18.52148438 25.73730469 C18.49869409 29.28506081 18.51182273 32.83160648 18.53577423 36.37931824 C18.55374135 39.77380804 18.54114505 43.16797585 18.53125 46.5625 C18.53934692 47.83343506 18.54744385 49.10437012 18.55578613 50.41381836 C18.54317749 51.59854736 18.53056885 52.78327637 18.51757812 54.00390625 C18.51439575 55.04361572 18.51121338 56.0833252 18.50793457 57.15454102 C17.86518215 60.75525211 16.55652599 62.42356271 14 65 C10.625 66.125 10.625 66.125 7 66 C3.97156904 64.27622791 1.57976349 62.15952697 0 59 C-1.010625 59.78375 -2.02125 60.5675 -3.0625 61.375 C-10.53908941 67.17317138 -20.02378821 66.6041681 -29 66 C-39.33604734 64.19119172 -48.02890383 57.421572 -54 49 C-59.5015485 40.05371293 -59.98724529 29.69488634 -57.78125 19.59375 C-55.09694705 10.68186419 -49.37734922 3.25875449 -41.40234375 -1.57421875 C-28.1039486 -8.40947634 -12.58628856 -8.39085904 0 0 Z M-36.875 15.75 C-40.77540997 21.7153329 -42.72693777 26.58511325 -41.57421875 33.76171875 C-39.99474143 39.91845686 -37.46580972 44.53387676 -32 48 C-26.31831236 50.91762338 -20.54244371 51.70554162 -14.4375 49.9375 C-8.72222054 47.72036573 -4.64102719 44.93172274 -1.609375 39.515625 C1.17806497 32.93726667 1.67976415 27.67726356 -1 21 C-4.08676038 14.83712323 -7.98491126 11.80251103 -14.48828125 9.625 C-23.10400489 7.48111853 -30.48319274 9.63609741 -36.875 15.75 Z " fill="#2A394E" transform="translate(723,112)"/>
<path d="M0 0 C7.09540175 6.58211737 10.21612687 15.00605655 11.1484375 24.515625 C10.78033693 27.82853015 9.81250163 29.66736559 7.8359375 32.328125 C5.41686959 33.53765895 3.81427442 33.48492408 1.11083984 33.53344727 C0.12997406 33.55339249 -0.85089172 33.57333771 -1.86148071 33.59388733 C-3.45371964 33.61895607 -3.45371964 33.61895607 -5.078125 33.64453125 C-6.16290131 33.66531235 -7.24767761 33.68609344 -8.36532593 33.70750427 C-11.83983871 33.77303134 -15.31442874 33.83189947 -18.7890625 33.890625 C-21.14063308 33.93380721 -23.49219576 33.9774214 -25.84375 34.02148438 C-31.6171052 34.12871593 -37.3905377 34.23047644 -43.1640625 34.328125 C-42.37810714 38.8118132 -41.53824216 41.11853947 -38.1640625 44.328125 C-30.94532734 48.39278758 -23.8318387 49.60085665 -15.74609375 47.78515625 C-11.96655069 46.63926464 -9.231443 45.3756877 -5.9765625 43.078125 C-3.1640625 41.328125 -3.1640625 41.328125 -0.0390625 41.265625 C3.60074113 42.61076982 4.87181423 44.00422409 6.8359375 47.328125 C7.3984375 49.828125 7.3984375 49.828125 6.8359375 52.328125 C1.69809356 58.75042992 -5.2404084 62.53634392 -13.1640625 64.328125 C-23.46316593 65.286502 -35.13412949 66.01167107 -44.1640625 60.328125 C-45.21207031 59.69197266 -45.21207031 59.69197266 -46.28125 59.04296875 C-53.32588571 54.27122494 -59.40010345 47.33770697 -61.7265625 39.03515625 C-63.34623233 29.01344919 -63.33858768 18.31764863 -58.1640625 9.328125 C-51.17236701 -0.23222875 -43.2611858 -6.10927226 -31.6015625 -8.359375 C-19.66653597 -9.54151096 -9.59736733 -7.41457259 0 0 Z M-42.1640625 14.328125 C-42.87235226 15.97753333 -43.5450463 17.64317955 -44.1640625 19.328125 C-31.72375139 20.37556052 -19.61526278 20.16507228 -7.1640625 19.328125 C-8.965724 13.52980243 -8.965724 13.52980243 -13.1640625 9.328125 C-23.81172535 4.60259082 -33.69168633 5.85574883 -42.1640625 14.328125 Z " fill="#27364B" transform="translate(974.1640625,113.671875)"/>
<path d="M0 0 C4.26677735 1.5768525 6.24635059 3.92118195 8.42724609 7.88061523 C8.91273926 8.94997314 9.39823242 10.01933105 9.8984375 11.12109375 C10.445 12.31283203 10.9915625 13.50457031 11.5546875 14.73242188 C12.12004242 15.98816839 12.68514581 17.24402817 13.25 18.5 C13.80646602 19.72107972 14.36375161 20.9417863 14.921875 22.16210938 C16.0287755 24.58461357 17.12878532 27.00987491 18.22558594 29.43701172 C19.34577075 31.89922968 20.47542793 34.35344886 21.62597656 36.80126953 C22.17479492 37.97157715 22.72361328 39.14188477 23.2890625 40.34765625 C23.78615723 41.39961182 24.28325195 42.45156738 24.79541016 43.53540039 C25.875 46.0625 25.875 46.0625 25.875 48.0625 C26.535 48.0625 27.195 48.0625 27.875 48.0625 C28.41833984 46.25458984 28.41833984 46.25458984 28.97265625 44.41015625 C31.16532325 37.83729932 34.26659639 31.71092077 37.3125 25.5 C37.88548828 24.31986328 38.45847656 23.13972656 39.04882812 21.92382812 C40.64931242 18.63261359 42.26171107 15.34744996 43.875 12.0625 C44.27686523 11.2274292 44.67873047 10.3923584 45.09277344 9.53198242 C47.14284452 5.31150165 48.65884376 2.37134747 52.875 0.0625 C56.4698199 0.0625 58.29046447 0.66255464 61.25 2.6875 C63.51439981 5.99700741 63.18101557 8.09351652 62.875 12.0625 C61.61254883 15.44213867 61.61254883 15.44213867 59.83203125 18.98046875 C59.51207687 19.62724579 59.1921225 20.27402283 58.86247253 20.94039917 C57.81624508 23.04987382 56.75176438 25.14957682 55.6875 27.25 C54.58299744 29.46810647 53.48373583 31.6887562 52.38497925 33.90971375 C51.63915485 35.41704382 50.89185142 36.92364294 50.14309692 38.42951965 C46.58442184 45.60009102 43.21544556 52.85085215 39.875 60.125 C38.81988898 62.40144908 37.76393559 64.67750796 36.70703125 66.953125 C35.35452823 69.86565557 34.00424092 72.77870564 32.67333984 75.70117188 C25.48185285 91.45790836 25.48185285 91.45790836 17.875 96.0625 C13.59608211 97.48880596 9.48362537 97.3673437 5 97.4375 C4.10152344 97.47488281 3.20304687 97.51226562 2.27734375 97.55078125 C-2.32194678 97.61192396 -4.44803468 97.56091571 -8.25 94.76171875 C-10.125 92.0625 -10.125 92.0625 -10.25 88.5 C-8.89818525 84.36945492 -7.76051347 83.36251872 -4.125 81.0625 C-0.51513194 80.5662982 2.95691749 80.56233422 6.59765625 80.53125 C10.46857093 79.97760309 11.52666331 79.11533769 13.875 76.0625 C16.28109226 71.49922158 17.29175622 69.00250524 15.875 64.0625 C14.83154487 61.67366735 13.75319199 59.35398677 12.59375 57.0234375 C12.26391113 56.3488147 11.93407227 55.67419189 11.59423828 54.97912598 C10.88976006 53.5397016 10.18273803 52.10151987 9.47338867 50.66448975 C8.36968469 48.42672318 7.27445957 46.1849948 6.18164062 43.94189453 C3.08251936 37.58464954 -0.03497687 31.23720742 -3.1875 24.90625 C-4.000217 23.25010647 -4.81273957 21.5938675 -5.625 19.9375 C-5.99173828 19.21868652 -6.35847656 18.49987305 -6.73632812 17.75927734 C-8.87657551 13.36496225 -9.70916992 9.93853052 -9.125 5.0625 C-6.17069028 1.68614603 -4.55909952 0.09118199 0 0 Z " fill="#21B78A" transform="translate(412.125,105.9375)"/>
<path d="M0 0 C0.79051758 0.00612305 1.58103516 0.01224609 2.39550781 0.01855469 C8.3594893 0.17854594 12.9926079 1.1596503 18.0625 4.4375 C19.114375 5.035625 20.16625 5.63375 21.25 6.25 C27.96170072 11.47021167 33.0957836 18.28021485 34.44314575 26.86193848 C34.60242845 29.43171204 34.64344316 31.97226202 34.62890625 34.546875 C34.63510483 35.47671204 34.64130341 36.40654907 34.64768982 37.36456299 C34.65474555 39.31415772 34.65168892 41.26381325 34.63891602 43.21337891 C34.62496887 46.19415212 34.65928014 49.17183092 34.69726562 52.15234375 C34.69821622 54.05468827 34.69636123 55.9570367 34.69140625 57.859375 C34.70466446 58.74590759 34.71792267 59.63244019 34.73158264 60.5458374 C34.66455604 64.99248257 34.49853923 66.86951285 31.71069336 70.50097656 C29.0625 72.4375 29.0625 72.4375 26.0625 73 C22.38016096 72.30956143 20.69436072 71.06936072 18.0625 68.4375 C16.79631965 64.63895894 16.92701612 61.07025143 16.921875 57.11328125 C16.90353896 55.42772095 16.88396792 53.74217372 16.86328125 52.05664062 C16.83439389 49.40806119 16.81250191 46.76031913 16.81201172 44.11157227 C16.80865523 41.54889227 16.77397301 38.98812596 16.734375 36.42578125 C16.7414447 35.64527908 16.7485144 34.86477692 16.75579834 34.06062317 C16.6280211 28.21873382 14.97253809 23.85409921 11.0625 19.4375 C6.22220001 16.48711376 0.64947289 15.45410632 -4.9375 16.4375 C-9.54358596 18.05004356 -13.58364261 19.99132492 -15.9375 24.4375 C-17.95606558 29.4188744 -18.21781262 33.69570832 -18.2109375 38.9765625 C-18.23121161 40.62500697 -18.25206209 42.27344444 -18.2734375 43.921875 C-18.29609058 46.50038627 -18.3125364 49.07862009 -18.31835938 51.65722656 C-18.32787202 54.16000399 -18.36161054 56.66155889 -18.3984375 59.1640625 C-18.39339203 59.93392487 -18.38834656 60.70378723 -18.38314819 61.49697876 C-18.44746818 64.99394451 -18.64692042 67.04535408 -20.75634766 69.89208984 C-23.87053195 72.0985804 -26.14028764 72.4375 -29.9375 72.4375 C-32.73939446 70.67108828 -34.45274911 69.40700178 -35.9375 66.4375 C-36.06097397 63.79459576 -36.12592683 61.17917182 -36.140625 58.53515625 C-36.14632507 57.74282089 -36.15202515 56.95048553 -36.15789795 56.13414001 C-36.16735837 54.45036149 -36.17388605 52.76656437 -36.17773438 51.08276367 C-36.18734438 48.54115867 -36.2183159 46.00039614 -36.25 43.45898438 C-36.32936575 31.54348588 -36.00951845 20.91791224 -27.95703125 11.44140625 C-20.1061705 3.65128717 -10.97547489 -0.14509157 0 0 Z " fill="#2C3B4F" transform="translate(619.9375,105.5625)"/>
<path d="M0 0 C8.9185501 5.77178562 13.7896822 12.34170284 17.13671875 22.3828125 C17.24132492 23.72166302 17.29501355 25.06491433 17.3137207 26.40771484 C17.33297356 27.61444351 17.33297356 27.61444351 17.35261536 28.84555054 C17.36000229 29.71120636 17.36738922 30.57686218 17.375 31.46875 C17.38307175 32.36268463 17.39114349 33.25661926 17.39945984 34.17764282 C17.41328645 36.06892972 17.42401497 37.96024143 17.43188477 39.8515625 C17.44911289 42.74006434 17.49301285 45.62742587 17.53710938 48.515625 C17.54723542 50.35415826 17.5557518 52.19270124 17.5625 54.03125 C17.58000809 54.89285736 17.59751617 55.75446472 17.61555481 56.6421814 C17.6007218 60.75299284 17.46314762 62.85629663 15.2487793 66.42797852 C12.83560709 68.66150873 11.87786006 69.03966079 8.63671875 68.9453125 C7.88390625 68.94660156 7.13109375 68.94789063 6.35546875 68.94921875 C3.17036842 68.13612095 2.12338872 67.01468844 0.13671875 64.3828125 C-0.23377919 61.38207918 -0.37404359 58.73859431 -0.33203125 55.7421875 C-0.33908081 54.90117493 -0.34613037 54.06016235 -0.35339355 53.19366455 C-0.38281621 49.60534761 -0.36631728 46.01757601 -0.35400391 42.42919922 C-0.35160825 39.80403816 -0.37262712 37.17974089 -0.39453125 34.5546875 C-0.38321167 33.75544861 -0.37189209 32.95620972 -0.36022949 32.13275146 C-0.41041707 26.4762554 -1.65015377 22.0940122 -4.86328125 17.3828125 C-9.8803052 13.49461894 -14.61943365 12.96655599 -20.86328125 13.3828125 C-26.35551352 14.68657605 -29.80769131 16.44685951 -32.86328125 21.3828125 C-35.10426812 25.79329217 -35.1276314 29.94716976 -35.1015625 34.7890625 C-35.11697579 36.43620622 -35.13327894 38.0833418 -35.15039062 39.73046875 C-35.1668614 42.31121847 -35.17575785 44.89136982 -35.16870117 47.47216797 C-35.16607938 49.97431341 -35.19420054 52.47465798 -35.2265625 54.9765625 C-35.21635574 55.74440063 -35.20614899 56.51223877 -35.19563293 57.30334473 C-35.26949898 61.35996984 -35.69076101 63.16909445 -38.27197266 66.36669922 C-40.80079309 68.3341949 -41.79293063 69.07009581 -44.92578125 69.0078125 C-48.86328125 68.3828125 -48.86328125 68.3828125 -51.07836914 66.40356445 C-53.49799896 62.30862808 -53.42307268 59.09821033 -53.359375 54.42578125 C-53.36083023 53.56398758 -53.36228546 52.70219391 -53.36378479 51.81428528 C-53.36212849 49.99456395 -53.35059726 48.17482823 -53.32983398 46.35522461 C-53.30098367 43.58971631 -53.30920992 40.82613975 -53.32226562 38.06054688 C-53.31602413 36.28644912 -53.30762998 34.51235738 -53.296875 32.73828125 C-53.29981064 31.92030563 -53.30274628 31.10233002 -53.30577087 30.25956726 C-53.14301952 20.19889778 -49.0643866 12.91536084 -42.26953125 5.6875 C-31.72423169 -4.21115384 -13.03129982 -6.50427879 0 0 Z " fill="#2B3A4F" transform="translate(807.86328125,108.6171875)"/>
<path d="M0 0 C1.94712891 -0.03867188 1.94712891 -0.03867188 3.93359375 -0.078125 C7.72731745 0.26490276 9.5735275 0.94821183 12.5625 3.25 C14.10836876 6.34173752 13.85609521 8.84429552 13.5625 12.25 C11.9140625 14.46875 11.9140625 14.46875 9.5625 16.25 C6.72265625 16.5703125 6.72265625 16.5703125 3.625 16.375 C-0.60925441 16.12876017 -3.71288801 16.06057591 -7.4375 18.25 C-9.51081053 21.88147334 -9.79048556 25.43694766 -10.0625 29.5625 C-10.13726563 30.63113281 -10.21203125 31.69976562 -10.2890625 32.80078125 C-10.33804688 33.60902344 -10.38703125 34.41726562 -10.4375 35.25 C-9.43589844 35.21519531 -8.43429687 35.18039063 -7.40234375 35.14453125 C6.01801306 34.81769856 6.01801306 34.81769856 11.5625 38.25 C13.12680248 41.37860495 12.91877284 43.80602925 12.5625 47.25 C10.42281555 49.68674326 8.72710412 51.07468616 5.46386719 51.56591797 C3.04694629 51.64350691 0.66600371 51.59915722 -1.75 51.5 C-3.00393555 51.47292969 -3.00393555 51.47292969 -4.28320312 51.4453125 C-6.33513228 51.39841126 -8.38646756 51.32667411 -10.4375 51.25 C-10.42084541 52.17295113 -10.42084541 52.17295113 -10.40385437 53.11454773 C-10.29318503 59.52209956 -10.2178012 65.92937968 -10.1628418 72.33764648 C-10.13770685 74.72870919 -10.10359367 77.11969514 -10.06030273 79.51049805 C-9.99960939 82.94859764 -9.97127928 86.38568096 -9.94921875 89.82421875 C-9.92341232 90.89210129 -9.8976059 91.95998383 -9.87101746 93.06022644 C-9.86821067 100.49726142 -9.86821067 100.49726142 -12.83691406 104.42260742 C-16.87337379 107.25896689 -18.59235895 107.01907001 -23.4375 106.25 C-26.09583171 104.06637038 -27.28728385 102.29723919 -27.77966309 98.86459351 C-27.90168485 95.842825 -27.88658125 92.84790398 -27.828125 89.82421875 C-27.81963531 88.17012749 -27.81963531 88.17012749 -27.81097412 86.48262024 C-27.7886175 82.96713508 -27.73842021 79.45267613 -27.6875 75.9375 C-27.66743418 73.55144703 -27.64918355 71.16537806 -27.6328125 68.77929688 C-27.58875501 62.9358489 -27.52184918 57.09299777 -27.4375 51.25 C-28.57312378 51.27610352 -28.57312378 51.27610352 -29.73168945 51.30273438 C-30.72386475 51.31626953 -31.71604004 51.32980469 -32.73828125 51.34375 C-33.72223877 51.36115234 -34.70619629 51.37855469 -35.7199707 51.39648438 C-38.4375 51.25 -38.4375 51.25 -41.625 49.75 C-43.82023854 46.72208477 -44.1843242 44.84262851 -43.90234375 41.15625 C-43.4375 39.25 -43.4375 39.25 -41.625 36.75 C-36.93714664 34.54395136 -32.53306265 34.92873861 -27.4375 35.25 C-27.47230469 34.34378906 -27.50710938 33.43757813 -27.54296875 32.50390625 C-27.78771375 21.49038118 -26.98292173 14.09131779 -19.2734375 5.91015625 C-13.53475059 0.72091808 -7.42873841 0.08834971 0 0 Z " fill="#2C3A4F" transform="translate(530.4375,70.75)"/>
<path d="M0 0 C6.27246377 4.54492754 6.27246377 4.54492754 8 8 C8.375 11.375 8.375 11.375 8 15 C5.55478703 17.80480311 3.8666902 18.80302495 0.25 19.625 C-3.18215386 18.96497041 -4.43475175 18.09884675 -7.1875 16.0625 C-12.27789857 12.44608889 -16.80403243 11.59730787 -23 12 C-28.04539409 13.06218823 -32.48567415 15.19281366 -36 19 C-39.11517764 24.49620514 -40.72942623 29.54454636 -39.60546875 35.83203125 C-38.10189094 41.21580987 -36.36127427 44.9165368 -31.9375 48.4375 C-26.05669096 51.56558991 -20.54706488 51.61482589 -14 51 C-10.0191535 49.68606047 -6.80485706 47.55573464 -3.375 45.1875 C-0.15950136 43.57975068 1.60654776 43.96721019 5 45 C7.02627707 46.58725037 7.88010127 47.54386354 8.5390625 50.05078125 C8.66711764 53.42095978 8.73559814 55.95503815 6.74609375 58.78125 C-2.68632486 67.36015509 -13.88780974 68.58639967 -26.06005859 68.12744141 C-36.27729422 67.45623615 -43.47730734 61.93383207 -50.3125 54.6875 C-57.04410775 46.40388268 -58.43711511 36.64470972 -57.49609375 26.3515625 C-55.98437335 16.13852235 -50.98594743 9.60241301 -43.5625 2.75 C-31.54209155 -5.45905943 -12.81357884 -8.12931114 0 0 Z " fill="#2C3B50" transform="translate(894,110)"/>
<path d="M0 0 C5.04616154 3.37647574 10.03602752 8.71377133 12.1875 14.4375 C13.00694884 21.92467463 13.54463078 29.58137596 8.734375 35.796875 C2.66249884 42.23674366 -2.75698466 45.86671601 -11.6875 46.875 C-18.55651319 46.55111726 -24.75619676 43.80273974 -29.75 39.125 C-35.18060836 33.05398971 -36.33872388 27.35126213 -36.08984375 19.3671875 C-35.43215704 12.41979269 -33.05880199 7.70557043 -27.8828125 2.984375 C-19.72395824 -3.11167459 -9.32983668 -4.66491834 0 0 Z " fill="#FDB836" transform="translate(222.8125,2.5625)"/>
<path d="M0 0 C2.61079069 1.6453333 3.57469306 2.35650226 5 5 C5.75628092 9.5469736 5.67608192 14.0561472 5.62890625 18.65625 C5.6297356 20.00476269 5.6321975 21.35327527 5.63621521 22.70178223 C5.63906852 25.52301597 5.62442008 28.34345374 5.59692383 31.16455078 C5.56283985 34.77287426 5.56886257 38.37977521 5.5875864 41.98816681 C5.59817744 44.77129887 5.58919991 47.55410243 5.57420158 50.33720398 C5.56652996 52.31190674 5.5738602 54.28664941 5.58143616 56.26135254 C5.56559982 57.46610229 5.54976349 58.67085205 5.53344727 59.91210938 C5.52724869 60.96958374 5.52105011 62.02705811 5.5146637 63.11657715 C4.87272182 66.71308081 3.53049653 68.41056438 1 71 C-1.25390625 71.59375 -1.25390625 71.59375 -3.5625 71.5 C-4.32691406 71.4896875 -5.09132813 71.479375 -5.87890625 71.46875 C-8.48192489 70.89349726 -9.37955751 70.08835141 -11 68 C-12.03876206 64.88371382 -12.13899907 62.68410923 -12.16113281 59.41455078 C-12.17554413 57.69729294 -12.17554413 57.69729294 -12.19024658 55.94534302 C-12.19449646 54.70783295 -12.19874634 53.47032288 -12.203125 52.1953125 C-12.21167511 50.28841141 -12.21167511 50.28841141 -12.22039795 48.34298706 C-12.22985134 45.65131042 -12.23674656 42.95974537 -12.24023438 40.26806641 C-12.24571719 36.82587201 -12.26974499 33.38407355 -12.29820633 29.94200325 C-12.32135463 26.65146977 -12.3232837 23.36091601 -12.328125 20.0703125 C-12.3466452 18.22012009 -12.3466452 18.22012009 -12.36553955 16.33255005 C-12.36253845 15.18140717 -12.35953735 14.03026428 -12.35644531 12.84423828 C-12.36009094 11.83402618 -12.36373657 10.82381409 -12.36749268 9.7829895 C-11.93370662 6.4979661 -10.95687722 4.65551602 -9 2 C-5.48175489 -0.34549674 -4.14224306 -0.57991403 0 0 Z " fill="#2D3C50" transform="translate(567,106)"/>
<path d="M0 0 C1.35413242 -0.00463479 2.70826355 -0.00966032 4.06239319 -0.01504517 C7.72328706 -0.02809822 11.38416266 -0.0345989 15.04507613 -0.03905582 C17.33349777 -0.04199501 19.62191449 -0.04610115 21.91033363 -0.05056 C29.0746706 -0.06420948 36.23899623 -0.07389142 43.40334529 -0.07776189 C51.66727089 -0.0822517 59.93103184 -0.09985285 68.19490737 -0.12876248 C74.59081524 -0.15036045 80.98667667 -0.16046498 87.38262063 -0.16180301 C91.20008812 -0.16285139 95.01740029 -0.16876746 98.83482933 -0.18662262 C102.42098698 -0.20307322 106.00687193 -0.20527371 109.59305382 -0.19648361 C111.5364721 -0.1953438 113.47988123 -0.20908006 115.42324829 -0.22323608 C116.57978409 -0.21766693 117.73631989 -0.21209778 118.92790222 -0.20635986 C120.43522305 -0.2085597 120.43522305 -0.2085597 121.9729948 -0.21080399 C124.98505088 0.2155144 126.36255493 1.15194419 128.60083008 3.16113281 C128.27083008 3.82113281 127.94083008 4.48113281 127.60083008 5.16113281 C126.61083008 4.17113281 126.61083008 4.17113281 125.60083008 3.16113281 C122.98329407 2.85599164 122.98329407 2.85599164 119.87574768 2.90716553 C118.65728149 2.90152588 117.43881531 2.89588623 116.1834259 2.89007568 C114.82589663 2.89396465 113.46836793 2.89806102 112.11083984 2.90234375 C110.68685731 2.89963487 109.26287617 2.89607452 107.83889771 2.89172363 C103.96493655 2.88258423 100.09108158 2.88615045 96.2171185 2.8924818 C92.16793096 2.89753478 88.1187527 2.89285222 84.06956482 2.88970947 C77.26771406 2.88606736 70.46590668 2.89087491 63.6640625 2.90039062 C55.79559333 2.91127129 47.92722783 2.90775343 40.05876118 2.89673781 C33.30967621 2.8876667 26.56062249 2.88637893 19.81153339 2.89161515 C15.77777115 2.89473639 11.74405766 2.89514008 7.71029854 2.88854218 C3.91740814 2.88277205 0.12465158 2.88675944 -3.66822433 2.89833069 C-5.06182571 2.90097925 -6.45543832 2.90020883 -7.84903526 2.89580536 C-9.74838743 2.8903564 -11.64776415 2.89839477 -13.54710388 2.90716553 C-14.61102073 2.90791958 -15.67493757 2.90867363 -16.77109432 2.90945053 C-19.63124239 2.97434209 -19.63124239 2.97434209 -22.39916992 5.16113281 C-24.58666992 4.78613281 -24.58666992 4.78613281 -26.39916992 4.16113281 C-17.93448251 -0.58735037 -9.4710204 0.00840959 0 0 Z " fill="#8FDEC6" transform="translate(43.399169921875,20.8388671875)"/>
<path d="M0 0 C3.13836313 2.02685952 4.65870267 3.45297192 5.4765625 7.16015625 C5.74267565 11.35493981 5.33198013 13.49165543 3 17.0625 C-0.34465914 19.22259236 -2.16897764 19.67672257 -6.06640625 19.43359375 C-9.10618646 18.75194607 -10.86696044 17.19767713 -13 15 C-14.55024464 11.89951072 -14.28992015 9.42105782 -14 6 C-10.30130834 0.32867279 -6.71796532 -1.09182993 0 0 Z " fill="#27364B" transform="translate(568,78)"/>
<path d="M0 0 C3.875 1.875 3.875 1.875 5 3 C5.11009602 5.14587958 5.14913901 7.29542326 5.16113281 9.4440918 C5.16609772 10.11735001 5.17106262 10.79060822 5.17617798 11.48426819 C5.19084 13.72259529 5.19761013 15.96085141 5.203125 18.19921875 C5.2088755 19.75283307 5.21463325 21.30644737 5.22039795 22.86006165 C5.23092103 26.12440319 5.23675434 29.38872003 5.24023438 32.65307617 C5.24570561 36.82833576 5.2696984 41.00326699 5.29820633 45.17842388 C5.31687248 48.39127031 5.32204054 51.60403852 5.32357025 54.81693459 C5.32659106 56.35546465 5.33460028 57.89399353 5.34775543 59.43247032 C5.36489096 61.59154167 5.36291731 63.749823 5.35644531 65.90893555 C5.36009094 67.13613815 5.36373657 68.36334076 5.36749268 69.62773132 C4.96289162 73.34052226 3.85717308 75.78665181 2 79 C1.67 79 1.34 79 1 79 C1 76.69 1 74.38 1 72 C2.485 71.505 2.485 71.505 4 71 C3.93882312 62.31587667 3.86174234 53.63208335 3.76428509 44.94829082 C3.71953412 40.91614971 3.68028872 36.88411073 3.65356445 32.85180664 C3.62757818 28.96126837 3.58720977 25.07112217 3.53681374 21.18082619 C3.52011319 19.69570602 3.50861877 18.21051799 3.50238609 16.725317 C3.4927791 14.64678095 3.46476379 12.56925515 3.43237305 10.4909668 C3.42126999 9.30738083 3.41016693 8.12379486 3.39872742 6.90434265 C2.96474225 3.74318149 2.44731032 2.92201566 0 1 C0 0.67 0 0.34 0 0 Z " fill="#45CAA5" transform="translate(230,152)"/>
<path d="M0 0 C17.16 0 34.32 0 52 0 C52 0.33 52 0.66 52 1 C35.83 1.33 19.66 1.66 3 2 C3.33 3.65 3.66 5.3 4 7 C4 7.99 4 8.98 4 10 C3.01 9.34 2.02 8.68 1 8 C0.67 5.36 0.34 2.72 0 0 Z " fill="#687181" transform="translate(928,146)"/>
<path d="M0 0 C4.03904921 0.06910558 8.07720578 0.15718016 12.11547852 0.26245117 C13.48775958 0.29559806 14.86017362 0.32366171 16.23266602 0.34643555 C18.21137766 0.38016766 20.18971376 0.4340149 22.16796875 0.48828125 C23.95110474 0.52755737 23.95110474 0.52755737 25.77026367 0.56762695 C29.22903214 1.03066112 31.17652182 2.00052122 34 4 C33.67 4.66 33.34 5.32 33 6 C32.23816406 5.6803125 31.47632813 5.360625 30.69140625 5.03125 C24.85880067 3.40182368 18.99236777 3.56828764 12.96679688 3.43359375 C12.01740234 3.40394531 11.06800781 3.37429687 10.08984375 3.34375 C9.23253662 3.32505859 8.37522949 3.30636719 7.49194336 3.28710938 C4.7206962 2.96782 2.5359724 2.13731424 0 1 C0 0.67 0 0.34 0 0 Z " fill="#67CDB1" transform="translate(200,60)"/>
<path d="M0 0 C2.5 1.5 2.5 1.5 4 3 C3.67 3.66 3.34 4.32 3 5 C2.34 4.34 1.68 3.68 1 3 C-1.44012949 2.75712511 -1.44012949 2.75712511 -4.125 2.875 C-5.03507813 2.89304687 -5.94515625 2.91109375 -6.8828125 2.9296875 C-7.58148437 2.95289062 -8.28015625 2.97609375 -9 3 C-9 3.99 -9 4.98 -9 6 C-9.99 5.67 -10.98 5.34 -12 5 C-12 8.3 -12 11.6 -12 15 C-14 13 -14 13 -14.375 9.6875 C-13.94452982 5.45454323 -12.96639625 3.96639625 -10 1 C-6.82253509 -0.58873246 -3.45987798 -0.41026221 0 0 Z " fill="#838D99" transform="translate(568,78)"/>
<path d="M0 0 C0.66 0.33 1.32 0.66 2 1 C0.65871865 6.53278558 -3.55165 9.78421365 -8 13 C-8.66 13 -9.32 13 -10 13 C-8.65515286 8.95838045 -6.9494838 6.61321846 -3.875 3.6875 C-3.15054688 2.99011719 -2.42609375 2.29273437 -1.6796875 1.57421875 C-1.12539063 1.05472656 -0.57109375 0.53523438 0 0 Z " fill="#546072" transform="translate(851,112)"/>
<path d="M0 0 C0.66 0.33 1.32 0.66 2 1 C-1.02031823 6.58758873 -4.07324545 8.85978308 -10 11 C-8.55218207 7.55571735 -6.72305391 5.63869038 -3.875 3.25 C-3.15054688 2.63640625 -2.42609375 2.0228125 -1.6796875 1.390625 C-0.84824219 0.70226562 -0.84824219 0.70226562 0 0 Z " fill="#556375" transform="translate(771,110)"/>
<path d="M0 0 C-1.11375 0.6496875 -1.11375 0.6496875 -2.25 1.3125 C-4.94871186 2.88553152 -4.94871186 2.88553152 -7 4.625 C-9.3468275 6.23844391 -11.2159163 6.51278535 -14 7 C-16.23408113 7.99083967 -16.23408113 7.99083967 -18 9 C-14.47852281 3.39764993 -6.84911902 -2.56841963 0 0 Z " fill="#6B7787" transform="translate(693,108)"/>
<path d="M0 0 C4.29612557 3.59815559 4.89976287 8.72489046 6 14 C6.3125 17.5625 6.3125 17.5625 6 20 C5.34 20.66 4.68 21.32 4 22 C3.95101562 21.19175781 3.90203125 20.38351563 3.8515625 19.55078125 C3.77679687 18.48214844 3.70203125 17.41351563 3.625 16.3125 C3.52058594 14.72888672 3.52058594 14.72888672 3.4140625 13.11328125 C3.01239911 10.09322731 2.25930981 7.75921946 1 5 C0.34 5 -0.32 5 -1 5 C-0.67 3.35 -0.34 1.7 0 0 Z " fill="#A1A7B1" transform="translate(979,121)"/>
<path d="M0 0 C1.74796875 0.02030273 1.74796875 0.02030273 3.53125 0.04101562 C6.39631118 0.07624179 9.26041377 0.12550285 12.125 0.1875 C12.125 0.5175 12.125 0.8475 12.125 1.1875 C11.0580188 1.217229 11.0580188 1.217229 9.96948242 1.24755859 C6.75011184 1.34274867 3.5313955 1.45245229 0.3125 1.5625 C-0.80705078 1.5934375 -1.92660156 1.624375 -3.08007812 1.65625 C-4.68979492 1.71425781 -4.68979492 1.71425781 -6.33203125 1.7734375 C-7.8166687 1.82056885 -7.8166687 1.82056885 -9.33129883 1.86865234 C-12.11575094 2.02523433 -12.11575094 2.02523433 -14.875 4.1875 C-17.0625 3.8125 -17.0625 3.8125 -18.875 3.1875 C-12.97481765 -0.81244569 -6.91418228 -0.15217444 0 0 Z " fill="#5ED0AD" transform="translate(35.875,21.8125)"/>
<path d="M0 0 C1.03930664 0.01353516 1.03930664 0.01353516 2.09960938 0.02734375 C3.79572395 0.05073843 5.49165871 0.08660359 7.1875 0.125 C7.8475 1.445 8.5075 2.765 9.1875 4.125 C8.60742188 3.980625 8.02734375 3.83625 7.4296875 3.6875 C-0.37097434 1.83387739 -6.10303851 1.998252 -13.8125 4.125 C-12.8125 2.125 -12.8125 2.125 -10.73828125 1.0078125 C-7.1175338 -0.08469608 -3.73916616 -0.09303189 0 0 Z " fill="#A0A7B1" transform="translate(951.8125,118.875)"/>
<path d="M0 0 C7.59 0.33 15.18 0.66 23 1 C23.33 1.66 23.66 2.32 24 3 C23.08504761 2.99214478 23.08504761 2.99214478 22.15161133 2.98413086 C19.37191815 2.96326665 16.59224149 2.95030987 13.8125 2.9375 C12.85279297 2.92912109 11.89308594 2.92074219 10.90429688 2.91210938 C9.97294922 2.90888672 9.04160156 2.90566406 8.08203125 2.90234375 C7.22843018 2.89710693 6.3748291 2.89187012 5.49536133 2.88647461 C2.90753253 3.00420677 0.52338047 3.42892956 -2 4 C-1.34 2.68 -0.68 1.36 0 0 Z " fill="#73CFB8" transform="translate(48,125)"/>
<path d="M0 0 C0.86625 0.268125 1.7325 0.53625 2.625 0.8125 C2.625 1.1425 2.625 1.4725 2.625 1.8125 C0.954375 1.93625 0.954375 1.93625 -0.75 2.0625 C-4.36184471 2.39279686 -4.36184471 2.39279686 -5.6875 4.5625 C-5.914375 5.305 -6.14125 6.0475 -6.375 6.8125 C-6.74625 7.72 -7.1175 8.6275 -7.5 9.5625 C-7.933125 10.67625 -7.933125 10.67625 -8.375 11.8125 C-8.705 11.8125 -9.035 11.8125 -9.375 11.8125 C-9.75 8.625 -9.75 8.625 -9.375 4.8125 C-6.27176005 1.26594006 -4.79610977 -0.26645054 0 0 Z " fill="#6CD0B3" transform="translate(412.375,106.1875)"/>
<path d="M0 0 C0.33 0.99 0.66 1.98 1 3 C0.319375 2.835 -0.36125 2.67 -1.0625 2.5 C-6.87625015 1.51042551 -11.50012987 1.85370922 -17 4 C-14.60523231 1.14198216 -12.69509117 0.42735535 -9.0625 -0.25 C-8.20785156 -0.42015625 -7.35320312 -0.5903125 -6.47265625 -0.765625 C-3.95338095 -1.00441887 -2.33185955 -0.98073735 0 0 Z " fill="#84D4C0" transform="translate(375,120)"/>
<path d="M0 0 C0.33 0 0.66 0 1 0 C1.32712342 6.13053511 1.39366878 10.62669111 -2 16 C-2.33 16 -2.66 16 -3 16 C-3 13.69 -3 11.38 -3 9 C-2.01 8.67 -1.02 8.34 0 8 C0 5.36 0 2.72 0 0 Z " fill="#6FD4B8" transform="translate(234,215)"/>
<path d="M0 0 C0 7.84848485 0 7.84848485 -3.0625 11.375 C-3.701875 11.91125 -4.34125 12.4475 -5 13 C-5.33 12.34 -5.66 11.68 -6 11 C-5.0390625 8.65234375 -5.0390625 8.65234375 -3.625 5.9375 C-2.93277344 4.58978516 -2.93277344 4.58978516 -2.2265625 3.21484375 C-1 1 -1 1 0 0 Z " fill="#73D4B8" transform="translate(461,109)"/>
<path d="M0 0 C0.515625 0.309375 1.03125 0.61875 1.5625 0.9375 C4.66665423 2.29059287 7.65115007 2.61359424 11 3 C11 2.34 11 1.68 11 1 C11.99 1.33 12.98 1.66 14 2 C12.16115216 4.45179712 11.19735411 4.96567755 8.125 5.5 C4.03893584 4.84622973 2.62787226 3.09161442 0 0 Z " fill="#9097A5" transform="translate(886,124)"/>
<path d="M0 0 C0.99 0.33 1.98 0.66 3 1 C0.90163996 2.03271642 -1.20390891 3.05083717 -3.3125 4.0625 C-4.48425781 4.63097656 -5.65601563 5.19945312 -6.86328125 5.78515625 C-10 7 -10 7 -13 6 C-10.58149856 2.67456052 -7.65684985 2.24000164 -3.83984375 1.4296875 C-1.91873605 1.05606754 -1.91873605 1.05606754 0 0 Z " fill="#92DAC8" transform="translate(226,132)"/>
<path d="M0 0 C2.64 0 5.28 0 8 0 C8 0.33 8 0.66 8 1 C6.35 1.33 4.7 1.66 3 2 C3.165 2.763125 3.33 3.52625 3.5 4.3125 C4 7 4 7 4 10 C1 8 1 8 0.48828125 6.0546875 C0.32552083 4.03645833 0.16276042 2.01822917 0 0 Z " fill="#878E9B" transform="translate(928,146)"/>
<path d="M0 0 C0.66 0.33 1.32 0.66 2 1 C1.54625 1.598125 1.0925 2.19625 0.625 2.8125 C-0.63295913 4.50590652 -1.82984724 6.24477086 -3 8 C-5.625 9.1875 -5.625 9.1875 -8 10 C-6.34908222 5.70761377 -3.26245434 3.1206085 0 0 Z " fill="#768190" transform="translate(926,112)"/>
<path d="M0 0 C-0.99 0.33 -1.98 0.66 -3 1 C-3.99 2.485 -3.99 2.485 -5 4 C-8.625 4.6875 -8.625 4.6875 -12 5 C-5.60587432 -1.7397541 -5.60587432 -1.7397541 0 0 Z " fill="#6B7787" transform="translate(523,73)"/>
<path d="M0 0 C0.90105469 0.02707031 1.80210937 0.05414063 2.73046875 0.08203125 C3.76107422 0.13423828 3.76107422 0.13423828 4.8125 0.1875 C4.8125 0.5175 4.8125 0.8475 4.8125 1.1875 C1.83398438 1.48046875 1.83398438 1.48046875 -1.14453125 1.7734375 C-3.48738142 2.11415391 -3.48738142 2.11415391 -6.1875 4.1875 C-6.91715366 6.75032742 -6.91715366 6.75032742 -7.1875 9.1875 C-7.5175 9.1875 -7.8475 9.1875 -8.1875 9.1875 C-8.55288462 3.70673077 -8.55288462 3.70673077 -7 1.5 C-4.56175415 -0.26562631 -2.97705493 -0.11598915 0 0 Z " fill="#05AC7B" transform="translate(412.1875,188.8125)"/>
<path d="M0 0 C1.10292424 4.41169694 0.88594563 5.95868794 -1 10 C-3.125 10.875 -3.125 10.875 -5 11 C-5 10.34 -5 9.68 -5 9 C-4.34 9 -3.68 9 -3 9 C-2.01 6.03 -1.02 3.06 0 0 Z " fill="#8ADBC4" transform="translate(443,145)"/>
<path d="M0 0 C-1.76505435 0.86604534 -3.53728074 1.71748642 -5.3125 2.5625 C-6.79169922 3.27599609 -6.79169922 3.27599609 -8.30078125 4.00390625 C-11 5 -11 5 -14 4 C-11.61605071 0.72206973 -8.67917602 0.16979401 -4.9375 -0.765625 C-3 -1 -3 -1 0 0 Z " fill="#A0E0CF" transform="translate(213,140)"/>
<path d="M0 0 C0.85432111 3.10015009 1.18380965 4.94182506 0 8 C-1.5625 9.75 -1.5625 9.75 -3 11 C-3.33 10.34 -3.66 9.68 -4 9 C-3.22265625 6.8359375 -3.22265625 6.8359375 -2.0625 4.375 C-1.68222656 3.55773437 -1.30195313 2.74046875 -0.91015625 1.8984375 C-0.60980469 1.27195313 -0.30945313 0.64546875 0 0 Z " fill="#70D2B7" transform="translate(450,130)"/>
<path d="M0 0 C0.66 0.99 1.32 1.98 2 3 C1.01 4.485 1.01 4.485 0 6 C-0.66 6 -1.32 6 -2 6 C-2 6.66 -2 7.32 -2 8 C-2.66 8 -3.32 8 -4 8 C-2.25 2.25 -2.25 2.25 0 0 Z " fill="#61CEB2" transform="translate(7,34)"/>
</svg>
