<?xml version="1.0" encoding="UTF-8"?>
<svg version="1.1" xmlns="http://www.w3.org/2000/svg" width="1024" height="1024" viewBox="200 200 624 624">
<path d="M0 0 C7.28665074 5.20107226 11.58330367 12.25178608 13.9375 20.8125 C15.20202816 30.92872526 12.77508508 40.33738417 6.6875 48.625 C5.20893414 50.52130194 3.72970748 52.41708874 2.25 54.3125 C-24.80292735 91.39560087 -35.38702686 132.26699482 -28.5625 178 C-25.03834436 199.05772439 -18.11761514 219.76594602 -5.75 237.3125 C-4.65793337 232.04134373 -4.63426014 226.97765342 -4.6875 221.625 C-4.69201172 220.77099609 -4.69652344 219.91699219 -4.70117188 219.03710938 C-4.70985112 217.45872586 -4.72059383 215.88035128 -4.73413086 214.30200195 C-4.80246967 205.73441814 -3.61437515 196.07442089 0.25 188.3125 C2.625 186.0625 2.625 186.0625 5.25 184.3125 C6.3946875 183.1059375 6.3946875 183.1059375 7.5625 181.875 C15.26869696 174.52723081 23.68073306 171.45494295 34.25 171.3125 C44.55577826 172.15315261 53.45043109 176.52573997 60.4921875 184.06640625 C66.96794463 192.34098481 68.42725448 200.42291648 68.34375 210.73046875 C68.34016479 211.61502243 68.33657959 212.49957611 68.33288574 213.41093445 C68.24672486 228.93624712 68.00180185 244.46123481 67.78643799 259.98516846 C67.72507354 264.43085344 67.66534855 268.87656044 67.60546875 273.32226562 C67.48854661 281.98569893 67.36986255 290.64910688 67.25 299.3125 C70.16583585 300.29415279 73.0828088 301.27238301 76 302.25 C76.825 302.52779297 77.65 302.80558594 78.5 303.09179688 C79.29921875 303.35927734 80.0984375 303.62675781 80.921875 303.90234375 C81.6550293 304.14847412 82.38818359 304.39460449 83.14355469 304.64819336 C85.16509473 305.28572355 87.18847426 305.82156354 89.25 306.3125 C89.31261508 288.05803793 89.24454762 269.80803015 89.03125 251.5546875 C89.02026276 250.60982735 89.00927551 249.66496719 88.99795532 248.69147491 C88.90642699 240.87795561 88.81051763 233.06449121 88.71356201 225.2510376 C88.57070805 213.72644397 88.43519815 202.20188162 88.32980347 190.67687607 C88.28712934 186.01904486 88.23953897 181.3613864 88.18017578 176.70373535 C88.12343364 172.21056232 88.08217112 167.71749139 88.05201721 163.22406387 C88.038422 161.56862264 88.01961191 159.91321403 87.99497986 158.25790024 C87.80950997 145.45412044 87.92291622 133.06631311 97.25 123.3125 C106.11184024 114.23370322 114.72402988 110.49287097 127.25 109.5625 C127.9615625 109.49417969 128.673125 109.42585938 129.40625 109.35546875 C132.60403531 109.12279407 134.71952617 108.99127882 137.5078125 110.6796875 C138.08273437 111.21851563 138.65765625 111.75734375 139.25 112.3125 C140.52612692 112.96864623 141.81832747 113.59451207 143.125 114.1875 C152.42744726 118.81293126 157.72375696 126.11172163 161.625 135.6875 C163.46603346 146.36549407 163.39191362 157.21405519 163.36352539 168.0168457 C163.36324258 169.54583738 163.36340309 171.0748292 163.3639679 172.6038208 C163.36425219 176.71243627 163.35841542 180.82102192 163.35139394 184.92963052 C163.34509869 189.23907074 163.34455175 193.54851182 163.34336853 197.85795593 C163.34027328 205.99966039 163.33208448 214.14135126 163.32201904 222.28304976 C163.31080151 231.56007733 163.3053333 240.83710558 163.30032361 250.11413825 C163.28990016 269.18026651 163.27233605 288.24638216 163.25 307.3125 C164.49716797 306.98765625 164.49716797 306.98765625 165.76953125 306.65625 C167.39955078 306.23859375 167.39955078 306.23859375 169.0625 305.8125 C170.14144531 305.5340625 171.22039062 305.255625 172.33203125 304.96875 C175.25 304.3125 175.25 304.3125 178.25 304.3125 C178.58 303.6525 178.91 302.9925 179.25 302.3125 C179.58 301.9825 179.91 301.6525 180.25 301.3125 C180.34048623 299.89118245 180.36216461 298.46539265 180.35534668 297.04121399 C180.35327461 296.13304271 180.35120255 295.22487143 180.34906769 294.2891798 C180.33773426 292.79699161 180.33773426 292.79699161 180.32617188 291.2746582 C180.32202019 290.24041623 180.3178685 289.20617426 180.313591 288.14059162 C180.29840328 284.86449388 180.27530521 281.58853414 180.25 278.3125 C180.23944077 276.82496027 180.23944077 276.82496027 180.22866821 275.30736923 C180.18437325 269.27030845 180.12711796 263.23342591 180.06490707 257.19652557 C180.00487138 251.34841051 179.94917028 245.5002535 179.89306641 239.65209961 C179.8812137 238.42336939 179.869361 237.19463917 179.85714912 235.9286747 C179.65669619 214.96593534 179.4977711 194.00283356 179.34025764 173.03973484 C179.28246171 165.39176469 179.22001011 157.7438523 179.15363693 150.09595203 C179.05354378 138.5264995 178.97032507 126.95719584 178.92176437 115.38740253 C178.89912723 110.06620948 178.86824865 104.74539686 178.81567383 99.42440796 C178.76704346 94.46781697 178.74236853 89.5116833 178.73617172 84.55486298 C178.72988993 82.75955812 178.71516152 80.96425773 178.69092178 79.16910553 C178.51821673 65.83134597 180.28026875 54.9614652 189.1796875 44.34765625 C196.83005195 36.82720365 206.62381389 32.38321059 217.375 32 C228.72103199 32.91500258 238.32038221 36.92650133 246.25 45.3125 C256.80078343 58.4451222 256.40106485 73.0676727 256.36352539 89.12329102 C256.36324296 90.81917825 256.36340234 92.5150656 256.3639679 94.21095276 C256.36425371 98.79292913 256.35839197 103.37487908 256.35139394 107.95684934 C256.34512436 112.75345299 256.34455375 117.55005731 256.34336853 122.34666443 C256.34026582 131.41994134 256.33206676 140.49320613 256.32201904 149.56647772 C256.31082493 159.90022456 256.30533915 170.23397199 256.30032361 180.56772339 C256.28988323 201.81598901 256.27230437 223.06424374 256.25 244.3125 C257.70218533 242.07090769 259.15222746 239.82797724 260.60107422 237.58422852 C261.21501289 236.63726986 261.21501289 236.63726986 261.84135437 235.67118073 C264.64664732 231.3219395 267.22795411 226.96617654 269.375 222.25 C269.69428467 221.55793457 270.01356934 220.86586914 270.3425293 220.15283203 C289.8570538 176.54006052 289.088209 128.0515163 272.80981445 83.59619141 C268.67317366 72.25004792 266.50804473 63.02065014 271.25 51.3125 C276.10626532 43.23767944 282.64241844 37.81801517 291.1875 34 C302.16553672 31.53554278 311.45346914 32.45110604 321.5 37.875 C340.22474872 50.08809732 346.06338683 77.46247682 350.60864258 97.92797852 C353.94308499 113.84639002 355.75559654 130.06233969 356.25 146.3125 C356.27723145 147.00601563 356.30446289 147.69953125 356.33251953 148.4140625 C358.48517953 207.98452799 336.09129473 265.60015484 296 309.25 C294.09729478 311.2843931 292.17724436 313.30137123 290.25 315.3125 C289.47011719 316.13363281 288.69023438 316.95476562 287.88671875 317.80078125 C282.38374358 323.46014648 276.45521438 328.44183173 270.25 333.3125 C269.37085938 334.02019531 268.49171875 334.72789062 267.5859375 335.45703125 C221.78937662 371.25575137 159.57508373 385.31004053 102.25 379.3125 C45.2320114 372.20148093 -11.52114053 343.23020182 -47.3125 297.5 C-48.68032978 295.71924047 -50.03575164 293.93018664 -51.38232422 292.13330078 C-52.7629968 290.29519723 -54.16370699 288.47367243 -55.56640625 286.65234375 C-62.1726332 277.97608935 -67.69239099 268.96581462 -72.75 259.3125 C-73.10191406 258.64573242 -73.45382812 257.97896484 -73.81640625 257.29199219 C-92.09364594 222.44046596 -99.20569325 185.23385865 -100.4375 146.1875 C-100.46259644 145.40996368 -100.48769287 144.63242737 -100.5135498 143.83132935 C-100.5821586 141.61423911 -100.64246051 139.39710962 -100.69921875 137.1796875 C-100.73362061 135.88144043 -100.76802246 134.58319336 -100.8034668 133.24560547 C-100.75 130.3125 -100.75 130.3125 -99.75 129.3125 C-99.46281517 127.47652778 -99.23173236 125.63174293 -99.0234375 123.78515625 C-94.53600857 86.44553741 -83.4991973 50.76278744 -60.75 20.3125 C-60.14929688 19.466875 -59.54859375 18.62125 -58.9296875 17.75 C-55.98413484 13.65183978 -55.98413484 13.65183978 -54.75 12.3125 C-54.09 12.3125 -53.43 12.3125 -52.75 12.3125 C-52.5025 11.73371094 -52.255 11.15492188 -52 10.55859375 C-47.59711081 2.64715223 -38.23790663 -2.60447067 -29.83984375 -5.30078125 C-19.27916382 -7.25500053 -9.11067371 -5.57269542 0 0 Z M-4.75 239.3125 C-3.75 241.3125 -3.75 241.3125 -3.75 241.3125 Z " fill="#CE9EFA" transform="translate(384.75,362.6875)"/>
<path d="M0 0 C8.43567786 6.67438248 13.08015932 15.74245437 14.61668396 26.26377869 C15.40643102 33.63685367 15.22068358 41.06165977 15.20336914 48.46704102 C15.20308671 50.16292825 15.20324609 51.8588156 15.20381165 53.55470276 C15.20409746 58.13667913 15.19823572 62.71862908 15.19123769 67.30059934 C15.18496811 72.09720299 15.1843975 76.89380731 15.18321228 81.69041443 C15.18010957 90.76369134 15.17191051 99.83695613 15.16186279 108.91022772 C15.15066868 119.24397456 15.1451829 129.57772199 15.14016736 139.91147339 C15.12972698 161.15973901 15.11214812 182.40799374 15.08984375 203.65625 C16.54202908 201.41465769 17.99207121 199.17172724 19.44091797 196.92797852 C19.85021042 196.29667274 20.25950287 195.66536697 20.68119812 195.01493073 C23.48649107 190.6656895 26.06779786 186.30992654 28.21484375 181.59375 C28.53412842 180.90168457 28.85341309 180.20961914 29.18237305 179.49658203 C48.69689755 135.88381052 47.92805275 87.3952663 31.6496582 42.93994141 C27.51301741 31.59379792 25.34788848 22.36440014 30.08984375 10.65625 C34.94610907 2.58142944 41.48226219 -2.83823483 50.02734375 -6.65625 C61.00538047 -9.12070722 70.29331289 -8.20514396 80.33984375 -2.78125 C99.06459247 9.43184732 104.90323058 36.80622682 109.44848633 57.27172852 C112.78292874 73.19014002 114.59544029 89.40608969 115.08984375 105.65625 C115.1170752 106.34976563 115.14430664 107.04328125 115.17236328 107.7578125 C117.32502328 167.32827799 94.93113848 224.94390484 54.83984375 268.59375 C52.93713853 270.6281431 51.01708811 272.64512123 49.08984375 274.65625 C48.30996094 275.47738281 47.53007813 276.29851562 46.7265625 277.14453125 C41.22358733 282.80389648 35.29505813 287.78558173 29.08984375 292.65625 C28.21070313 293.36394531 27.3315625 294.07164062 26.42578125 294.80078125 C-11.40478034 324.37255826 -58.30617311 338.46278171 -105.91015625 337.65625 C-103.27301775 335.89815766 -101.4099466 335.09213933 -98.47265625 334.09375 C-84.49503722 328.53122814 -75.2080501 317.67305292 -68.59765625 304.46875 C-63.01295834 291.48935512 -61.2376678 277.61258857 -59.91015625 263.65625 C-60.68746094 263.99398438 -61.46476563 264.33171875 -62.265625 264.6796875 C-65.09839714 265.72576288 -66.14325201 265.68102935 -68.91015625 264.65625 C-67.94078125 264.5325 -66.97140625 264.40875 -65.97265625 264.28125 C-64.96203125 264.075 -63.95140625 263.86875 -62.91015625 263.65625 C-62.58015625 262.99625 -62.25015625 262.33625 -61.91015625 261.65625 C-61.58015625 261.32625 -61.25015625 260.99625 -60.91015625 260.65625 C-60.81967002 259.23493245 -60.79799164 257.80914265 -60.80480957 256.38496399 C-60.80791767 255.02270707 -60.80791767 255.02270707 -60.81108856 253.6329298 C-60.81864418 252.63813767 -60.8261998 251.64334555 -60.83398438 250.6184082 C-60.84021191 249.06704525 -60.84021191 249.06704525 -60.84656525 247.48434162 C-60.86175297 244.20824388 -60.88485104 240.93228414 -60.91015625 237.65625 C-60.91719574 236.66455685 -60.92423523 235.67286369 -60.93148804 234.65111923 C-60.975783 228.61405845 -61.03303829 222.57717591 -61.09524918 216.54027557 C-61.15528487 210.69216051 -61.21098597 204.8440035 -61.26708984 198.99584961 C-61.27894255 197.76711939 -61.29079525 196.53838917 -61.30300713 195.2724247 C-61.50346006 174.30968534 -61.66238515 153.34658356 -61.81989861 132.38348484 C-61.87769454 124.73551469 -61.94014614 117.0876023 -62.00651932 109.43970203 C-62.10661247 97.8702495 -62.18983118 86.30094584 -62.23839188 74.73115253 C-62.26102902 69.40995948 -62.2919076 64.08914686 -62.34448242 58.76815796 C-62.39311279 53.81156697 -62.41778772 48.8554333 -62.42398453 43.89861298 C-62.43026632 42.10330812 -62.44499473 40.30800773 -62.46923447 38.51285553 C-62.64193952 25.17509597 -60.8798875 14.3052152 -51.98046875 3.69140625 C-36.93444222 -11.09912171 -16.77650479 -11.80187658 0 0 Z " fill="#560A9A" transform="translate(625.91015625,403.34375)"/>
<path d="M0 0 C7.1212859 5.21103958 11.25293454 10.97062474 13.21963501 19.70410156 C13.38819838 20.44391392 13.55676175 21.18372627 13.73043311 21.94595718 C15.52776709 30.52541112 15.5472382 39.00465899 15.48583984 47.734375 C15.4879924 49.54179152 15.49187997 51.34920667 15.49734497 53.15661621 C15.5069379 58.01210797 15.49186166 62.86722502 15.47143888 67.72267151 C15.45369827 72.83691895 15.45739626 77.95115773 15.4581604 83.06542969 C15.45629471 91.64915121 15.43903118 100.23273025 15.41162109 108.81640625 C15.38017831 118.69860286 15.36962542 128.58064377 15.3710922 138.46288681 C15.37244995 149.0446245 15.35853098 159.6263033 15.34019899 170.20802307 C15.33596467 173.23060333 15.33452053 176.25317389 15.33372116 179.27575684 C15.33169109 184.04972388 15.31931187 188.8235636 15.29938889 193.5974884 C15.29361771 195.33514118 15.29107183 197.07280862 15.29224396 198.81047058 C15.29849337 213.73324047 14.49333209 228.50666427 10.375 242.9375 C10.11557617 243.85934082 9.85615234 244.78118164 9.58886719 245.73095703 C0.18098081 277.82942718 -20.71359018 306.37057331 -50 323 C-53.62849684 324.93628612 -57.29780923 326.77155433 -61 328.5625 C-62.32632446 329.20747437 -62.32632446 329.20747437 -63.67944336 329.86547852 C-70.69593814 333.14348572 -76.28506912 334 -84 334 C-82.65323517 330.36373497 -80.44284782 328.71917815 -77.4609375 326.35546875 C-74.82515627 323.90997119 -73.34395591 320.77577238 -72.6640625 317.265625 C-71.87706341 314.58056928 -70.60161121 312.27503651 -69.27001953 309.82446289 C-61.62786273 295.62080609 -59.51135925 280.88915838 -58 265 C-58.77730469 265.33773438 -59.55460938 265.67546875 -60.35546875 266.0234375 C-63.18824089 267.06951288 -64.23309576 267.02477935 -67 266 C-66.030625 265.87625 -65.06125 265.7525 -64.0625 265.625 C-63.051875 265.41875 -62.04125 265.2125 -61 265 C-60.67 264.34 -60.34 263.68 -60 263 C-59.67 262.67 -59.34 262.34 -59 262 C-58.90951377 260.57868245 -58.88783539 259.15289265 -58.89465332 257.72871399 C-58.89672539 256.82054271 -58.89879745 255.91237143 -58.90093231 254.9766798 C-58.90848793 253.98188767 -58.91604355 252.98709555 -58.92382812 251.9621582 C-58.93005566 250.41079525 -58.93005566 250.41079525 -58.936409 248.82809162 C-58.95159672 245.55199388 -58.97469479 242.27603414 -59 239 C-59.00703949 238.00830685 -59.01407898 237.01661369 -59.02133179 235.99486923 C-59.06562675 229.95780845 -59.12288204 223.92092591 -59.18509293 217.88402557 C-59.24512862 212.03591051 -59.30082972 206.1877535 -59.35693359 200.33959961 C-59.3687863 199.11086939 -59.380639 197.88213917 -59.39285088 196.6161747 C-59.59330381 175.65343534 -59.7522289 154.69033356 -59.90974236 133.72723484 C-59.96753829 126.07926469 -60.02998989 118.4313523 -60.09636307 110.78345203 C-60.19645622 99.2139995 -60.27967493 87.64469584 -60.32823563 76.07490253 C-60.35087277 70.75370948 -60.38175135 65.43289686 -60.43432617 60.11190796 C-60.48295654 55.15531697 -60.50763147 50.1991833 -60.51382828 45.24236298 C-60.52011007 43.44705812 -60.53483848 41.65175773 -60.55907822 39.85660553 C-60.73178327 26.51884597 -58.96973125 15.6489652 -50.0703125 5.03515625 C-35.97808952 -8.81776483 -16.31668288 -10.82807292 0 0 Z " fill="#7B36CF" transform="translate(624,402)"/>
<path d="M0 0 C13.01265809 13.61789801 12.84796109 29.31750982 12.81689453 47.13232422 C12.81952301 49.02559196 12.81952301 49.02559196 12.82220459 50.95710754 C12.82671419 54.38133656 12.8250151 57.805535 12.8218255 61.22976446 C12.81926255 64.85045284 12.82165076 68.4711389 12.82321167 72.09182739 C12.82502434 78.17906148 12.82265328 84.26628339 12.81787109 90.35351562 C12.81245476 97.32713237 12.81417558 104.30071974 12.8196975 111.27433574 C12.82428405 117.31482497 12.82485176 123.35530553 12.82225883 129.39579594 C12.82072297 132.97953527 12.82042576 136.56326098 12.82379532 140.14699936 C12.83732083 156.72854772 12.58600954 173.25289875 11.6875 189.8125 C3.65362375 192.64105345 -4.14262966 192.97071909 -12.59765625 193.015625 C-13.45701279 193.02132507 -14.31636932 193.02702515 -15.20176697 193.03289795 C-17.01104528 193.04228237 -18.82034018 193.04885558 -20.62963867 193.05273438 C-23.34390514 193.06238939 -26.05739645 193.09345517 -28.77148438 193.125 C-30.5468706 193.13153751 -32.32226214 193.13678504 -34.09765625 193.140625 C-34.88366714 193.1529718 -35.66967804 193.1653186 -36.47950745 193.17803955 C-44.59462274 193.1472345 -52.39483745 191.43772082 -60.3125 189.8125 C-61.1684787 164.04330143 -61.58538431 138.27986589 -61.84472656 112.49835205 C-61.88496157 108.59644911 -61.92909545 104.69459408 -61.97310829 100.79273224 C-62.08040606 91.24657355 -62.17242461 81.70043292 -62.24416542 72.15393829 C-62.28672854 66.58056956 -62.34452189 61.00762381 -62.41338825 55.43452072 C-62.45423966 51.8672734 -62.48192018 48.30000748 -62.50620842 44.73261261 C-62.52004461 43.07668996 -62.53909505 41.42080068 -62.56396675 39.76500702 C-62.75156522 26.95795094 -62.64254701 14.56941191 -53.3125 4.8125 C-44.9357002 -3.76938153 -36.65292026 -7.86459964 -24.75 -8.8125 C-23.61433594 -8.90789062 -22.47867188 -9.00328125 -21.30859375 -9.1015625 C-13.88019052 -9.31463274 -6.02891961 -3.98136201 0 0 Z " fill="#994FDD" transform="translate(535.3125,481.1875)"/>
<path d="M0 0 C11.29080013 9.51561767 18.72531202 21.17952394 20.21142578 36.12646484 C20.74483389 44.73173336 20.43339527 52.97947745 17 61 C16.67128906 61.81597656 16.34257813 62.63195312 16.00390625 63.47265625 C10.18979692 76.48901866 -0.98628174 86.54663235 -14 92 C-26.88138408 96.72146349 -41.8516789 96.06398662 -54.20361328 90.35253906 C-67.12073945 83.98220363 -76.69771496 75.11746153 -82.421875 61.65625 C-87.29878574 46.81347818 -87.00705217 32.09128362 -80.47265625 17.74609375 C-73.09807466 3.99455301 -61.00741015 -4.61417649 -46.59375 -9.87890625 C-30.38108173 -14.20430096 -13.32687132 -9.65367548 0 0 Z " fill="#F4BE37" transform="translate(706,275)"/>
<path d="M0 0 C7.91293036 8.47356308 9.87314165 17.38320399 9.78125 28.69921875 C9.77766479 29.58284592 9.77407959 30.46647308 9.77038574 31.37687683 C9.68338667 47.06804477 9.43862483 62.75891065 9.22393799 78.44873047 C9.16258771 82.9547389 9.10285444 87.46076878 9.04296875 91.96679688 C8.92602574 100.74871918 8.80734382 109.53061681 8.6875 118.3125 C7.26876522 117.85666193 5.85148576 117.39629316 4.43481445 116.93408203 C3.6454097 116.6782132 2.85600494 116.42234436 2.04267883 116.15872192 C-1.56018268 114.86420434 -4.81523295 113.09507719 -8.125 111.1875 C-9.15911011 110.59654541 -9.15911011 110.59654541 -10.21411133 109.99365234 C-16.6348236 106.25003548 -22.53986893 101.99508637 -28.3125 97.3125 C-28.85003906 96.87647461 -29.38757813 96.44044922 -29.94140625 95.99121094 C-39.67976067 88.04349362 -48.54083318 79.74113031 -56.375 69.875 C-56.86500488 69.25906982 -57.35500977 68.64313965 -57.85986328 68.00854492 C-61.3125 63.5631669 -61.3125 63.5631669 -61.3125 61.3125 C-61.9725 61.3125 -62.6325 61.3125 -63.3125 61.3125 C-63.96797442 58.25361939 -64.40135887 55.80640723 -63.84375 52.70703125 C-63.15723723 48.32041656 -63.20592531 44.05620158 -63.25 39.625 C-63.25676758 38.34399414 -63.25676758 38.34399414 -63.26367188 37.03710938 C-63.27235112 35.45872586 -63.28309383 33.88035128 -63.29663086 32.30200195 C-63.36496967 23.73441814 -62.17687515 14.07442089 -58.3125 6.3125 C-55.9375 4.0625 -55.9375 4.0625 -53.3125 2.3125 C-52.549375 1.508125 -51.78625 0.70375 -51 -0.125 C-36.37138294 -14.07321627 -14.83737941 -13.70243062 0 0 Z " fill="#CA86F4" transform="translate(443.3125,544.6875)"/>
<path d="M0 0 C0.33 0 0.66 0 1 0 C3.71605053 44.89027965 -21.46206257 94.6411606 -50 128 C-54.54231993 133.11799813 -59.25381105 138.07173219 -64 143 C-65.12921875 144.19109375 -65.12921875 144.19109375 -66.28125 145.40625 C-71.46074187 150.75556128 -77.15580404 155.39739912 -83 160 C-83.88042969 160.70898438 -84.76085937 161.41796875 -85.66796875 162.1484375 C-123.50487789 191.71352588 -170.3929706 205.80658332 -218 205 C-215.3628615 203.24190766 -213.49979035 202.43588933 -210.5625 201.4375 C-201.06292521 197.70999481 -193.16217133 191.04505702 -187 183 C-186.505 183.99 -186.505 183.99 -186 185 C-188.37245291 190.14031464 -191.06793465 193.26508811 -195.51171875 196.73828125 C-197.13884196 197.95013837 -197.13884196 197.95013837 -198 200 C-195.03 199.01 -195.03 199.01 -192 198 C-192 198.66 -192 199.32 -192 200 C-173.14311677 193.80940335 -156.96892082 184.62428978 -142.0078125 171.61328125 C-139.0376577 169.03271819 -136.02985973 166.50980918 -133 164 C-133.375 165.9375 -133.375 165.9375 -134 168 C-134.66 168.33 -135.32 168.66 -136 169 C-136.33 169.99 -136.66 170.98 -137 172 C-138.55859375 173.38671875 -138.55859375 173.38671875 -140.4375 174.6875 C-141.05496094 175.12449219 -141.67242188 175.56148437 -142.30859375 176.01171875 C-144 177 -144 177 -146 177 C-146.23460937 177.5878125 -146.46921875 178.175625 -146.7109375 178.78125 C-150.17646926 184.74616527 -158.15758177 188.29819365 -164.25 191.16015625 C-166.21542423 192.07007018 -166.21542423 192.07007018 -168.8125 193.6875 C-171 195 -171 195 -174 196 C-174.33 196.99 -174.66 197.98 -175 199 C-173.4840625 198.566875 -173.4840625 198.566875 -171.9375 198.125 C-171.29683594 197.94195313 -170.65617188 197.75890625 -169.99609375 197.5703125 C-169.33738281 197.38210938 -168.67867187 197.19390625 -168 197 C-163.33333333 195.66666667 -158.66666667 194.33333333 -154 193 C-152.783125 192.62875 -151.56625 192.2575 -150.3125 191.875 C-147 191 -147 191 -143 191 C-142.67 190.34 -142.34 189.68 -142 189 C-138.01550313 187.04534116 -135.47725284 186 -131 186 C-130.67 185.34 -130.34 184.68 -130 184 C-127.890625 183 -127.890625 183 -125.25 182 C-124.38890625 181.67 -123.5278125 181.34 -122.640625 181 C-120.84371471 180.31951326 -119.04132515 179.65336051 -117.234375 179 C-114.84229506 178.2126768 -114.84229506 178.2126768 -114 176 C-111.66666667 175 -109.33333333 174 -107 173 C-106.67 172.34 -106.34 171.68 -106 171 C-103.6859378 170.26924352 -101.35171131 169.59861742 -99 169 C-99 168.34 -99 167.68 -99 167 C-98.030625 166.54625 -97.06125 166.0925 -96.0625 165.625 C-92.92920418 164.34213779 -92.92920418 164.34213779 -92 162 C-91.01 161.690625 -90.02 161.38125 -89 161.0625 C-88.01 160.711875 -87.02 160.36125 -86 160 C-85.67 159.01 -85.34 158.02 -85 157 C-83.33333333 156.33333333 -81.66666667 155.66666667 -80 155 C-79.67 154.01 -79.34 153.02 -79 152 C-76.625 149.3125 -76.625 149.3125 -74 147 C-73.01 147 -72.02 147 -71 147 C-70.67 146.01 -70.34 145.02 -70 144 C-67.71273599 141.79959412 -65.35815135 139.7349407 -62.94921875 137.671875 C-60.42596684 135.46153296 -59.0820548 134.24616441 -58 131 C-55.46221127 128.26185953 -53.1110644 126.07404293 -50 124 C-49.27617533 121.94074861 -49.27617533 121.94074861 -49 120 C-48.34 120 -47.68 120 -47 120 C-45.81148719 118.3746221 -45.81148719 118.3746221 -44.6875 116.3125 C-42.51980446 112.66536834 -40.00222263 110.00222263 -37 107 C-36.13880866 104.82653432 -36.13880866 104.82653432 -36 103 C-35.34 103 -34.68 103 -34 103 C-34.0825 102.2575 -34.165 101.515 -34.25 100.75 C-33.92655478 97.19210255 -32.62196358 96.30414981 -30 94 C-29.67 93.34 -29.34 92.68 -29 92 C-28.34 92 -27.68 92 -27 92 C-26.814375 90.9171875 -26.814375 90.9171875 -26.625 89.8125 C-26.0095069 87.04278106 -25.11555626 84.6029646 -24 82 C-23.34 82 -22.68 82 -22 82 C-21.87753906 81.28457031 -21.75507812 80.56914063 -21.62890625 79.83203125 C-20.98864625 76.94887287 -20.06448444 74.41407527 -18.9375 71.6875 C-18.57527344 70.80449219 -18.21304688 69.92148437 -17.83984375 69.01171875 C-17.56269531 68.34785156 -17.28554688 67.68398438 -17 67 C-16.34 67 -15.68 67 -15 67 C-14.855625 65.7625 -14.71125 64.525 -14.5625 63.25 C-14.21311498 60.43495501 -13.79620634 57.7298503 -13 55 C-12.34 55 -11.68 55 -11 55 C-10.88462891 54.45835205 -10.76925781 53.9167041 -10.65039062 53.35864258 C-9.60762246 48.55438709 -8.44084392 43.80531449 -7.14746094 39.06274414 C-4.10679288 27.90789513 -1.99837262 17.05662419 -1.24609375 5.49609375 C-1 3 -1 3 0 0 Z " fill="#250749" transform="translate(738,536)"/>
<path d="M0 0 C2 1 2 1 2.81640625 2.75 C3.06261719 3.4925 3.30882812 4.235 3.5625 5 C3.81128906 5.721875 4.06007813 6.44375 4.31640625 7.1875 C6.59193921 16.54969273 6.13588977 26.24555052 6.11352539 35.81079102 C6.11324296 37.50667825 6.11340234 39.2025656 6.1139679 40.89845276 C6.11425371 45.48042913 6.10839197 50.06237908 6.10139394 54.64434934 C6.09512436 59.44095299 6.09455375 64.23755731 6.09336853 69.03416443 C6.09026582 78.10744134 6.08206676 87.18070613 6.07201904 96.25397772 C6.06082493 106.58772456 6.05533915 116.92147199 6.05032361 127.25522339 C6.03988323 148.50348901 6.02230437 169.75174374 6 191 C6.81404297 189.75283203 6.81404297 189.75283203 7.64453125 188.48046875 C8.35996094 187.39378906 9.07539062 186.30710937 9.8125 185.1875 C10.87404297 183.56908203 10.87404297 183.56908203 11.95703125 181.91796875 C13.55073505 179.64168436 15.02957349 177.90717736 17 176 C18.11840771 173.96727358 19.17695993 171.90094949 20.1875 169.8125 C20.71730469 168.72582031 21.24710938 167.63914062 21.79296875 166.51953125 C22.19128906 165.68808594 22.58960938 164.85664062 23 164 C23.99857603 166.63039539 24.09097144 167.75102553 23.109375 170.4375 C22.66078125 171.283125 22.2121875 172.12875 21.75 173 C21.31171875 173.845625 20.8734375 174.69125 20.421875 175.5625 C19.08431692 177.85545671 17.62335369 179.90391144 16 182 C14.33355467 184.63853844 12.88972265 187.23493871 11.5625 190.0625 C10 193 10 193 7.8125 194.9375 C5.20432209 197.90542658 5.79743653 200.15129398 6 204 C5.71479595 205.67557379 5.40044304 207.34817245 5 209 C2.52853667 206.52853667 2.76662661 205.14412458 2.75582367 201.7725445 C2.76369571 201.03949355 2.77156776 200.3064426 2.77967834 199.55117798 C2.78008619 198.77389387 2.78049404 197.99660975 2.78091425 197.19577157 C2.78466135 194.57652436 2.80270955 191.95756524 2.82055664 189.33837891 C2.82602926 187.46595497 2.83057998 185.59352814 2.83427429 183.72109985 C2.84400666 179.6799268 2.85985469 175.63883906 2.88023567 171.59770584 C2.91200335 165.20092239 2.92753442 158.80416396 2.94029236 152.40731812 C2.97441474 136.50859554 3.02686825 120.60993924 3.0894165 104.71130371 C3.13793928 92.37489186 3.18001231 80.03854242 3.20092481 67.70204866 C3.21241449 61.35114454 3.23777046 55.00049685 3.27367222 48.6496861 C3.2929589 44.68304871 3.29955597 40.71646246 3.30273628 36.74978256 C3.30673253 34.91971177 3.31585988 33.08964329 3.33069992 31.2596283 C3.40120668 22.23396965 3.29519884 13.97913498 0.64539242 5.25156212 C0 3 0 3 0 0 Z " fill="#59169E" transform="translate(635,416)"/>
<path d="M0 0 C0 0.66 0 1.32 0 2 C0.7425 2.2475 1.485 2.495 2.25 2.75 C5.20124062 4.09147301 6.84814974 5.60905526 9 8 C6.39508891 7.03246159 4.1534375 6.10830882 1.875 4.5 C-6.40148032 0.18183636 -15.64780389 0.43928828 -24.49609375 2.61328125 C-32.72105329 5.32071723 -39.39393793 11.12480737 -43.48046875 18.76953125 C-44.45072828 21.16190403 -45.27741431 23.52321259 -46 26 C-46.33 26.99 -46.66 27.98 -47 29 C-47.09272361 30.70456785 -47.12791689 32.41254161 -47.12939453 34.11962891 C-47.13254669 35.16567291 -47.13569885 36.21171692 -47.13894653 37.28945923 C-47.1369223 38.42370331 -47.13489807 39.55794739 -47.1328125 40.7265625 C-47.13376923 41.90278168 -47.13472595 43.07900085 -47.13571167 44.29086304 C-47.13639334 46.79091444 -47.13453998 49.2909676 -47.13037109 51.79101562 C-47.12508932 55.56124021 -47.13028155 59.33134197 -47.13671875 63.1015625 C-47.16929907 77.66625066 -47.16929907 77.66625066 -46.46484375 92.20703125 C-45.54840551 105.38083101 -46.13752706 118.64120528 -46.39489746 131.83526611 C-46.4665928 135.58345313 -46.53079615 139.3317685 -46.59570312 143.08007812 C-46.72329758 150.38686101 -46.85895906 157.69346295 -47 165 C-47.33 165 -47.66 165 -48 165 C-48.97087065 133.33900289 -49.49345562 101.67127296 -50 70 C-50.33 70 -50.66 70 -51 70 C-51.07492194 64.66555753 -51.12896171 59.33143054 -51.16479492 53.99658203 C-51.17975449 52.18695735 -51.20012957 50.3773681 -51.22631836 48.56787109 C-51.61415868 21.05402215 -51.61415868 21.05402215 -42 11 C-33.6232002 2.41811847 -25.34042026 -1.67709964 -13.4375 -2.625 C-12.30183594 -2.72039062 -11.16617188 -2.81578125 -9.99609375 -2.9140625 C-6.06205583 -3.02690322 -3.42217414 -1.77009007 0 0 Z " fill="#BA6CEA" transform="translate(524,475)"/>
<path d="M0 0 C0.99 0.33 1.98 0.66 3 1 C6.27332955 10.99226915 5.01364202 19.34679299 1 29 C-1.37796593 32.89986412 -4.19188489 36.40298298 -7 40 C-35.63037497 79.24540472 -43.90302438 121.84529623 -39 170 C-41.33565675 166.49651487 -41.6869974 163.5758575 -42.125 159.5 C-42.2084668 158.7268042 -42.29193359 157.9536084 -42.37792969 157.15698242 C-44.13011545 138.70002978 -43.71512807 120.16588356 -40 102 C-39.77183594 100.82050781 -39.54367187 99.64101563 -39.30859375 98.42578125 C-36.51623002 84.89902875 -31.10292789 72.98676586 -24.83203125 60.74633789 C-23.87525976 58.83005576 -23.87525976 58.83005576 -23 56 C-22.34 56 -21.68 56 -21 56 C-20.72285156 55.4225 -20.44570313 54.845 -20.16015625 54.25 C-16.36201681 46.88391139 -11.05812327 40.37996272 -5.953125 33.89453125 C-3.97949261 30.96960804 -2.94247503 28.3838864 -2 25 C-1.34 25 -0.68 25 0 25 C0.09087891 23.69675781 0.09087891 23.69675781 0.18359375 22.3671875 C0.26738281 21.21476562 0.35117187 20.06234375 0.4375 18.875 C0.51871094 17.73804688 0.59992188 16.60109375 0.68359375 15.4296875 C0.97730965 12.2459522 1.43124313 9.14489093 2 6 C1.34 6 0.68 6 0 6 C0 4.02 0 2.04 0 0 Z " fill="#EED0F7" transform="translate(394,377)"/>
<path d="M0 0 C2 1 2 1 3.0625 3.1875 C4.95942679 8.87828037 5.14206648 14.43677741 5.09375 20.38671875 C5.09016479 21.27034592 5.08657959 22.15397308 5.08288574 23.06437683 C4.99588667 38.75554477 4.75112483 54.44641065 4.53643799 70.13623047 C4.47508771 74.6422389 4.41535444 79.14826878 4.35546875 83.65429688 C4.23852574 92.43621918 4.11984382 101.21811681 4 110 C2.58126522 109.54416193 1.16398576 109.08379316 -0.25268555 108.62158203 C-1.43679268 108.23777878 -1.43679268 108.23777878 -2.64482117 107.84622192 C-6.24768268 106.55170434 -9.50273295 104.78257719 -12.8125 102.875 C-13.84661011 102.28404541 -13.84661011 102.28404541 -14.90161133 101.68115234 C-21.3223236 97.93753548 -27.22736893 93.68258637 -33 89 C-33.53753906 88.56397461 -34.07507813 88.12794922 -34.62890625 87.67871094 C-43.82756367 80.17145398 -52.58901174 72.32350136 -60 63 C-59.67 62.34 -59.34 61.68 -59 61 C-54.22033898 63.38983051 -54.22033898 63.38983051 -53.1875 66.25 C-51.55082504 70.04019463 -48.85802494 71.89863123 -45.6796875 74.44921875 C-45.12539063 74.96097656 -44.57109375 75.47273437 -44 76 C-44 76.66 -44 77.32 -44 78 C-43.34 78 -42.68 78 -42 78 C-42 78.66 -42 79.32 -42 80 C-41.38125 80.0825 -40.7625 80.165 -40.125 80.25 C-37.33061257 81.23625439 -37.283048 82.43390399 -36 85 C-33.94999129 85.80528889 -33.94999129 85.80528889 -32 86 C-32 86.66 -32 87.32 -32 88 C-30.68 88.33 -29.36 88.66 -28 89 C-28 89.66 -28 90.32 -28 91 C-26.68 91.33 -25.36 91.66 -24 92 C-24 92.66 -24 93.32 -24 94 C-23.01 93.67 -22.02 93.34 -21 93 C-19.5 94.375 -19.5 94.375 -18 96 C-18 96.66 -18 97.32 -18 98 C-16.69675781 98.13728516 -16.69675781 98.13728516 -15.3671875 98.27734375 C-11.60807006 99.0841149 -9.30466644 100.4297969 -6.125 102.5625 C-5.15820312 103.20316406 -4.19140625 103.84382812 -3.1953125 104.50390625 C-2.47085938 104.99761719 -1.74640625 105.49132812 -1 106 C-0.67 105.34 -0.34 104.68 0 104 C0.33 104.33 0.66 104.66 1 105 C1.30853895 93.43847982 1.60489047 81.87671647 1.8859272 70.31449318 C2.01681848 64.94500315 2.15181718 59.57568351 2.29638672 54.20654297 C2.43589551 49.01962383 2.56437452 43.83253542 2.68539047 38.64515305 C2.73333445 36.67164669 2.78517131 34.69823073 2.84106827 32.72493362 C2.91901613 29.94909021 2.98278679 27.17324039 3.04345703 24.39697266 C3.06934906 23.59135895 3.09524109 22.78574524 3.12191772 21.95571899 C3.22927606 16.07635247 2.30123497 10.71922478 1 5 C0.66255821 3.33416029 0.32811545 1.66770175 0 0 Z " fill="#9849C5" transform="translate(448,553)"/>
<path d="M0 0 C0.33 0.66 0.66 1.32 1 2 C-0.07518118 4.44332726 -1.19808566 6.76754523 -2.4375 9.125 C-2.77587891 9.78371094 -3.11425781 10.44242187 -3.46289062 11.12109375 C-4.30149926 12.75106547 -5.14984811 14.37601909 -6 16 C-6.66 16 -7.32 16 -8 16 C-7.938125 17.19625 -7.87625 18.3925 -7.8125 19.625 C-7.59775186 23.77679738 -9.11166142 26.35196879 -11 30 C-16.84986283 46.95078364 -20.57762649 65.13941772 -22 83 C-22.05639648 83.67321289 -22.11279297 84.34642578 -22.17089844 85.04003906 C-23.31530544 99.33496918 -23.10369636 113.67075824 -23 128 C-23.33 128 -23.66 128 -24 128 C-25.21059719 120.42896363 -25.1574847 112.90140435 -25.125 105.25 C-25.12278442 104.56159027 -25.12056885 103.87318054 -25.11828613 103.16390991 C-24.98208023 67.03634305 -19.2521072 33.24927092 -2 1 C-1.34 0.67 -0.68 0.34 0 0 Z " fill="#EAC7F6" transform="translate(311,406)"/>
<path d="M0 0 C0.33 0 0.66 0 1 0 C1.13171037 11.0152322 1.2621838 22.03047832 1.39115143 33.04574299 C1.45109711 38.1625826 1.51144188 43.2794168 1.57275391 48.39624023 C1.6320962 53.34998148 1.69031815 58.30373483 1.74781799 63.25749779 C1.76975492 65.13136436 1.79207087 67.00522655 1.81480408 68.87908363 C1.92978936 78.37774553 2.02012326 87.87557346 2.02734375 97.375 C2.02835335 98.14312169 2.02936295 98.91124338 2.03040314 99.70264149 C2.02651839 106.03972439 1.82188491 112.35854671 1.5 118.6875 C1.42845703 120.2044043 1.42845703 120.2044043 1.35546875 121.75195312 C1.24095509 124.16819126 1.12253563 126.58415792 1 129 C-6.86898493 132.02653267 -15.0170942 132.15918319 -23.35546875 132.203125 C-24.21956863 132.20882507 -25.08366852 132.21452515 -25.97395325 132.22039795 C-27.79162396 132.22978074 -29.60931116 132.23635491 -31.42700195 132.24023438 C-34.16323555 132.24991416 -36.89870834 132.28099165 -39.63476562 132.3125 C-49.85670688 132.37232829 -59.08862805 131.75321655 -69 129 C-69 128.67 -69 128.34 -69 128 C-66.08302989 128.14104691 -63.1665198 128.28764814 -60.25 128.4375 C-59.425 128.47681641 -58.6 128.51613281 -57.75 128.55664062 C-56.95078125 128.59853516 -56.1515625 128.64042969 -55.328125 128.68359375 C-54.22839355 128.73858032 -54.22839355 128.73858032 -53.10644531 128.79467773 C-51 129 -51 129 -49.11865234 129.51147461 C-46.30585265 130.16005864 -43.65904478 130.12984682 -40.7734375 130.1328125 C-39.5771875 130.13410156 -38.3809375 130.13539063 -37.1484375 130.13671875 C-35.28058594 130.13091797 -35.28058594 130.13091797 -33.375 130.125 C-32.12203125 130.12886719 -30.8690625 130.13273438 -29.578125 130.13671875 C-28.38445313 130.13542969 -27.19078125 130.13414062 -25.9609375 130.1328125 C-24.86571777 130.13168457 -23.77049805 130.13055664 -22.64208984 130.12939453 C-20.02209968 130.17893598 -20.02209968 130.17893598 -18 129 C-15.66666667 129 -13.33333333 129 -11 129 C-10.67 128.67 -10.34 128.34 -10 128 C-8.33333333 128 -6.66666667 128 -5 128 C-3.65667272 127.70955086 -2.31774196 127.39044206 -1 127 C-1.33 125.35 -1.66 123.7 -2 122 C-1.34 122 -0.68 122 0 122 C0 81.74 0 41.48 0 0 Z " fill="#480F7E" transform="translate(546,542)"/>
<path d="M0 0 C0.66 0 1.32 0 2 0 C2 20.79 2 41.58 2 63 C4.64 59.04 7.28 55.08 10 51 C10.99 50.01 11.98 49.02 13 48 C14.11840771 45.96727358 15.17695993 43.90094949 16.1875 41.8125 C16.71730469 40.72582031 17.24710938 39.63914062 17.79296875 38.51953125 C18.39044922 37.27236328 18.39044922 37.27236328 19 36 C19.99857603 38.63039539 20.09097144 39.75102553 19.109375 42.4375 C18.43648437 43.7059375 18.43648437 43.7059375 17.75 45 C17.31171875 45.845625 16.8734375 46.69125 16.421875 47.5625 C15.08431692 49.85545671 13.62335369 51.90391144 12 54 C10.33355467 56.63853844 8.88972265 59.23493871 7.5625 62.0625 C6 65 6 65 3.8125 66.9375 C1.20432209 69.90542658 1.79743653 72.15129398 2 76 C1.71479595 77.67557379 1.40044304 79.34817245 1 81 C-1 79 -1 79 -1.20254517 75.76034546 C-1.19055091 74.34710189 -1.16720356 72.93392938 -1.13525391 71.52099609 C-1.12579239 70.75017197 -1.11633087 69.97934784 -1.10658264 69.18516541 C-1.07283788 66.63101824 -1.02474157 64.07734986 -0.9765625 61.5234375 C-0.95040226 59.75510926 -0.9251347 57.9867676 -0.90072632 56.21841431 C-0.83400777 51.5591945 -0.75512976 46.900256 -0.67376709 42.24127197 C-0.59291279 37.48908301 -0.52349179 32.73672878 -0.453125 27.984375 C-0.31330928 18.65605186 -0.16065474 9.32798588 0 0 Z " fill="#7022A8" transform="translate(639,544)"/>
<path d="M0 0 C0 0.66 0 1.32 0 2 C2.31 2.33 4.62 2.66 7 3 C6.01 3.66 5.02 4.32 4 5 C3.34 4.67 2.68 4.34 2 4 C-7.18146869 2.74639871 -15.27619675 2.54868514 -24 6 C-24.97582031 6.38027344 -25.95164062 6.76054687 -26.95703125 7.15234375 C-35.19160484 10.79923449 -41.36983544 16.00718773 -47 23 C-47.69885496 25.15342124 -47.69885496 25.15342124 -48 27 C-48.61875 27.4125 -49.2375 27.825 -49.875 28.25 C-53.82771056 31.5051734 -54.67875897 36.45220233 -55.6875 41.3125 C-56.02950765 45.34819027 -56.03026067 49.30487847 -55.9375 53.3515625 C-56.00039142 56.0165864 -56.40098665 58.40739533 -57 61 C-57.33 61 -57.66 61 -58 61 C-58.6671815 44.84804911 -58.82322832 32.01352996 -47.92578125 19.0859375 C-34.29518896 4.32176654 -19.7065205 -0.50457663 0 0 Z " fill="#F6D85A" transform="translate(680,264)"/>
<path d="M0 0 C0.33 0.66 0.66 1.32 1 2 C-1.37245291 7.14031464 -4.06793465 10.26508811 -8.51171875 13.73828125 C-10.13884196 14.95013837 -10.13884196 14.95013837 -11 17 C-9.02 16.34 -7.04 15.68 -5 15 C-5 15.66 -5 16.32 -5 17 C-4.07767578 16.65775391 -4.07767578 16.65775391 -3.13671875 16.30859375 C-2.32847656 16.02113281 -1.52023437 15.73367188 -0.6875 15.4375 C0.11300781 15.14746094 0.91351562 14.85742188 1.73828125 14.55859375 C4 14 4 14 7 15 C6.34 15.33 5.68 15.66 5 16 C5.99 16.99 6.98 17.98 8 19 C3.50167652 23.49832348 -11.36360688 22.1206356 -17.27880859 22.13842773 C-21.85304545 22.11898245 -26.42637128 22.07748882 -31 22 C-28.3628615 20.24190766 -26.49979035 19.43588933 -23.5625 18.4375 C-14.06292521 14.70999481 -6.16217133 8.04505702 0 0 Z " fill="#27153F" transform="translate(551,719)"/>
<path d="M0 0 C0.33 0 0.66 0 1 0 C1.01030746 0.83523697 1.02061493 1.67047394 1.03123474 2.53102112 C1.61251809 51.27582055 1.61251809 51.27582055 2.44070435 100.01681519 C2.48011285 101.99947064 2.51794418 103.98215809 2.5541687 105.96487427 C2.60417291 108.66420928 2.66033863 111.36333561 2.71875 114.0625 C2.73229019 114.83702011 2.74583038 115.61154022 2.75978088 116.40953064 C2.83414327 119.52316208 3.00815407 122.02446222 4 125 C3.91478259 126.89952346 3.76270916 128.79663573 3.5625 130.6875 C3.46066406 131.68136719 3.35882813 132.67523437 3.25390625 133.69921875 C3.17011719 134.45847656 3.08632813 135.21773437 3 136 C3.66 136 4.32 136 5 136 C5.103125 136.639375 5.20625 137.27875 5.3125 137.9375 C5.539375 138.618125 5.76625 139.29875 6 140 C6.99 140.33 7.98 140.66 9 141 C8.505 141.99 8.505 141.99 8 143 C5.69 143 3.38 143 1 143 C-0.14048859 113.84576921 -0.12229842 84.70452161 -0.06866455 55.53204346 C-0.05825071 49.24857936 -0.05382912 42.96511095 -0.04882812 36.68164062 C-0.0382511 24.45441613 -0.02129041 12.22721023 0 0 Z " fill="#782FA9" transform="translate(474,528)"/>
<path d="M0 0 C0.99 0.33 1.98 0.66 3 1 C6.27332955 10.99226915 5.01364202 19.34679299 1 29 C-1.37796593 32.89986412 -4.19188489 36.40298298 -7 40 C-15.33559979 51.42611607 -24.07308424 63.64882414 -29 77 C-30.37897046 72.86308863 -29.61062247 70.35739725 -27.84375 66.4296875 C-27.4003125 65.58664062 -26.956875 64.74359375 -26.5 63.875 C-25.11780882 61.23115758 -23.94548313 58.8364494 -23 56 C-22.34 56 -21.68 56 -21 56 C-20.72285156 55.4225 -20.44570313 54.845 -20.16015625 54.25 C-16.36201681 46.88391139 -11.05812327 40.37996272 -5.953125 33.89453125 C-3.97949261 30.96960804 -2.94247503 28.3838864 -2 25 C-1.34 25 -0.68 25 0 25 C0.09087891 23.69675781 0.09087891 23.69675781 0.18359375 22.3671875 C0.26738281 21.21476562 0.35117187 20.06234375 0.4375 18.875 C0.51871094 17.73804688 0.59992188 16.60109375 0.68359375 15.4296875 C0.97730965 12.2459522 1.43124313 9.14489093 2 6 C1.34 6 0.68 6 0 6 C0 4.02 0 2.04 0 0 Z " fill="#E8C5F3" transform="translate(394,377)"/>
<path d="M0 0 C-2.46818749 2.46818749 -3.47163299 2.27973088 -6.875 2.625 C-17.321303 4.37745974 -26.39582205 11.93951615 -33 20 C-34.19169569 22.13104487 -34.19169569 22.13104487 -35 24 C-35.66 24 -36.32 24 -37 24 C-37.23976563 24.52851563 -37.47953125 25.05703125 -37.7265625 25.6015625 C-39.37013445 28.6971244 -41.35908238 31.51582273 -43.375 34.375 C-44.15416816 35.48661324 -44.93281696 36.59859069 -45.7109375 37.7109375 C-46.27893066 38.52256348 -46.27893066 38.52256348 -46.85839844 39.35058594 C-48.60732334 41.87747573 -50.30432446 44.43712966 -52 47 C-52.7421875 45.40625 -52.7421875 45.40625 -53 43 C-51.80261908 40.66540805 -50.59822657 38.64861524 -49.125 36.5 C-48.71950928 35.89140137 -48.31401855 35.28280273 -47.89624023 34.65576172 C-39.52830226 22.22717343 -39.52830226 22.22717343 -35 17 C-34.34 17 -33.68 17 -33 17 C-32.75894531 16.42378906 -32.51789063 15.84757812 -32.26953125 15.25390625 C-30.75631943 12.56737326 -29.00814596 10.96172731 -26.6875 8.9375 C-25.54861328 7.93009766 -25.54861328 7.93009766 -24.38671875 6.90234375 C-17.03339064 1.04134409 -9.25062421 -0.40220105 0 0 Z " fill="#E4BBF2" transform="translate(365,358)"/>
<path d="M0 0 C0.33 0 0.66 0 1 0 C2.16656175 20.44723513 -3.88403029 39.91779667 -17.42578125 55.515625 C-29.3254717 67 -29.3254717 67 -36 67 C-36 66.34 -36 65.68 -36 65 C-33.36 63.68 -30.72 62.36 -28 61 C-28 60.01 -28 59.02 -28 58 C-27.071875 57.7525 -26.14375 57.505 -25.1875 57.25 C-21.74590245 55.9003539 -20.96468887 54.99381162 -19 52 C-18.01 51.34 -17.02 50.68 -16 50 C-15.67 49.01 -15.34 48.02 -15 47 C-13 45 -13 45 -11 44 C-10.19318445 42.19220395 -10.19318445 42.19220395 -9.5625 40 C-9.30597656 39.18402344 -9.04945313 38.36804688 -8.78515625 37.52734375 C-8.52605469 36.69332031 -8.26695312 35.85929688 -8 35 C-7.5031575 33.51976976 -7.00322922 32.04057117 -6.5 30.5625 C-5.99931231 29.04189293 -5.49933517 27.52105175 -5 26 C-4.71769531 25.17242188 -4.43539062 24.34484375 -4.14453125 23.4921875 C-2.38831932 18.0998748 -1.68502804 13.6694952 -2 8 C-1.34 8 -0.68 8 0 8 C0 5.36 0 2.72 0 0 Z " fill="#F5E4FB" transform="translate(564,670)"/>
<path d="M0 0 C-0.33 0.99 -0.66 1.98 -1 3 C-1.99 3.33 -2.98 3.66 -4 4 C-0.7 4.33 2.6 4.66 6 5 C6 5.33 6 5.66 6 6 C-11.67635185 6.97016443 -29.44233295 7.77721811 -47 5 C-47 4.34 -47 3.68 -47 3 C-47.99 2.67 -48.98 2.34 -50 2 C-48.62448975 2.05329468 -48.62448975 2.05329468 -47.22119141 2.10766602 C-43.77343404 2.23796297 -40.32556314 2.36206954 -36.87744141 2.48217773 C-35.39362896 2.53509062 -33.90989874 2.59037037 -32.42626953 2.64819336 C-21.40386369 3.07556243 -9.96436781 -0.53861448 0 0 Z " fill="#CEB2DE" transform="translate(527,736)"/>
<path d="M0 0 C0 0.66 0 1.32 0 2 C0.7425 2.2475 1.485 2.495 2.25 2.75 C5.20124062 4.09147301 6.84814974 5.60905526 9 8 C6.39508891 7.03246159 4.1534375 6.10830882 1.875 4.5 C-6.40148032 0.18183636 -15.64780389 0.43928828 -24.49609375 2.61328125 C-31.16842883 4.80963492 -35.18480566 8.71785275 -39.87109375 13.85546875 C-42 16 -42 16 -45 17 C-43.24441627 10.56285966 -38.60640619 6.52295891 -33.01171875 3.25390625 C-26.26018422 -0.18368826 -20.97761667 -2.02453565 -13.4375 -2.625 C-12.30183594 -2.72039062 -11.16617188 -2.81578125 -9.99609375 -2.9140625 C-6.06205583 -3.02690322 -3.42217414 -1.77009007 0 0 Z " fill="#B86BE2" transform="translate(524,475)"/>
<path d="M0 0 C0.495 1.485 0.495 1.485 1 3 C0.01 3.66 -0.98 4.32 -2 5 C-2.33 5.99 -2.66 6.98 -3 8 C-4.55859375 9.38671875 -4.55859375 9.38671875 -6.4375 10.6875 C-7.05496094 11.12449219 -7.67242188 11.56148437 -8.30859375 12.01171875 C-10 13 -10 13 -12 13 C-12.23460937 13.5878125 -12.46921875 14.175625 -12.7109375 14.78125 C-16.17646926 20.74616527 -24.15758177 24.29819365 -30.25 27.16015625 C-32.21542423 28.07007018 -32.21542423 28.07007018 -34.8125 29.6875 C-37 31 -37 31 -40 32 C-40.83333333 33.91666667 -40.83333333 33.91666667 -41 36 C-40.67 36.66 -40.34 37.32 -40 38 C-46.75 37.25 -46.75 37.25 -49 35 C-45.70769425 31.20248109 -41.9111034 29.27972953 -37.4375 27.1875 C-23.14764344 20.23511179 -11.10913863 11.35509742 0 0 Z " fill="#230159" transform="translate(604,700)"/>
<path d="M0 0 C0.33 0 0.66 0 1 0 C1.04686113 7.26862931 1.08213675 14.53722473 1.10362434 21.80597591 C1.11395042 25.18314503 1.12902849 28.56013037 1.15087891 31.93725586 C1.37868408 68.08457624 1.37868408 68.08457624 -3.5 85.5 C-3.81904297 86.73169922 -3.81904297 86.73169922 -4.14453125 87.98828125 C-4.69178936 90.0128005 -5.33681303 92.01043908 -6 94 C-6.99 94.495 -6.99 94.495 -8 95 C-7.88437394 93.60335892 -7.757008 92.20768801 -7.625 90.8125 C-7.55539062 90.03519531 -7.48578125 89.25789062 -7.4140625 88.45703125 C-7 86 -7 86 -6.05859375 83.74609375 C-4.60863858 79.98477093 -4.05188449 76.22236957 -3.4375 72.25 C-3.31181641 71.50878906 -3.18613281 70.76757812 -3.05664062 70.00390625 C-0.53217401 54.01121196 -0.75374393 37.58401149 -0.4375 21.4375 C-0.3941744 19.34699909 -0.35055639 17.25650422 -0.30664062 15.16601562 C-0.20106604 10.11074016 -0.09941381 5.05540022 0 0 Z " fill="#AF59EB" transform="translate(638,559)"/>
<path d="M0 0 C2.87482078 2.44770455 3.89440249 4.83824337 5.125 8.375 C5.45757813 9.31085938 5.79015625 10.24671875 6.1328125 11.2109375 C9.52604443 22.12430504 9.52549905 35.42828764 5 46 C4.67128906 46.81597656 4.34257813 47.63195312 4.00390625 48.47265625 C0.13439206 57.13554788 -6.35283962 63.39805839 -13 70 C-13.66 69.67 -14.32 69.34 -15 69 C-12.77546166 63.24237134 -10.3310177 61.61521623 -5 59 C-5 58.01 -5 57.02 -5 56 C-4.01 56 -3.02 56 -2 56 C-1.896875 55.29875 -1.79375 54.5975 -1.6875 53.875 C-0.90640997 50.60862353 0.42058743 47.9528148 2 45 C2.66 45 3.32 45 4 45 C7.19556505 30.50582997 6.72828934 17.6944484 0.8046875 4.03125 C0 2 0 2 0 0 Z " fill="#C78821" transform="translate(718,290)"/>
<path d="M0 0 C0.66 0 1.32 0 2 0 C2.495 3.465 2.495 3.465 3 7 C-4.86898493 10.02653267 -13.0170942 10.15918319 -21.35546875 10.203125 C-22.21956863 10.20882507 -23.08366852 10.21452515 -23.97395325 10.22039795 C-25.79162396 10.22978074 -27.60931116 10.23635491 -29.42700195 10.24023438 C-32.16323555 10.24991416 -34.89870834 10.28099165 -37.63476562 10.3125 C-47.85670688 10.37232829 -57.08862805 9.75321655 -67 7 C-67 6.67 -67 6.34 -67 6 C-64.08302989 6.14104691 -61.1665198 6.28764814 -58.25 6.4375 C-57.0125 6.49647461 -57.0125 6.49647461 -55.75 6.55664062 C-54.95078125 6.59853516 -54.1515625 6.64042969 -53.328125 6.68359375 C-52.5949707 6.72025146 -51.86181641 6.75690918 -51.10644531 6.79467773 C-49 7 -49 7 -47.11865234 7.51147461 C-44.30585265 8.16005864 -41.65904478 8.12984682 -38.7734375 8.1328125 C-37.5771875 8.13410156 -36.3809375 8.13539063 -35.1484375 8.13671875 C-33.90320313 8.13285156 -32.65796875 8.12898437 -31.375 8.125 C-30.12203125 8.12886719 -28.8690625 8.13273438 -27.578125 8.13671875 C-26.38445313 8.13542969 -25.19078125 8.13414062 -23.9609375 8.1328125 C-22.86571777 8.13168457 -21.77049805 8.13055664 -20.64208984 8.12939453 C-18.02209968 8.17893598 -18.02209968 8.17893598 -16 7 C-13.66666667 7 -11.33333333 7 -9 7 C-8.67 6.67 -8.34 6.34 -8 6 C-6.33333333 6 -4.66666667 6 -3 6 C-1.65667272 5.70955086 -0.31774196 5.39044206 1 5 C0.505 2.525 0.505 2.525 0 0 Z " fill="#3D0A9E" transform="translate(544,664)"/>
<path d="M0 0 C0 3.19490342 -0.59110506 4.59617544 -1.9375 7.4375 C-3.94893948 11.69829116 -5.12889855 15.29924508 -5.11352539 20.03417969 C-5.11344986 20.81468689 -5.11337433 21.59519409 -5.11329651 22.39935303 C-5.10813522 23.23178528 -5.10297394 24.06421753 -5.09765625 24.921875 C-5.0962413 25.78186096 -5.09482635 26.64184692 -5.09336853 27.52789307 C-5.08778097 30.26863109 -5.07523075 33.00928676 -5.0625 35.75 C-5.05748339 37.6106759 -5.05292077 39.47135309 -5.04882812 41.33203125 C-5.03781561 45.88805246 -5.02055951 50.44401228 -5 55 C-4.34 55.33 -3.68 55.66 -3 56 C-2.64080332 57.66128463 -2.31088368 59.32900023 -2 61 C-1.00916033 63.23408113 -1.00916033 63.23408113 0 65 C-4.875 60.375 -4.875 60.375 -6 57 C-6.66 57 -7.32 57 -8 57 C-8.65547442 53.94111939 -9.08885887 51.49390723 -8.53125 48.39453125 C-7.84473723 44.00791656 -7.89342531 39.74370158 -7.9375 35.3125 C-7.94426758 34.03149414 -7.94426758 34.03149414 -7.95117188 32.72460938 C-7.95985112 31.14622586 -7.97059383 29.56785128 -7.98413086 27.98950195 C-8.05208296 19.47039931 -6.88806398 9.70700682 -3 2 C-2.01 1.34 -1.02 0.68 0 0 Z " fill="#B16FD0" transform="translate(388,549)"/>
<path d="M0 0 C0.33 0.66 0.66 1.32 1 2 C-1.37245291 7.14031464 -4.06793465 10.26508811 -8.51171875 13.73828125 C-10.13884196 14.95013837 -10.13884196 14.95013837 -11 17 C-9.02 16.34 -7.04 15.68 -5 15 C-5.33 15.99 -5.66 16.98 -6 18 C-8.546875 18.94921875 -8.546875 18.94921875 -11.75 19.6875 C-12.79671875 19.93886719 -13.8434375 20.19023438 -14.921875 20.44921875 C-17.70277496 20.94681633 -20.18542538 21.10945568 -23 21 C-20.14693203 18.67527795 -17.45925163 17.2491742 -14 16 C-14 15.01 -14 14.02 -14 13 C-12.20703125 11.38671875 -12.20703125 11.38671875 -9.8125 9.6875 C-5.87512037 6.76862236 -2.94793848 3.89888637 0 0 Z " fill="#602198" transform="translate(551,719)"/>
<path d="M0 0 C0.33 0 0.66 0 1 0 C1.9434595 15.59328888 -1.4073427 31.14344949 -6 46 C-6.66 45.67 -7.32 45.34 -8 45 C-7.38841804 41.05092794 -6.5888612 37.23581986 -5.5625 33.375 C-3.22661284 24.14539706 -1.86413183 14.99369928 -1.24609375 5.49609375 C-1 3 -1 3 0 0 Z " fill="#320761" transform="translate(738,536)"/>
<path d="M0 0 C0.33 0 0.66 0 1 0 C1.03963867 0.60658447 1.07927734 1.21316895 1.12011719 1.83813477 C1.9892828 14.63911946 3.30232245 27.17282105 5.76660156 39.77368164 C5.94030273 40.67981201 6.11400391 41.58594238 6.29296875 42.51953125 C6.4530542 43.31464111 6.61313965 44.10975098 6.77807617 44.92895508 C7 47 7 47 6 50 C5.35105763 47.93847611 4.7059736 45.87573742 4.0625 43.8125 C3.70285156 42.66394531 3.34320313 41.51539063 2.97265625 40.33203125 C-0.82400825 27.32578699 -0.13699377 13.42538919 0 0 Z " fill="#D8AFEC" transform="translate(353,515)"/>
<path d="M0 0 C0.33 0 0.66 0 1 0 C1.71751496 4.03754825 2.42941346 8.07604335 3.13623047 12.11547852 C3.37721902 13.48814286 3.61971294 14.86054384 3.86376953 16.23266602 C4.21526968 18.21039235 4.56082421 20.18917245 4.90625 22.16796875 C5.11572266 23.35672607 5.32519531 24.5454834 5.54101562 25.77026367 C5.9398602 28.57681413 6.09322167 31.17305293 6 34 C5.505 32.515 5.505 32.515 5 31 C4.34 31 3.68 31 3 31 C0.4576649 20.46746888 -0.38339966 10.80619052 0 0 Z " fill="#E5C1F5" transform="translate(288,536)"/>
<path d="M0 0 C1.98 0 3.96 0 6 0 C-1.27907664 7.86140277 -12.35285995 9.29488962 -22.53125 9.97265625 C-28.10284123 10.01657645 -33.60081401 9.3967637 -39 8 C-39.66 7.34 -40.32 6.68 -41 6 C-40.03578125 6.16113281 -39.0715625 6.32226562 -38.078125 6.48828125 C-33.63277779 7.11934185 -29.23439076 7.19109723 -24.75 7.1875 C-23.50126099 7.1884668 -23.50126099 7.1884668 -22.22729492 7.18945312 C-15.99226669 7.13613639 -10.06337057 6.52606181 -4 5 C-3.67 4.01 -3.34 3.02 -3 2 C-2.01 2 -1.02 2 0 2 C0 1.34 0 0.68 0 0 Z " fill="#BF762D" transform="translate(697,360)"/>
<path d="M0 0 C4.41665288 -0.02902168 8.83328123 -0.04680608 13.25 -0.0625 C15.13138672 -0.07506836 15.13138672 -0.07506836 17.05078125 -0.08789062 C18.85869141 -0.09272461 18.85869141 -0.09272461 20.703125 -0.09765625 C22.36843262 -0.10551147 22.36843262 -0.10551147 24.06738281 -0.11352539 C27.45522115 0.0176222 29.97919443 0.48959721 33 2 C29.97407565 5.02592435 21.20461932 4.07166819 17.08984375 4.09765625 C15.03903948 4.09110416 12.98824576 4.07932 10.9375 4.0625 C9.88111328 4.05798828 8.82472656 4.05347656 7.73632812 4.04882812 C5.15749092 4.03715918 2.57877706 4.02078885 0 4 C0 2.68 0 1.36 0 0 Z " fill="#985BE7" transform="translate(497,674)"/>
<path d="M0 0 C0.99 0.33 1.98 0.66 3 1 C5.96837518 10.06135582 5.0108702 17.09284234 2 26 C1 23 1 23 1.5 21.25 C2.17965152 18.82490186 2.17965152 18.82490186 1.5 15.625 C1.00980611 12.07109427 1.2366165 9.47763594 2 6 C1.34 6 0.68 6 0 6 C0 4.02 0 2.04 0 0 Z " fill="#E2B9F1" transform="translate(394,377)"/>
<path d="M0 0 C0.33 0 0.66 0 1 0 C1 18.15 1 36.3 1 55 C0.67 55 0.34 55 0 55 C-0.96439313 46.24388469 -1.30702107 37.49764627 -1.55761719 28.69873047 C-1.62588473 26.34448962 -1.70335334 23.99065854 -1.78125 21.63671875 C-1.82607217 20.14064142 -1.87036335 18.64454806 -1.9140625 17.1484375 C-1.93796051 16.44439789 -1.96185852 15.74035828 -1.98648071 15.01498413 C-2.03017615 13.34388785 -2.02053753 11.67154129 -2 10 C-1.67 9.67 -1.34 9.34 -1 9 C-0.76807135 7.48530552 -0.58784762 5.96245438 -0.4375 4.4375 C-0.35371094 3.61121094 -0.26992188 2.78492188 -0.18359375 1.93359375 C-0.12300781 1.29550781 -0.06242187 0.65742188 0 0 Z " fill="#C59CE0" transform="translate(286,483)"/>
<path d="M0 0 C0.33 0 0.66 0 1 0 C1.33 5.61 1.66 11.22 2 17 C2.33 17 2.66 17 3 17 C3.19335938 17.79664063 3.38671875 18.59328125 3.5859375 19.4140625 C5.51794536 27.2865704 5.51794536 27.2865704 8 35 C6.5 33.625 6.5 33.625 5 32 C5 31.34 5 30.68 5 30 C4.34 30 3.68 30 3 30 C-0.50115398 19.84885545 -1.56849278 10.63089553 0 0 Z " fill="#EEBF4C" transform="translate(621,307)"/>
<path d="M0 0 C0.66 0 1.32 0 2 0 C2.33 2.31 2.66 4.62 3 7 C-1.29116061 8.58642907 -5.19175571 9.39290252 -9.75 9.75 C-11.44382812 9.89695312 -11.44382812 9.89695312 -13.171875 10.046875 C-16 10 -16 10 -18 8 C-15.06156148 6.53078074 -12.24602179 7 -9 7 C-8.67 6.67 -8.34 6.34 -8 6 C-6.33333333 6 -4.66666667 6 -3 6 C-1.65667272 5.70955086 -0.31774196 5.39044206 1 5 C0.67 3.35 0.34 1.7 0 0 Z " fill="#511AAF" transform="translate(544,664)"/>
<path d="M0 0 C0.99 0.33 1.98 0.66 3 1 C2.38511719 1.78310547 2.38511719 1.78310547 1.7578125 2.58203125 C-6.88533249 14.38881544 -5.54216806 28.93562605 -6 43 C-6.33 43 -6.66 43 -7 43 C-7.11765973 38.72940439 -7.18773631 34.45923403 -7.25 30.1875 C-7.28351563 28.99189453 -7.31703125 27.79628906 -7.3515625 26.56445312 C-7.46288006 16.3510666 -5.38998095 8.66081585 0 0 Z " fill="#E9ABFD" transform="translate(389,549)"/>
<path d="M0 0 C0.33 0 0.66 0 1 0 C1.33 7.59 1.66 15.18 2 23 C-9.57142857 19.14285714 -9.57142857 19.14285714 -13 14 C-9.08788267 15.15585285 -6.1254959 16.35534962 -3 19 C-2.67 18.34 -2.34 17.68 -2 17 C-1.67 17.33 -1.34 17.66 -1 18 C-0.505 9.09 -0.505 9.09 0 0 Z " fill="#7C2FB5" transform="translate(450,640)"/>
<path d="M0 0 C0 0.99 0 1.98 0 3 C-0.639375 3.2475 -1.27875 3.495 -1.9375 3.75 C-4.15640538 4.81408299 -4.15640538 4.81408299 -4.8125 7 C-5.18451089 9.07160124 -5.18451089 9.07160124 -4 11 C-10.75 10.25 -10.75 10.25 -13 8 C-9.45647382 3.68614204 -5.04807753 2.0278602 0 0 Z " fill="#2C035E" transform="translate(568,727)"/>
<path d="M0 0 C0.99 0.33 1.98 0.66 3 1 C1.44824705 5.16022109 -1.31623185 7.07930982 -4.8125 9.6875 C-5.85019531 10.47511719 -6.88789062 11.26273438 -7.95703125 12.07421875 C-10.81284098 13.88155404 -12.68237877 14.63818918 -16 15 C-16 14.34 -16 13.68 -16 13 C-13.36 11.68 -10.72 10.36 -8 9 C-8 8.01 -8 7.02 -8 6 C-7.05125 5.7525 -6.1025 5.505 -5.125 5.25 C-1.91306809 4.3142923 -1.91306809 4.3142923 -0.625 1.875 C-0.41875 1.25625 -0.2125 0.6375 0 0 Z " fill="#F2E5F7" transform="translate(544,722)"/>
<path d="M0 0 C1.25425781 0.00902344 2.50851562 0.01804687 3.80078125 0.02734375 C4.75339844 0.03894531 5.70601562 0.05054688 6.6875 0.0625 C6.6875 0.7225 6.6875 1.3825 6.6875 2.0625 C8.9975 2.3925 11.3075 2.7225 13.6875 3.0625 C12.6975 3.7225 11.7075 4.3825 10.6875 5.0625 C10.0275 4.7325 9.3675 4.4025 8.6875 4.0625 C6.07957808 3.8540978 3.48695562 3.68809715 0.875 3.5625 C-3.59309085 3.34414986 -7.94250505 3.09275421 -12.3125 2.0625 C-12.3125 1.7325 -12.3125 1.4025 -12.3125 1.0625 C-8.15623632 0.05323521 -4.26884906 -0.03989579 0 0 Z " fill="#F4D150" transform="translate(673.3125,263.9375)"/>
<path d="M0 0 C7.70288993 -0.6212008 12.3723673 1.1258097 19 5 C18.67 5.99 18.34 6.98 18 8 C17.19949219 7.60167969 17.19949219 7.60167969 16.3828125 7.1953125 C10.67628629 4.49014263 5.22817482 2.9881864 -1 2 C-0.67 1.34 -0.34 0.68 0 0 Z " fill="#E3B8F1" transform="translate(366,358)"/>
<path d="M0 0 C2.875 1.1875 2.875 1.1875 6 3 C6.28875 3.7425 6.5775 4.485 6.875 5.25 C8.44033563 9.076376 11.1413294 10.89811309 14.3203125 13.44921875 C14.87460937 13.96097656 15.42890625 14.47273437 16 15 C16 15.66 16 16.32 16 17 C16.66 17 17.32 17 18 17 C18 17.66 18 18.32 18 19 C19.32 19.33 20.64 19.66 22 20 C20.19116211 20.65844727 20.19116211 20.65844727 18 21 C15.64305942 19.04641835 13.64239328 17.15526049 11.5625 14.9375 C11.00240234 14.36322266 10.44230469 13.78894531 9.86523438 13.19726562 C0 2.98669049 0 2.98669049 0 0 Z " fill="#8D31D2" transform="translate(388,614)"/>
<path d="M0 0 C0.66 0.66 1.32 1.32 2 2 C1.566875 2.42410156 1.13375 2.84820313 0.6875 3.28515625 C-3.1402808 7.29294671 -3.1402808 7.29294671 -4.3125 12.625 C-4.209375 13.73875 -4.10625 14.8525 -4 16 C-4.28520405 17.67557379 -4.59955696 19.34817245 -5 21 C-5.66 20.34 -6.32 19.68 -7 19 C-6.9765625 15.9609375 -6.9765625 15.9609375 -6.625 12.375 C-6.51414062 11.18648437 -6.40328125 9.99796875 -6.2890625 8.7734375 C-6.19367187 7.85820313 -6.09828125 6.94296875 -6 6 C-5.01 6 -4.02 6 -3 6 C-2.690625 5.195625 -2.38125 4.39125 -2.0625 3.5625 C-1 1 -1 1 0 0 Z " fill="#7323AC" transform="translate(645,604)"/>
<path d="M0 0 C0.66 0.33 1.32 0.66 2 1 C0.75312408 1.96239452 -0.49764969 2.91974009 -1.75 3.875 C-2.44609375 4.40867187 -3.1421875 4.94234375 -3.859375 5.4921875 C-6 7 -6 7 -8.03125 7.90625 C-10.65321576 9.36289765 -11.96948355 11.22815093 -13.75 13.625 C-14.67039062 14.85089844 -14.67039062 14.85089844 -15.609375 16.1015625 C-16.06828125 16.72804688 -16.5271875 17.35453125 -17 18 C-17.33 17.34 -17.66 16.68 -18 16 C-13.24762271 8.84710448 -7.83179024 3.71458045 0 0 Z " fill="#682CD0" transform="translate(588,399)"/>
<path d="M0 0 C-0.99 0.495 -0.99 0.495 -2 1 C-1.01 1.99 -0.02 2.98 1 4 C0 5 0 5 -2.72265625 5.09765625 C-4.37587891 5.08025391 -4.37587891 5.08025391 -6.0625 5.0625 C-7.16722656 5.05347656 -8.27195312 5.04445313 -9.41015625 5.03515625 C-10.69212891 5.01775391 -10.69212891 5.01775391 -12 5 C-11 2 -11 2 -9.2578125 1.015625 C-8.55398438 0.76296875 -7.85015625 0.5103125 -7.125 0.25 C-6.07699219 -0.14445313 -6.07699219 -0.14445313 -5.0078125 -0.546875 C-3 -1 -3 -1 0 0 Z " fill="#260848" transform="translate(558,734)"/>
<path d="M0 0 C-3.51911458 1.17303819 -5.27151785 0.42756766 -8.75390625 -0.51171875 C-15.26534136 -1.92724812 -20.68371557 -0.85773071 -27 1 C-29.19921875 0.55859375 -29.19921875 0.55859375 -31 0 C-21.29637994 -4.7527935 -9.70362006 -4.7527935 0 0 Z " fill="#EFB4FE" transform="translate(433,539)"/>
<path d="M0 0 C0.33 0.66 0.66 1.32 1 2 C-1.56767474 7.9168157 -4.96205307 11.49072335 -11 14 C-11.66 13.67 -12.32 13.34 -13 13 C-12.48050781 12.56429687 -11.96101562 12.12859375 -11.42578125 11.6796875 C-7.16777334 8.04345894 -3.44527348 4.41425664 0 0 Z " fill="#3F127F" transform="translate(551,719)"/>
<path d="M0 0 C1.10370043 3.3111013 0.92673641 5.24748949 0.5625 8.6875 C0.40974609 10.17830078 0.40974609 10.17830078 0.25390625 11.69921875 C0.12822266 12.83810547 0.12822266 12.83810547 0 14 C0.66 14 1.32 14 2 14 C2.103125 14.639375 2.20625 15.27875 2.3125 15.9375 C2.6528125 16.9584375 2.6528125 16.9584375 3 18 C3.99 18.33 4.98 18.66 6 19 C5.67 19.66 5.34 20.32 5 21 C2.69 21 0.38 21 -2 21 C-1.86142159 17.87463363 -1.71290431 14.74981783 -1.5625 11.625 C-1.52318359 10.73554687 -1.48386719 9.84609375 -1.44335938 8.9296875 C-1.40146484 8.07890625 -1.35957031 7.228125 -1.31640625 6.3515625 C-1.27974854 5.56604004 -1.24309082 4.78051758 -1.20532227 3.97119141 C-1 2 -1 2 0 0 Z " fill="#7D34C5" transform="translate(477,650)"/>
<path d="M0 0 C4.0879355 0.54168757 6.42190476 1.74231877 9.625 4.3125 C10.38039063 4.90675781 11.13578125 5.50101562 11.9140625 6.11328125 C13.9291688 7.93593358 15.45597796 9.77247775 17 12 C16.67 12.66 16.34 13.32 16 14 C12.77339003 12.92446334 11.47068581 11.38244295 9.6875 8.625 C7.04829638 4.67444208 4.23148771 3.07425868 0 1 C0 0.67 0 0.34 0 0 Z " fill="#9D4FC8" transform="translate(524,476)"/>
<path d="M0 0 C1.43269566 4.29808699 -0.47170991 7.08078812 -2.25 11 C-2.71986328 12.08667969 -2.71986328 12.08667969 -3.19921875 13.1953125 C-4.77639382 16.74232034 -6.10495216 19.3439928 -9 22 C-9.1875 19.6875 -9.1875 19.6875 -9 17 C-8.566875 16.5978125 -8.13375 16.195625 -7.6875 15.78125 C-5.23402163 13.19146727 -4.13604287 10.07070307 -2.8125 6.8125 C-2.53986328 6.15830078 -2.26722656 5.50410156 -1.98632812 4.83007812 C-1.31760202 3.22278908 -0.65790075 1.61175038 0 0 Z " fill="#AF58E8" transform="translate(629,655)"/>
<path d="M0 0 C0.66 0 1.32 0 2 0 C2.6987693 1.76641683 3.38366583 3.53832664 4.0625 5.3125 C4.44535156 6.29863281 4.82820313 7.28476562 5.22265625 8.30078125 C6 11 6 11 5 14 C5 13.34 5 12.68 5 12 C4.34 12 3.68 12 3 12 C0.58314288 7.77050005 -0.34833144 4.87664009 0 0 Z " fill="#E0B9F2" transform="translate(300,591)"/>
<path d="M0 0 C0.66 0.33 1.32 0.66 2 1 C-0.82522609 5.67248931 -3.67760044 8.65996398 -8 12 C-8 8.24111186 -7.049166 7.58681685 -4.5625 4.875 C-3.92441406 4.17117188 -3.28632813 3.46734375 -2.62890625 2.7421875 C-1.76410115 1.81724008 -0.89538137 0.89538137 0 0 Z " fill="#B166D8" transform="translate(488,480)"/>
<path d="M0 0 C1.11058786 2.07309734 1.97398494 3.88618411 2.5 6.1875 C2.665 6.785625 2.83 7.38375 3 8 C3.66 8.33 4.32 8.66 5 9 C5.35919668 10.66128463 5.68911632 12.32900023 6 14 C6.99083967 16.23408113 6.99083967 16.23408113 8 18 C3.125 13.375 3.125 13.375 2 10 C1.34 10 0.68 10 0 10 C-0.74926071 6.33694766 -1.2380014 3.57644848 0 0 Z " fill="#AF62E1" transform="translate(380,596)"/>
<path d="M0 0 C-2.21229599 2.54414039 -3.65126671 3.54746847 -7 4 C-9.67286275 4.07182357 -12.32490846 4.04458486 -15 4 C-9.84599161 0.56399441 -6.22297833 -0.24403837 0 0 Z " fill="#22083F" transform="translate(575,733)"/>
<path d="M0 0 C0.66 0.33 1.32 0.66 2 1 C2 1.66 2 2.32 2 3 C-2.23798336 6.45277325 -6.49897163 8.58742287 -12 9 C-9.67350413 6.49280542 -7.17318479 4.67816399 -4.3125 2.8125 C-3.50425781 2.28269531 -2.69601562 1.75289062 -1.86328125 1.20703125 C-1.24839844 0.80871094 -0.63351562 0.41039062 0 0 Z " fill="#752AB5" transform="translate(583,715)"/>
<path d="M0 0 C2.48982535 2.27745789 4.10368997 4.62335238 5.75 7.5625 C6.19859375 8.34753906 6.6471875 9.13257813 7.109375 9.94140625 C7.40328125 10.62074219 7.6971875 11.30007813 8 12 C7.67 12.66 7.34 13.32 7 14 C3.66144681 11.00681438 1.72601391 8.14243338 0 4 C0 2.68 0 1.36 0 0 Z " fill="#D9B0EF" transform="translate(312,618)"/>
<path d="M0 0 C0.33 0.66 0.66 1.32 1 2 C1.66 2 2.32 2 3 2 C6.42857143 10.42857143 6.42857143 10.42857143 6 15 C2.35219334 10.8310781 0 5.55196264 0 0 Z " fill="#E0B5F3" transform="translate(360,566)"/>
<path d="M0 0 C0.66 0.33 1.32 0.66 2 1 C2.16682272 5.92127034 2.24828052 9.50343896 0 14 C-0.66 13.67 -1.32 13.34 -2 13 C-1.34 8.71 -0.68 4.42 0 0 Z " fill="#6E1FA9" transform="translate(637,627)"/>
<path d="M0 0 C0.33 0.66 0.66 1.32 1 2 C-5.75 6 -5.75 6 -8 6 C-8 6.66 -8 7.32 -8 8 C-10.64 8 -13.28 8 -16 8 C-12.59222455 5.7281497 -9.18544527 4.4515982 -5.375 3 C-2.80352349 2.00504505 -2.80352349 2.00504505 0 0 Z " fill="#24094C" transform="translate(536,733)"/>
<path d="M0 0 C0.99 0.33 1.98 0.66 3 1 C3.66 4.96 4.32 8.92 5 13 C4.01 13.495 4.01 13.495 3 14 C2.87625 12.865625 2.7525 11.73125 2.625 10.5625 C2.41875 9.386875 2.2125 8.21125 2 7 C1.34 6.67 0.68 6.34 0 6 C0 4.02 0 2.04 0 0 Z " fill="#EEB32B" transform="translate(720,301)"/>
<path d="M0 0 C0.66 0 1.32 0 2 0 C3.32 3.3 4.64 6.6 6 10 C5.01 10.33 4.02 10.66 3 11 C0 4.5 0 4.5 0 0 Z " fill="#DAB3F0" transform="translate(306,606)"/>
<path d="M0 0 C1.79292501 5.37877502 -1.35144568 10.63082977 -3.6875 15.5625 C-4.120625 16.366875 -4.55375 17.17125 -5 18 C-6.39214652 13.82356045 -4.70664266 11.16562207 -3.0625 7.3125 C-2.77181641 6.61060547 -2.48113281 5.90871094 -2.18164062 5.18554688 C-1.46289687 3.45349225 -0.73254669 1.72626219 0 0 Z " fill="#6F16B4" transform="translate(665,562)"/>
<path d="M0 0 C0.66 0 1.32 0 2 0 C2.38063221 2.3260857 2.71269945 4.66055264 3 7 C2 8 2 8 0.15234375 8.09765625 C-1.8984375 8.06510417 -3.94921875 8.03255208 -6 8 C-4.68 7.67 -3.36 7.34 -2 7 C-2 6.34 -2 5.68 -2 5 C-1.01 5 -0.02 5 1 5 C0.67 3.35 0.34 1.7 0 0 Z " fill="#4712A4" transform="translate(544,664)"/>
<path d="M0 0 C2.73704754 2.73704754 3.16182449 5.26044774 4 9 C3.625 11.4375 3.625 11.4375 3 13 C3 12.34 3 11.68 3 11 C2.34 11 1.68 11 1 11 C-0.28317892 7.15046324 -0.06643637 4.05261865 0 0 Z " fill="#E4C1F2" transform="translate(294,571)"/>
<path d="M0 0 C0 0.99 0 1.98 0 3 C-8.57142857 2.14285714 -8.57142857 2.14285714 -12 0 C-7.74433453 -1.16063604 -4.3164922 -0.76173392 0 0 Z " fill="#C8A0E0" transform="translate(468,735)"/>
<path d="M0 0 C7.38461538 1.35384615 7.38461538 1.35384615 10.5 4.625 C10.995 5.40875 11.49 6.1925 12 7 C8.80862651 6.36747553 6.48762632 5.24396936 3.75 3.5 C3.04359375 3.0565625 2.3371875 2.613125 1.609375 2.15625 C1.07828125 1.7746875 0.5471875 1.393125 0 1 C0 0.67 0 0.34 0 0 Z " fill="#832DC6" transform="translate(428,650)"/>
<path d="M0 0 C0.99 0.33 1.98 0.66 3 1 C2.38125 1.0825 1.7625 1.165 1.125 1.25 C-1.16150356 1.78035516 -1.16150356 1.78035516 -1.9375 3.875 C-3.35844081 6.71688163 -5.24119033 7.54799491 -8 9 C-6.29220059 5.01513471 -3.92814393 1.96407197 0 0 Z " fill="#DAA0EF" transform="translate(403,537)"/>
<path d="M0 0 C0.99 0 1.98 0 3 0 C2.40380045 4.86896303 1.43023178 9.32790951 0 14 C-1.03115279 10.73086376 -0.9638984 8.13958652 -0.5625 4.75 C-0.46066406 3.85796875 -0.35882813 2.9659375 -0.25390625 2.046875 C-0.17011719 1.37140625 -0.08632813 0.6959375 0 0 Z " fill="#DFBCEE" transform="translate(358,462)"/>
<path d="M0 0 C0.33 0 0.66 0 1 0 C1 4.62 1 9.24 1 14 C0.01 14.33 -0.98 14.66 -2 15 C-2 12.69 -2 10.38 -2 8 C-1.34 8 -0.68 8 0 8 C0 5.36 0 2.72 0 0 Z " fill="#EDCCFC" transform="translate(564,670)"/>
<path d="M0 0 C0.66 0.33 1.32 0.66 2 1 C-0.475 4.465 -0.475 4.465 -3 8 C-4.32 7.67 -5.64 7.34 -7 7 C-4.66666667 4.66666667 -2.33333333 2.33333333 0 0 Z " fill="#CD93E5" transform="translate(396,541)"/>
<path d="M0 0 C1 2 1 2 0.22265625 4.3828125 C-0.16019531 5.28773438 -0.54304688 6.19265625 -0.9375 7.125 C-1.31777344 8.03507812 -1.69804687 8.94515625 -2.08984375 9.8828125 C-2.39019531 10.58148438 -2.69054687 11.28015625 -3 12 C-3.94314127 8.58389775 -4.08065117 5.54865136 -4 2 C-2.68 1.34 -1.36 0.68 0 0 Z " fill="#C678EC" transform="translate(480,491)"/>
<path d="M0 0 C0.61875 0.33 1.2375 0.66 1.875 1 C3.91018344 2.14193235 3.91018344 2.14193235 6 2 C7.32 4.31 8.64 6.62 10 9 C6.04322598 7.32598022 3.15535787 4.86850715 0 2 C0 1.34 0 0.68 0 0 Z " fill="#DB9F3E" transform="translate(634,351)"/>
<path d="M0 0 C0.33 0 0.66 0 1 0 C1.25 2.75 1.25 2.75 1 6 C-1 8.375 -1 8.375 -3 10 C-4 7 -4 7 -3.22265625 5.17578125 C-2.1484375 3.45052083 -1.07421875 1.72526042 0 0 Z " fill="#DB971E" transform="translate(720,335)"/>
<path d="M0 0 C0.99 0.99 1.98 1.98 3 3 C-1.29 2.67 -5.58 2.34 -10 2 C-3.6 -1.2 -3.6 -1.2 0 0 Z " fill="#3C1463" transform="translate(548,737)"/>
<path d="M0 0 C-0.66 1.32 -1.32 2.64 -2 4 C0.475 4.99 0.475 4.99 3 6 C3 6.33 3 6.66 3 7 C-3.75 6.25 -3.75 6.25 -6 4 C-2.25 0 -2.25 0 0 0 Z " fill="#340D5F" transform="translate(561,731)"/>
<path d="M0 0 C0.66 0 1.32 0 2 0 C0.44499019 3.81684226 -2.03595495 6.19195732 -5 9 C-5.66 8.67 -6.32 8.34 -7 8 C-5.88200014 6.66079162 -4.75538103 5.32877444 -3.625 4 C-2.68527344 2.88625 -2.68527344 2.88625 -1.7265625 1.75 C-1.15679688 1.1725 -0.58703125 0.595 0 0 Z " fill="#1D053B" transform="translate(677,672)"/>
<path d="M0 0 C0 3.3 0 6.6 0 10 C-0.33 10 -0.66 10 -1 10 C-1.33 7.69 -1.66 5.38 -2 3 C-3.98 3 -5.96 3 -8 3 C-5.22569089 1.15046059 -3.35957737 0 0 0 Z " fill="#D49EEC" transform="translate(566,667)"/>
<path d="M0 0 C2.875 1.0625 2.875 1.0625 6 3 C7.375 6.6875 7.375 6.6875 8 10 C6.33333333 8.33333333 4.66666667 6.66666667 3 5 C2.401875 4.443125 1.80375 3.88625 1.1875 3.3125 C0 2 0 2 0 0 Z " fill="#953AD9" transform="translate(388,614)"/>
<path d="M0 0 C0.66 0.66 1.32 1.32 2 2 C0.02 4.31 -1.96 6.62 -4 9 C-4 5.00095031 -2.27413033 3.19799578 0 0 Z " fill="#8530C0" transform="translate(645,604)"/>
<path d="M0 0 C2.88575819 0.39803561 3.82189513 0.79009069 5.75 3.0625 C6.1625 3.701875 6.575 4.34125 7 5 C6.67 5.66 6.34 6.32 6 7 C3.95880212 5.38405168 1.95927063 3.7143618 0 2 C0 1.34 0 0.68 0 0 Z " fill="#D393EC" transform="translate(441,546)"/>
<path d="M0 0 C0.99 0 1.98 0 3 0 C5.80255323 2.9063515 6 3.78825048 6 8 C5.34 8 4.68 8 4 8 C3.67 7.01 3.34 6.02 3 5 C2.34 4.34 1.68 3.68 1 3 C0.67 2.01 0.34 1.02 0 0 Z " fill="#E4BBF2" transform="translate(388,368)"/>
<path d="M0 0 C1.98 0 3.96 0 6 0 C3.3401439 3.44216672 0.09711714 3.99504674 -4 5 C-3.67 4.01 -3.34 3.02 -3 2 C-2.01 2 -1.02 2 0 2 C0 1.34 0 0.68 0 0 Z " fill="#D18627" transform="translate(697,360)"/>
<path d="M0 0 C0.66 0.33 1.32 0.66 2 1 C2.125 4.375 2.125 4.375 2 8 C1.34 8.66 0.68 9.32 0 10 C0 8.35 0 6.7 0 5 C-0.66 4.67 -1.32 4.34 -2 4 C-1.34 4 -0.68 4 0 4 C0 2.68 0 1.36 0 0 Z " fill="#7214B2" transform="translate(672,508)"/>
<path d="M0 0 C0.66 0.66 1.32 1.32 2 2 C4.06874034 2.6425235 4.06874034 2.6425235 6 3 C6 3.66 6 4.32 6 5 C2.7 4.34 -0.6 3.68 -4 3 C-2.68 2.01 -1.36 1.02 0 0 Z " fill="#DE9835" transform="translate(655,362)"/>
<path d="M0 0 C2.875 0.25 2.875 0.25 6 1 C7.375 3.0625 7.375 3.0625 8 5 C4.62496331 3.8141763 2.35277269 2.72426311 0 0 Z " fill="#C196E3" transform="translate(389,705)"/>
<path d="M0 0 C0.66 0.33 1.32 0.66 2 1 C0.15794162 3.54379491 -1.72478134 5.83312509 -4 8 C-4.33 6.68 -4.66 5.36 -5 4 C-3.35 2.68 -1.7 1.36 0 0 Z " fill="#280554" transform="translate(672,676)"/>
<path d="M0 0 C0.33 0 0.66 0 1 0 C1 3.96 1 7.92 1 12 C0.01 12 -0.98 12 -2 12 C-1.34 8.04 -0.68 4.08 0 0 Z " fill="#CCA6E2" transform="translate(286,483)"/>
<path d="M0 0 C0.33 0.99 0.66 1.98 1 3 C-2.465 4.485 -2.465 4.485 -6 6 C-4.95125002 3.37812506 -4.35068687 2.20628639 -1.875 0.75 C-1.25625 0.5025 -0.6375 0.255 0 0 Z " fill="#732BB4" transform="translate(569,724)"/>
<path d="M0 0 C0.99 0.33 1.98 0.66 3 1 C1.63016497 4.16115776 1.0109362 4.9927092 -2 7 C-2 3.89448334 -1.4606285 2.64738916 0 0 Z " fill="#DEC7EB" transform="translate(544,722)"/>
<path d="M0 0 C0.33 0 0.66 0 1 0 C1 2.97 1 5.94 1 9 C0.01 8.01 -0.98 7.02 -2 6 C-1.34 4.02 -0.68 2.04 0 0 Z " fill="#C777F1" transform="translate(450,607)"/>
<path d="M0 0 C0.33 0.66 0.66 1.32 1 2 C-0.98 4.97 -0.98 4.97 -3 8 C-3.75 6.25 -3.75 6.25 -4 4 C-2.0625 1.75 -2.0625 1.75 0 0 Z " fill="#ECC7F6" transform="translate(316,397)"/>
<path d="M0 0 C0.75 1.75 0.75 1.75 1 4 C-0.9375 6.25 -0.9375 6.25 -3 8 C-3 4.42424104 -1.91159393 2.94704065 0 0 Z " fill="#E0B9ED" transform="translate(319,390)"/>
<path d="M0 0 C1.98 0 3.96 0 6 0 C6 0.33 6 0.66 6 1 C4.02 1 2.04 1 0 1 C0 0.67 0 0.34 0 0 Z " fill="#C4A4DC" transform="translate(480,742)"/>
<path d="M0 0 C4 1 4 1 4 1 Z " fill="#A47FB9" transform="translate(523,743)"/>
<path d="M0 0 C0.66 0 1.32 0 2 0 C1.67 0.99 1.34 1.98 1 3 C0.67 2.01 0.34 1.02 0 0 Z " fill="#BF98DF" transform="translate(401,715)"/>
<path d="M0 0 C3 1 3 1 3 1 Z " fill="#996FB0" transform="translate(531,743)"/>
<path d="M0 0 C3 1 3 1 3 1 Z " fill="#C3A1DD" transform="translate(464,739)"/>
<path d="M0 0 C0.66 0.66 1.32 1.32 2 2 C1.34 2 0.68 2 0 2 C0 1.34 0 0.68 0 0 Z " fill="#BC97DE" transform="translate(370,693)"/>
<path d="" fill="#D0B2EB" transform="translate(0,0)"/>
<path d="M0 0 C3 1 3 1 3 1 Z " fill="#853791" transform="translate(707,400)"/>
<path d="" fill="#8E4287" transform="translate(0,0)"/>
<path d="M0 0 C3 1 3 1 3 1 Z " fill="#DBB9EC" transform="translate(344,360)"/>
<path d="M0 0 C3 1 3 1 3 1 Z " fill="#DAB9E9" transform="translate(359,355)"/>
<path d="M0 0 C3 1 3 1 3 1 Z " fill="#E9C549" transform="translate(685,264)"/>
<path d="M0 0 C2 1 2 1 2 1 Z " fill="#C7A7DC" transform="translate(493,743)"/>
<path d="M0 0 C2 1 2 1 2 1 Z " fill="#C3A2DE" transform="translate(469,740)"/>
<path d="M0 0 C2 1 2 1 2 1 Z " fill="#C3A0E1" transform="translate(442,733)"/>
<path d="" fill="#B468DA" transform="translate(0,0)"/>
<path d="M0 0 C2 1 2 1 2 1 Z " fill="#CAA9E4" transform="translate(307,617)"/>
<path d="M0 0 C2 1 2 1 2 1 Z " fill="#CBA9E5" transform="translate(305,612)"/>
<path d="" fill="#CBA9E5" transform="translate(0,0)"/>
<path d="" fill="#481D77" transform="translate(0,0)"/>
<path d="M0 0 C2 1 2 1 2 1 Z " fill="#D1B2EA" transform="translate(289,569)"/>
<path d="" fill="#D6A2EF" transform="translate(0,0)"/>
<path d="M0 0 C2 1 2 1 2 1 Z " fill="#E1B3F6" transform="translate(401,536)"/>
<path d="M0 0 C2 1 2 1 2 1 Z " fill="#E0B4F4" transform="translate(411,533)"/>
<path d="" fill="#D9BCEE" transform="translate(0,0)"/>
<path d="" fill="#7522AC" transform="translate(0,0)"/>
<path d="" fill="#E2C5F3" transform="translate(0,0)"/>
<path d="" fill="#8240CA" transform="translate(0,0)"/>
<path d="" fill="#792AAD" transform="translate(0,0)"/>
<path d="" fill="#7D42CA" transform="translate(0,0)"/>
<path d="" fill="#85369E" transform="translate(0,0)"/>
<path d="M0 0 C2 1 2 1 2 1 Z " fill="#DAB8EA" transform="translate(367,355)"/>
<path d="M0 0 C2 1 2 1 2 1 Z " fill="#DAB9EA" transform="translate(364,355)"/>
<path d="" fill="#DEAA4F" transform="translate(0,0)"/>
<path d="" fill="#EECC56" transform="translate(0,0)"/>
<path d="M0 0 C2 1 2 1 2 1 Z " fill="#F0D055" transform="translate(658,264)"/>
<path d="" fill="#616162" transform="translate(0,0)"/>
<path d="" fill="#C1A6DD" transform="translate(0,0)"/>
<path d="" fill="#7B5094" transform="translate(0,0)"/>
<path d="" fill="#C4A3E0" transform="translate(0,0)"/>
<path d="" fill="#532775" transform="translate(0,0)"/>
<path d="" fill="#C19EDF" transform="translate(0,0)"/>
<path d="" fill="#52296D" transform="translate(0,0)"/>
<path d="" fill="#C39EDF" transform="translate(0,0)"/>
<path d="" fill="#C3A2E2" transform="translate(0,0)"/>
<path d="" fill="#4A2669" transform="translate(0,0)"/>
<path d="" fill="#C19AE0" transform="translate(0,0)"/>
<path d="" fill="#472364" transform="translate(0,0)"/>
<path d="" fill="#C39EE3" transform="translate(0,0)"/>
<path d="" fill="#BD99E0" transform="translate(0,0)"/>
<path d="" fill="#BF9ADF" transform="translate(0,0)"/>
<path d="" fill="#BD96DF" transform="translate(0,0)"/>
<path d="" fill="#C097E1" transform="translate(0,0)"/>
<path d="" fill="#C096DF" transform="translate(0,0)"/>
<path d="" fill="#401A67" transform="translate(0,0)"/>
<path d="" fill="#BD97DF" transform="translate(0,0)"/>
<path d="" fill="#BE98E1" transform="translate(0,0)"/>
<path d="" fill="#BA94DD" transform="translate(0,0)"/>
<path d="" fill="#401A65" transform="translate(0,0)"/>
<path d="" fill="#C19EDE" transform="translate(0,0)"/>
<path d="" fill="#C09DDE" transform="translate(0,0)"/>
<path d="" fill="#C29CDE" transform="translate(0,0)"/>
<path d="" fill="#9751C6" transform="translate(0,0)"/>
<path d="" fill="#9D57C5" transform="translate(0,0)"/>
<path d="" fill="#411C67" transform="translate(0,0)"/>
<path d="" fill="#421A6A" transform="translate(0,0)"/>
<path d="" fill="#441B6F" transform="translate(0,0)"/>
<path d="" fill="#431B6D" transform="translate(0,0)"/>
<path d="" fill="#C6A5E4" transform="translate(0,0)"/>
<path d="" fill="#C7A6E2" transform="translate(0,0)"/>
<path d="" fill="#431770" transform="translate(0,0)"/>
<path d="" fill="#CAAAE4" transform="translate(0,0)"/>
<path d="" fill="#C7A7E2" transform="translate(0,0)"/>
<path d="" fill="#893BC4" transform="translate(0,0)"/>
<path d="" fill="#8A3BC2" transform="translate(0,0)"/>
<path d="" fill="#8C3CC5" transform="translate(0,0)"/>
<path d="" fill="#893BC7" transform="translate(0,0)"/>
<path d="" fill="#8A3CC6" transform="translate(0,0)"/>
<path d="" fill="#CDACE7" transform="translate(0,0)"/>
<path d="" fill="#8333B5" transform="translate(0,0)"/>
<path d="" fill="#893EC7" transform="translate(0,0)"/>
<path d="" fill="#4A1D7A" transform="translate(0,0)"/>
<path d="" fill="#D0B1E8" transform="translate(0,0)"/>
<path d="" fill="#8C3FC9" transform="translate(0,0)"/>
<path d="" fill="#D1B4EB" transform="translate(0,0)"/>
<path d="" fill="#D4B4EB" transform="translate(0,0)"/>
<path d="" fill="#BA70E2" transform="translate(0,0)"/>
<path d="" fill="#8D41CB" transform="translate(0,0)"/>
<path d="" fill="#D1B0EC" transform="translate(0,0)"/>
<path d="" fill="#D2B3ED" transform="translate(0,0)"/>
<path d="" fill="#883FCB" transform="translate(0,0)"/>
<path d="" fill="#D4B4EA" transform="translate(0,0)"/>
<path d="" fill="#DAAEF3" transform="translate(0,0)"/>
<path d="" fill="#DBA5EF" transform="translate(0,0)"/>
<path d="" fill="#DCB1F1" transform="translate(0,0)"/>
<path d="" fill="#8635BF" transform="translate(0,0)"/>
<path d="" fill="#DFAAF6" transform="translate(0,0)"/>
<path d="" fill="#E1AEF5" transform="translate(0,0)"/>
<path d="" fill="#DFB0F5" transform="translate(0,0)"/>
<path d="" fill="#DFB0F2" transform="translate(0,0)"/>
<path d="" fill="#562087" transform="translate(0,0)"/>
<path d="" fill="#D7BAEC" transform="translate(0,0)"/>
<path d="" fill="#6F21A9" transform="translate(0,0)"/>
<path d="" fill="#D7B9EE" transform="translate(0,0)"/>
<path d="" fill="#572087" transform="translate(0,0)"/>
<path d="" fill="#E2BDF6" transform="translate(0,0)"/>
<path d="" fill="#57248A" transform="translate(0,0)"/>
<path d="" fill="#D9BAEC" transform="translate(0,0)"/>
<path d="" fill="#E1B0F4" transform="translate(0,0)"/>
<path d="" fill="#E4B6F5" transform="translate(0,0)"/>
<path d="" fill="#E0B3F3" transform="translate(0,0)"/>
<path d="" fill="#E1BCF2" transform="translate(0,0)"/>
<path d="" fill="#D9B8EE" transform="translate(0,0)"/>
<path d="" fill="#D7BAED" transform="translate(0,0)"/>
<path d="" fill="#D9BBEE" transform="translate(0,0)"/>
<path d="" fill="#DABAEE" transform="translate(0,0)"/>
<path d="" fill="#DCBDF0" transform="translate(0,0)"/>
<path d="" fill="#DBBEF0" transform="translate(0,0)"/>
<path d="" fill="#7321AF" transform="translate(0,0)"/>
<path d="" fill="#9E53D7" transform="translate(0,0)"/>
<path d="" fill="#DCBDEE" transform="translate(0,0)"/>
<path d="" fill="#E8CAF7" transform="translate(0,0)"/>
<path d="" fill="#C586E6" transform="translate(0,0)"/>
<path d="" fill="#8541CC" transform="translate(0,0)"/>
<path d="" fill="#7423AA" transform="translate(0,0)"/>
<path d="" fill="#7A30BE" transform="translate(0,0)"/>
<path d="" fill="#E9CBF5" transform="translate(0,0)"/>
<path d="" fill="#A35ED6" transform="translate(0,0)"/>
<path d="" fill="#DEBFF1" transform="translate(0,0)"/>
<path d="" fill="#672595" transform="translate(0,0)"/>
<path d="" fill="#A760D7" transform="translate(0,0)"/>
<path d="" fill="#7721AB" transform="translate(0,0)"/>
<path d="" fill="#C181E5" transform="translate(0,0)"/>
<path d="" fill="#DDBFF0" transform="translate(0,0)"/>
<path d="" fill="#DFC4F1" transform="translate(0,0)"/>
<path d="" fill="#7623AC" transform="translate(0,0)"/>
<path d="" fill="#BD7BE3" transform="translate(0,0)"/>
<path d="" fill="#B977DD" transform="translate(0,0)"/>
<path d="" fill="#ECCDF8" transform="translate(0,0)"/>
<path d="" fill="#E3BFF2" transform="translate(0,0)"/>
<path d="" fill="#E3C1F2" transform="translate(0,0)"/>
<path d="" fill="#8444CC" transform="translate(0,0)"/>
<path d="" fill="#E1BFEF" transform="translate(0,0)"/>
<path d="" fill="#E2C5F1" transform="translate(0,0)"/>
<path d="" fill="#EDD0F6" transform="translate(0,0)"/>
<path d="" fill="#E4C3F2" transform="translate(0,0)"/>
<path d="" fill="#E1C5F1" transform="translate(0,0)"/>
<path d="" fill="#7B3199" transform="translate(0,0)"/>
<path d="" fill="#EACBF6" transform="translate(0,0)"/>
<path d="" fill="#7A2E98" transform="translate(0,0)"/>
<path d="" fill="#7D328F" transform="translate(0,0)"/>
<path d="" fill="#7F44C0" transform="translate(0,0)"/>
<path d="" fill="#7F3393" transform="translate(0,0)"/>
<path d="" fill="#E5C2F4" transform="translate(0,0)"/>
<path d="" fill="#E2C4F1" transform="translate(0,0)"/>
<path d="" fill="#83358F" transform="translate(0,0)"/>
<path d="" fill="#7F47BF" transform="translate(0,0)"/>
<path d="" fill="#E4C3EE" transform="translate(0,0)"/>
<path d="" fill="#853791" transform="translate(0,0)"/>
<path d="" fill="#8049BD" transform="translate(0,0)"/>
<path d="" fill="#E3C5F2" transform="translate(0,0)"/>
<path d="" fill="#8149B9" transform="translate(0,0)"/>
<path d="" fill="#E2BFF1" transform="translate(0,0)"/>
<path d="" fill="#91488A" transform="translate(0,0)"/>
<path d="" fill="#E2C0F2" transform="translate(0,0)"/>
<path d="" fill="#8E3D8D" transform="translate(0,0)"/>
<path d="" fill="#DEBAEE" transform="translate(0,0)"/>
<path d="" fill="#DEBFEC" transform="translate(0,0)"/>
<path d="" fill="#CA884B" transform="translate(0,0)"/>
<path d="" fill="#DBBDEA" transform="translate(0,0)"/>
<path d="" fill="#CB8B3D" transform="translate(0,0)"/>
<path d="" fill="#C7863D" transform="translate(0,0)"/>
<path d="" fill="#D7B1E9" transform="translate(0,0)"/>
<path d="" fill="#D8A556" transform="translate(0,0)"/>
<path d="" fill="#DCA64F" transform="translate(0,0)"/>
<path d="" fill="#DBB9E9" transform="translate(0,0)"/>
<path d="" fill="#DDA84E" transform="translate(0,0)"/>
<path d="" fill="#D3972D" transform="translate(0,0)"/>
<path d="" fill="#D7992B" transform="translate(0,0)"/>
<path d="" fill="#E7C457" transform="translate(0,0)"/>
<path d="" fill="#E9C354" transform="translate(0,0)"/>
<path d="" fill="#E1AD30" transform="translate(0,0)"/>
<path d="" fill="#EFCD56" transform="translate(0,0)"/>
</svg>
