<?xml version="1.0" encoding="UTF-8"?>
<svg version="1.1" xmlns="http://www.w3.org/2000/svg" width="984" height="247">
<path d="M0 0 C1.82371124 -0.00262848 1.82371124 -0.00262848 3.68426514 -0.00531006 C6.99417051 -0.00893814 10.30401275 -0.00811442 13.61391449 -0.00493097 C17.09303364 -0.00238281 20.57215026 -0.00475172 24.05126953 -0.00631714 C29.89160643 -0.0081317 35.73193065 -0.00575129 41.57226562 -0.00097656 C48.30522999 0.00446468 55.03816407 0.00270152 61.7711277 -0.00280297 C67.57267832 -0.00735447 73.37421988 -0.0079747 79.17577171 -0.0053643 C82.63169221 -0.00381271 86.08759851 -0.0035769 89.54351807 -0.00690079 C93.3988155 -0.01035041 97.25407955 -0.00555656 101.109375 0 C102.80691925 -0.00303635 102.80691925 -0.00303635 104.53875732 -0.00613403 C121.46420337 0.0389104 121.46420337 0.0389104 124.4921875 3.06689453 C125.69702919 6.53967351 126.31391815 9.96503648 126.97265625 13.57470703 C128.75330462 21.39043878 133.43271485 28.25129164 139.98828125 32.82861328 C146.32984833 36.7202436 151.43657467 39.35446164 158.9921875 39.43798828 C160.21679688 39.463125 161.44140625 39.48826172 162.703125 39.51416016 C165.27078283 39.54931571 167.8384971 39.58056593 170.40625 39.60791016 C171.63085938 39.63433594 172.85546875 39.66076172 174.1171875 39.68798828 C175.78974609 39.70817017 175.78974609 39.70817017 177.49609375 39.72875977 C181.87006506 40.30169135 184.47536138 42.05006841 187.5546875 45.12939453 C189.03792263 52.76148414 188.71158665 60.57157952 188.6796875 68.31689453 C188.67747192 69.02238434 188.67525635 69.72787415 188.67297363 70.45474243 C188.65495693 75.34662329 188.61103668 80.23780631 188.5546875 85.12939453 C188.54211914 86.27150391 188.52955078 87.41361328 188.51660156 88.59033203 C188.47214845 91.50065028 188.39715856 94.40775497 188.3046875 97.31689453 C188.29066895 98.1518042 188.27665039 98.98671387 188.26220703 99.84692383 C188.22981934 100.61431885 188.19743164 101.38171387 188.1640625 102.17236328 C188.14311523 102.82229248 188.12216797 103.47222168 188.10058594 104.1418457 C186.93460781 108.38702813 184.31143222 110.69736842 180.58129883 112.8269043 C179.4445874 113.31989014 178.30787598 113.81287598 177.13671875 114.32080078 C176.5200383 114.59278793 175.90335785 114.86477509 175.26799011 115.14500427 C173.30635638 116.00676611 171.33724188 116.84958813 169.3671875 117.69189453 C168.06390757 118.26030676 166.76116738 118.8299582 165.45898438 119.40087891 C162.95259712 120.49814155 160.44224001 121.58538244 157.92822266 122.66503906 C154.45066736 124.17454671 151.01004576 125.75063023 147.58862305 127.38305664 C145.5546875 128.12939453 145.5546875 128.12939453 139.5546875 129.12939453 C139.5546875 134.07939453 139.5546875 139.02939453 139.5546875 144.12939453 C143.53473198 142.54823964 147.51373351 140.9645424 151.4921875 139.37939453 C152.60916016 138.93595703 153.72613281 138.49251953 154.87695312 138.03564453 C159.81608627 136.06578498 164.71752529 134.08038957 169.5390625 131.83642578 C172.70814659 130.41031983 175.34044536 129.56112245 178.8671875 129.56689453 C179.66769531 129.54498047 180.46820313 129.52306641 181.29296875 129.50048828 C184.6713311 130.43989474 185.6535868 132.23914436 187.5546875 135.12939453 C188.0693512 138.24491882 188.0693512 138.24491882 188.08813477 141.78051758 C188.09675034 142.42842758 188.10536591 143.07633759 188.11424255 143.74388123 C188.13686235 145.87670374 188.13016817 148.00820685 188.12109375 150.14111328 C188.12633405 151.63459154 188.13261202 153.12806648 188.13987732 154.62153625 C188.1502763 157.7511858 188.14573211 160.88038064 188.13110352 164.01000977 C188.11398315 167.99682546 188.13732755 171.98219073 188.17259312 175.96884441 C188.19469767 179.05497063 188.19309334 182.14075741 188.1848278 185.22693825 C188.18401409 186.6951741 188.19076539 188.16343637 188.20559883 189.63159752 C188.28244829 198.62028973 187.39111035 205.3915024 182.5546875 213.12939453 C182.05123558 214.20509956 182.05123558 214.20509956 181.53761292 215.30253601 C180.12642594 217.92535856 178.12836801 218.69292169 175.5546875 220.12939453 C174.8121875 220.81001953 174.0696875 221.49064453 173.3046875 222.19189453 C165.19442324 227.90594435 153.72830041 226.40617238 144.22827148 226.37231445 C142.47639902 226.37338869 140.72452691 226.37532947 138.97265625 226.37806702 C134.23516441 226.38289556 129.49776742 226.37528468 124.76028705 226.36511397 C119.79259021 226.35630039 114.82489606 226.35809156 109.85719299 226.35847473 C101.51749087 226.35753956 93.17782523 226.34887525 84.83813477 226.33520508 C75.20702555 226.31947602 65.57595626 226.31420726 55.94483513 226.31494063 C45.67414577 226.31561699 35.40347172 226.30867143 25.13278699 226.29949403 C22.18036099 226.29736658 19.22793748 226.29665338 16.27551079 226.29625511 C11.6305814 226.2952478 6.98568529 226.28911946 2.34076691 226.27908897 C0.6396486 226.27617777 -1.06147353 226.2749358 -2.76259422 226.27551651 C-5.09119984 226.27601046 -7.41971353 226.27031985 -9.74830627 226.2631073 C-11.04925012 226.26143146 -12.35019396 226.25975561 -13.69056034 226.25802898 C-23.83542951 225.91047483 -30.4549628 223.34346761 -38.2578125 216.75439453 C-43.61927722 210.32063687 -46.54758441 205.06288914 -46.60353088 196.61314392 C-46.61821411 194.92959557 -46.61821411 194.92959557 -46.63319397 193.21203613 C-46.63894943 191.98456665 -46.6447049 190.75709717 -46.65063477 189.49243164 C-46.66053436 188.1958815 -46.67043396 186.89933136 -46.68063354 185.56349182 C-46.70767685 182.00473492 -46.72870306 178.44596486 -46.74863553 174.88716197 C-46.77058194 171.14574391 -46.79794668 167.4043654 -46.82469177 163.66297913 C-46.86897081 157.36396037 -46.90973223 151.06492718 -46.94799805 144.76586914 C-47.0015772 135.94666665 -47.06131302 127.12751422 -47.12239373 118.30836093 C-47.17000679 111.40366131 -47.2160787 104.4989512 -47.26171875 97.59423828 C-47.2665355 96.86568784 -47.27135226 96.13713739 -47.27631497 95.38650966 C-47.38213767 79.30075275 -47.47703365 63.21557409 -47.4453125 47.12939453 C-47.44462265 45.98977264 -47.4439328 44.85015076 -47.44322205 43.67599487 C-47.41745403 31.09969092 -47.03084494 20.69521615 -38.3984375 10.77783203 C-27.47872147 0.12917278 -14.42823841 -0.02580736 0 0 Z " fill="#08A97A" transform="translate(47.4453125,20.87060546875)"/>
<path d="M0 0 C1.07830078 0.00128906 2.15660156 0.00257812 3.26757812 0.00390625 C4.37423828 0.03613281 5.48089844 0.06835938 6.62109375 0.1015625 C7.73162109 0.09511719 8.84214844 0.08867188 9.98632812 0.08203125 C16.22297958 0.16414156 20.42817917 0.36580601 25.05859375 4.7265625 C26.74766732 7.5329921 27.30763583 9.59248856 27.29910278 12.85211182 C27.30322678 14.07199799 27.30322678 14.07199799 27.30743408 15.31652832 C27.29664825 16.64146301 27.29664825 16.64146301 27.28564453 17.99316406 C27.28593658 18.93009094 27.28622864 19.86701782 27.28652954 20.83233643 C27.28513686 23.92738118 27.26957841 27.02218483 27.25390625 30.1171875 C27.2501759 32.26381295 27.24732903 34.41044011 27.24533081 36.55706787 C27.23769607 42.20581771 27.21804886 47.85446464 27.19592285 53.50317383 C27.17546106 59.26772672 27.16632837 65.03229625 27.15625 70.796875 C27.13480289 82.10681604 27.10066878 93.41668071 27.05859375 104.7265625 C26.14549438 105.11758652 25.23239502 105.50861053 24.29162598 105.91148376 C17.74133126 108.71721565 11.19219285 111.52545403 4.65234375 114.35546875 C3.93220093 114.66688812 3.21205811 114.9783075 2.47009277 115.29916382 C0.16616022 116.29556674 -2.13762486 117.29231011 -4.44140625 118.2890625 C-6.0703071 118.99358345 -7.69921344 119.69809171 -9.328125 120.40258789 C-15.63233365 123.12944714 -21.93626432 125.85694577 -28.23828125 128.58886719 C-28.91441971 128.88196777 -29.59055817 129.17506836 -30.28718567 129.47705078 C-31.60746828 130.04977589 -32.92753069 130.62300892 -34.24736023 131.19677734 C-37.38874772 132.56176531 -40.53327928 133.91806283 -43.68676758 135.25488281 C-48.97921697 137.51057553 -54.17499947 139.78787493 -59.234375 142.53125 C-70.63187295 148.50570859 -80.76383366 149.51958648 -93.44140625 149.4765625 C-94.2226889 149.47459869 -95.00397156 149.47263489 -95.80892944 149.47061157 C-110.56271767 149.34215215 -110.56271767 149.34215215 -114.94140625 145.7265625 C-117.58190901 141.32129168 -118.32743461 138.02127823 -118.37719727 132.91430664 C-118.39231102 131.93499428 -118.39231102 131.93499428 -118.4077301 130.93589783 C-118.43604652 128.79432698 -118.44207764 126.65346471 -118.4453125 124.51171875 C-118.45496351 123.01248391 -118.46505672 121.51325186 -118.47557068 120.01402283 C-118.49349005 116.87785291 -118.49909592 113.74193036 -118.49731445 110.60571289 C-118.49700948 106.59945346 -118.53799432 102.59478795 -118.58963108 98.58890629 C-118.62308721 95.49434715 -118.62906931 92.40016997 -118.62748528 89.30544853 C-118.63101014 87.82911105 -118.6441943 86.35276208 -118.66748238 84.87660408 C-118.85252966 71.93850474 -118.85252966 71.93850474 -115.265625 67.31884766 C-112.35040253 64.63409463 -110.07983587 63.85662867 -106.0625 63.90234375 C-104.97646484 63.90685547 -103.89042969 63.91136719 -102.77148438 63.91601562 C-101.65193359 63.95662109 -100.53238281 63.99722656 -99.37890625 64.0390625 C-97.6937793 64.03616211 -97.6937793 64.03616211 -95.97460938 64.03320312 C-87.86950076 64.17286334 -87.86950076 64.17286334 -83.7265625 66.64453125 C-80.91743925 69.92081723 -80.81179151 71.80135883 -80.78369141 76.04663086 C-80.77342926 77.15795883 -80.76316711 78.2692868 -80.75259399 79.41429138 C-80.74529266 80.61948929 -80.73799133 81.82468719 -80.73046875 83.06640625 C-80.70240687 85.59831383 -80.67374245 88.13021479 -80.64453125 90.66210938 C-80.60319496 94.66951551 -80.56527129 98.67678971 -80.54003906 102.68432617 C-80.51252615 106.54111497 -80.46665922 110.39733464 -80.41796875 114.25390625 C-80.41471588 115.45707993 -80.41146301 116.6602536 -80.40811157 117.89988708 C-80.3915451 119.01436722 -80.37497864 120.12884735 -80.35791016 121.27709961 C-80.34577988 122.75030922 -80.34577988 122.75030922 -80.33340454 124.25328064 C-80.12333401 126.75849049 -80.12333401 126.75849049 -78.63412476 128.57496643 C-76.79979808 130.06707113 -76.79979808 130.06707113 -73.44140625 129.6015625 C-69.3975357 128.6871854 -69.3975357 128.6871854 -66.94140625 125.7265625 C-66.65235044 122.93403691 -66.54506669 120.36344275 -66.57250977 117.57080078 C-66.56874329 116.7395871 -66.56497681 115.90837341 -66.56109619 115.05197144 C-66.55465872 113.24644219 -66.55499845 111.44087906 -66.5612812 109.63534927 C-66.57037547 106.77708489 -66.56018642 103.91947876 -66.54466248 101.06124878 C-66.50451786 92.93488621 -66.50336013 84.80857411 -66.50561523 76.68212891 C-66.50566633 71.71186409 -66.48649964 66.7419535 -66.45628166 61.77178574 C-66.44544774 58.95701059 -66.457593 56.14290914 -66.47010803 53.32815552 C-66.46120323 51.59913465 -66.45112871 49.87011929 -66.43969727 48.14111328 C-66.44944077 47.35963928 -66.45918427 46.57816528 -66.46922302 45.77301025 C-66.42006378 42.04574683 -66.07175804 39.92921554 -64.03526306 36.76315308 C-59.45719799 32.31029645 -53.75589539 33.42643274 -47.69140625 33.3515625 C-46.55832031 33.31417969 -45.42523438 33.27679688 -44.2578125 33.23828125 C-34.87934073 33.13932903 -34.87934073 33.13932903 -31.20703125 36.125 C-27.86153187 39.96655619 -27.80702681 41.85854927 -27.75195312 46.88867188 C-27.7352356 48.18341431 -27.71851807 49.47815674 -27.70129395 50.81213379 C-27.69461197 51.50595657 -27.68792999 52.19977936 -27.68104553 52.91462708 C-27.66003394 55.08293456 -27.63301048 57.25109226 -27.60437012 59.41931152 C-27.53450083 64.8042254 -27.4751235 70.1892462 -27.41534424 75.57427979 C-27.36444124 80.12386879 -27.30962177 84.67337746 -27.24952698 89.22285461 C-27.22291256 91.36220933 -27.2021226 93.50157137 -27.18151855 95.64099121 C-27.16480103 96.93573364 -27.1480835 98.23047607 -27.13085938 99.56445312 C-27.1183313 100.70869751 -27.10580322 101.85294189 -27.09289551 103.03186035 C-27.12165665 105.69631623 -27.12165665 105.69631623 -25.94140625 107.7265625 C-22.43677612 108.25756707 -20.24828512 107.60807957 -17.30627441 105.78733826 C-15.18959995 104.2048942 -14.11967553 103.28567943 -13.311203 100.75001717 C-13.08759579 98.28806036 -13.08987907 95.91276407 -13.16601562 93.44165039 C-13.16648392 92.51421524 -13.16695221 91.58678009 -13.16743469 90.63124084 C-13.17286397 88.62155789 -13.19434816 86.61186822 -13.23005676 84.60249519 C-13.28566841 81.41990848 -13.29765961 78.23978967 -13.29821777 75.05674744 C-13.30865399 67.15364272 -13.39445308 59.25167249 -13.4776001 51.34906006 C-13.5450166 44.66935652 -13.5839886 37.99065947 -13.5851593 31.310606 C-13.59749501 28.17766933 -13.6516831 25.04723196 -13.70739746 21.91481018 C-13.71258954 19.99016762 -13.71582689 18.06551846 -13.71679688 16.14086914 C-13.74361038 15.27262512 -13.77042389 14.4043811 -13.79804993 13.50982666 C-13.76342926 9.9747107 -13.68658032 7.66123346 -11.43612766 4.83849335 C-7.74502171 1.54960029 -5.09183659 -0.03121497 0 0 Z " fill="#F9FCFC" transform="translate(158.94140625,63.2734375)"/>
<path d="M0 0 C2.4375 2.0625 2.4375 2.0625 4 4 C5.3921875 3.0409375 5.3921875 3.0409375 6.8125 2.0625 C11.67758226 -1.08549441 15.68103493 -1.21172326 21.3125 -1.25 C22.05951172 -1.270625 22.80652344 -1.29125 23.57617188 -1.3125 C30.31305385 -1.35981787 34.8364851 0.65283659 39.875 5.1875 C40.47054687 5.71730469 41.06609375 6.24710937 41.6796875 6.79296875 C42.11539063 7.19128906 42.55109375 7.58960937 43 8 C43.51949219 7.51789063 44.03898437 7.03578125 44.57421875 6.5390625 C45.27160156 5.90742187 45.96898437 5.27578125 46.6875 4.625 C47.37199219 3.99851562 48.05648437 3.37203125 48.76171875 2.7265625 C55.82104055 -2.71884803 65.50425153 -1.95460087 74 -1 C80.88271959 0.97041906 86.13157527 6.08912232 90 12 C93.56102448 18.49376554 94.60691572 23.97489616 94.56640625 31.328125 C94.57260483 32.28015808 94.57880341 33.23219116 94.58518982 34.21307373 C94.59224719 36.20974716 94.58918601 38.20647994 94.57641602 40.203125 C94.56247122 43.25630049 94.59677568 46.30645385 94.63476562 49.359375 C94.63571623 51.30729241 94.63386116 53.25521366 94.62890625 55.203125 C94.64216446 56.11153137 94.65542267 57.01993774 94.66908264 57.95587158 C94.60320769 62.43134549 94.45040633 64.40350185 91.67944336 68.07324219 C89 70 89 70 85.5 70.625 C80.99175949 69.81995705 79.77392776 68.61701003 77 65 C76.31457814 62.00571937 76.37238759 59.10329523 76.43359375 56.04296875 C76.42795914 55.18117508 76.42232452 54.31938141 76.41651917 53.43147278 C76.40009486 50.68292598 76.41557376 47.93599017 76.4375 45.1875 C76.45415608 42.44986815 76.46308973 39.71331193 76.44776917 36.97566223 C76.43857401 35.27602258 76.44736711 33.5761539 76.47740173 31.87675476 C76.45156562 26.21842761 75.34261503 21.66203146 72 17 C66.46135912 13.85304496 61.00945418 15.28034791 55.125 16.6875 C52.09433237 18.55938295 51.84159498 20.63362008 51 24 C50.67 24.66 50.34 25.32 50 26 C49.90345873 28.8567609 49.86292354 31.69367031 49.859375 34.55078125 C49.84104569 36.29884114 49.82147526 38.04688838 49.80078125 39.79492188 C49.77181829 42.55352075 49.75000021 45.31130758 49.74951172 48.07006836 C49.74617388 50.73104056 49.71160463 53.39013539 49.671875 56.05078125 C49.6789447 56.87177811 49.6860144 57.69277496 49.69329834 58.53865051 C49.60276068 62.8074457 49.36279071 64.52695911 46.68066406 68.02416992 C44 70 44 70 40.4375 70.5625 C36.51898289 69.92128811 35.37441774 69.10500781 33 66 C31.3350876 62.67017521 31.82068599 58.92897739 31.7890625 55.265625 C31.76098476 53.47655349 31.73232024 51.68749112 31.703125 49.8984375 C31.66192885 47.07650089 31.6250443 44.25473305 31.59863281 41.43261719 C31.57093796 38.70992716 31.52505679 35.98801359 31.4765625 33.265625 C31.47330963 32.42791565 31.47005676 31.5902063 31.46670532 30.72711182 C31.36322469 25.76796745 30.7573858 22.28890065 28 18 C24.45077485 15.38033382 21.74154685 14.77604097 17.4375 15.0625 C13.32977411 15.69871344 10.90346277 16.92056978 8 20 C3.14534525 28.26803289 4.93552889 39.94864865 5.12695312 49.16601562 C5.2913423 64.29948944 5.2913423 64.29948944 1.25 69.0625 C-1.78196409 70.32581837 -3.73994034 70.46572281 -7 70 C-10.33761045 67.84909549 -11.73470933 66.79587201 -13 63 C-13.09803769 61.2014005 -13.13820778 59.39940014 -13.14526367 57.59814453 C-13.15164352 56.49334747 -13.15802338 55.38855042 -13.16459656 54.25027466 C-13.16570938 53.05651215 -13.1668222 51.86274963 -13.16796875 50.6328125 C-13.17129715 49.40593719 -13.17462555 48.17906189 -13.17805481 46.91500854 C-13.1831216 44.31752905 -13.18546321 41.72004303 -13.18530273 39.12255859 C-13.18748736 35.1480028 -13.20564092 31.17372534 -13.22460938 27.19921875 C-13.2275437 24.67708428 -13.22952823 22.1549485 -13.23046875 19.6328125 C-13.23765427 18.44309845 -13.24483978 17.2533844 -13.25224304 16.02761841 C-13.24916641 14.91651703 -13.24608978 13.80541565 -13.24291992 12.66064453 C-13.24434494 11.68596222 -13.24576996 10.71127991 -13.24723816 9.70706177 C-12.89515663 5.85204825 -11.90924183 3.0102687 -9.3125 0.125 C-5.86094445 -1.55413513 -3.64896864 -0.97740231 0 0 Z " fill="#089D74" transform="translate(304,108)"/>
<path d="M0 0 C0.92143799 0.00515625 1.84287598 0.0103125 2.79223633 0.015625 C9.77858553 0.20385953 14.71739164 1.67501701 20.5625 5.5625 C21.2225 5.5625 21.8825 5.5625 22.5625 5.5625 C23.284375 4.7375 24.00625 3.9125 24.75 3.0625 C27.5625 0.5625 27.5625 0.5625 31.0625 0 C35.255145 0.67381795 36.68233108 1.45558411 39.5625 4.5625 C40.12728588 7.67350286 40.35420657 10.25063818 40.375 13.375 C40.39868652 14.27138184 40.42237305 15.16776367 40.44677734 16.09130859 C40.51698754 19.24865589 40.5421895 22.40444298 40.5625 25.5625 C40.57619629 26.8304541 40.58989258 28.0984082 40.60400391 29.40478516 C40.98339428 65.30667853 40.98339428 65.30667853 38.41992188 69.37646484 C35.63320641 72.07598071 33.70905214 72.5625 29.875 72.5625 C25.35452279 71.19782764 25.35452279 71.19782764 23.5625 68.5625 C23.5625 67.9025 23.5625 67.2425 23.5625 66.5625 C20.34285385 67.19054757 18.19598311 68.38982514 15.4375 70.125 C7.31365121 74.27129671 -2.7907208 73.83551446 -11.5390625 71.86328125 C-21.46034717 68.22342914 -28.91755545 61.46027953 -33.6953125 52.09765625 C-37.71572403 42.52457844 -37.97974227 31.69736171 -34.54296875 21.87109375 C-30.07800961 12.54674445 -22.37492064 5.44640608 -12.96582031 1.39819336 C-8.65922153 -0.02527976 -4.50238806 -0.07205786 0 0 Z M-15.4375 23.5625 C-19.57053589 29.76205383 -20.44914101 35.4393272 -19.01171875 42.71875 C-17.30997774 48.14761702 -14.19891221 51.51130932 -9.4375 54.5625 C-3.04238023 57.62421584 3.55650089 57.36409976 10.3125 55.5625 C15.79353521 52.18955526 19.48638042 48.02860737 22.0625 42.125 C23.08745283 34.82221107 22.18926451 29.39616777 17.94921875 23.28515625 C14.49075626 18.98886904 10.90601178 16.81979689 5.5625 15.5625 C-3.12520669 14.86187849 -9.70221995 16.68016395 -15.4375 23.5625 Z " fill="#E5E6E9" transform="translate(700.4375,106.4375)"/>
<path d="M0 0 C7.91807081 6.92993718 12.40165143 15.17469462 13.10546875 25.69921875 C12.95118091 29.06497934 11.91510371 31.26413755 10 34 C6.75715221 36.16189853 5.89903779 36.24626755 2.16137695 36.22705078 C0.69019157 36.22682419 0.69019157 36.22682419 -0.81071472 36.22659302 C-1.86704605 36.21627045 -2.92337738 36.20594788 -4.01171875 36.1953125 C-5.09508011 36.1924826 -6.17844147 36.18965271 -7.29463196 36.18673706 C-10.75903308 36.17553091 -14.22317685 36.15042534 -17.6875 36.125 C-20.03450148 36.11497077 -22.381507 36.10584482 -24.72851562 36.09765625 C-30.48576507 36.07559016 -36.24286415 36.04210827 -42 36 C-41.40026134 37.28776851 -40.79015936 38.57071367 -40.17578125 39.8515625 C-39.83716064 40.56650879 -39.49854004 41.28145508 -39.1496582 42.01806641 C-36.72021495 46.20626355 -32.94222962 47.65737105 -28.5625 49.25 C-19.67894142 51.12022286 -12.06844163 49.06498682 -4.3515625 44.3984375 C-1.23850411 42.54715028 0.43828966 42.33217931 4 43 C7.19212377 45.85253613 8.85357225 47.62357912 9.3125 51.9375 C6.68583656 58.06638137 1.3301356 61.71926875 -4.625 64.4375 C-10.36197828 66.29618441 -16.08251712 66.42067268 -22.0625 66.5 C-22.98434082 66.51861084 -23.90618164 66.53722168 -24.85595703 66.55639648 C-35.49328377 66.4588324 -43.0889841 62.79218838 -50.73046875 55.51171875 C-59.89716877 45.36681666 -60.57080501 36.12865311 -60.12744141 23.08886719 C-59.62818187 14.90560174 -55.63768387 8.77441874 -50 3 C-35.67224472 -8.9020119 -15.68439081 -10.98598299 0 0 Z M-39.3671875 15.66796875 C-40.62878416 17.44431822 -40.62878416 17.44431822 -42 20 C-38.27459338 22.48360441 -36.36937027 22.2315867 -31.92578125 22.1953125 C-31.2419487 22.1924826 -30.55811615 22.18965271 -29.8535614 22.18673706 C-27.67302835 22.17555684 -25.49290855 22.15045691 -23.3125 22.125 C-21.83268823 22.11496738 -20.35287001 22.10584202 -18.87304688 22.09765625 C-15.248564 22.07562481 -11.62432234 22.04111002 -8 22 C-7.34 20.68 -6.68 19.36 -6 18 C-8.77125813 13.2035917 -10.87590081 11.08014027 -16 9 C-25.13651702 7.72809508 -33.2613045 8.21879149 -39.3671875 15.66796875 Z " fill="#EBECEE" transform="translate(971,113)"/>
<path d="M0 0 C4.10339652 4.20678919 6.50341728 8.60694565 8.875 13.9375 C9.56509055 15.44662081 10.255195 16.95573526 10.9453125 18.46484375 C11.28723633 19.2213623 11.62916016 19.97788086 11.98144531 20.75732422 C13.24861723 23.5474108 14.54963089 26.32079645 15.85375977 29.09375 C18.64456663 35.02963124 21.36535772 40.99301559 24 47 C29.0574084 37.90493312 33.61813459 28.69114496 37.76538086 19.14355469 C44.77000782 3.15420562 44.77000782 3.15420562 50 0 C54.21079371 0 56.27012317 0.3796047 59.5 3.125 C61.48827212 6.9358549 60.86900919 8.83012224 60 13 C58.71582031 16.19604492 58.71582031 16.19604492 57.078125 19.48046875 C56.78182693 20.08276306 56.48552887 20.68505737 56.18025208 21.30560303 C55.54324347 22.59821948 54.9019075 23.88871091 54.25662231 25.17721558 C52.53059148 28.62420145 50.83600858 32.08665094 49.13671875 35.546875 C48.78939194 36.2518663 48.44206512 36.9568576 48.08421326 37.68321228 C44.62769623 44.71521437 41.33572178 51.818791 38.0625 58.9375 C31.09198904 74.02922949 31.09198904 74.02922949 27.4375 81.4375 C26.85871094 82.61183594 26.27992188 83.78617187 25.68359375 84.99609375 C22.21205015 91.19010078 18.75686873 94.73205253 12 97 C8.74697963 97.54250871 5.60490115 97.60667586 2.3125 97.5625 C1.07016602 97.59827148 1.07016602 97.59827148 -0.19726562 97.63476562 C-4.60214626 97.62418545 -6.45587372 97.41925627 -10.046875 94.65234375 C-12 92 -12 92 -12.5625 89 C-11.84953965 85.19754481 -10.77867476 83.68961467 -8 81 C-4.43359375 80.328125 -4.43359375 80.328125 -0.4375 80.25 C4.85437476 80.16485049 4.85437476 80.16485049 10 79 C11.2839721 77.12330448 11.2839721 77.12330448 12.25 74.8125 C12.78367187 73.67748047 12.78367187 73.67748047 13.328125 72.51953125 C14.76169008 67.14366221 12.51700179 62.49404428 10.2265625 57.66015625 C9.94662949 57.06460938 9.66669647 56.4690625 9.37828064 55.85546875 C8.77800448 54.58127341 8.17428557 53.30869517 7.56741333 52.03762817 C6.61506122 50.0416701 5.67351607 48.04090821 4.73413086 46.03881836 C1.75611151 39.70854916 -1.27622548 33.41117288 -4.41015625 27.15625 C-5.17996826 25.60345337 -5.17996826 25.60345337 -5.96533203 24.01928711 C-6.92317843 22.09549312 -7.89608583 20.17910017 -8.88623047 18.27172852 C-11.45325078 13.10435624 -12.70115746 9.80042234 -11 4 C-8.0399396 -0.4400906 -5.15103098 -0.90368965 0 0 Z " fill="#079C74" transform="translate(414,107)"/>
<path d="M0 0 C5.88580862 5.29962036 10.18901249 12.01987777 11.21232605 19.99371338 C11.33140126 22.43522702 11.36401296 24.86029668 11.35546875 27.3046875 C11.3607106 28.19154739 11.36595245 29.07840729 11.37135315 29.99214172 C11.37773772 31.85355589 11.37648294 33.7150106 11.36791992 35.57641602 C11.35936645 38.42081058 11.38828969 41.26322293 11.41992188 44.10742188 C11.4215331 45.92317649 11.42095786 47.73893464 11.41796875 49.5546875 C11.42920273 50.40060959 11.44043671 51.24653168 11.45201111 52.11808777 C11.40478181 56.11883746 11.21661523 58.24245754 9.10571289 61.73754883 C6.05906995 64.51784467 4.00961323 64.80218346 -0.078125 64.73046875 C-3.50554129 62.64421536 -4.80293537 61.55603765 -6.078125 57.73046875 C-6.18455131 55.02181842 -6.23923063 52.334204 -6.25390625 49.625 C-6.27711659 47.98501338 -6.3012344 46.34503939 -6.32617188 44.70507812 C-6.36117138 42.12906579 -6.3905698 39.55351525 -6.40405273 36.97729492 C-6.41964147 34.48429705 -6.45992725 31.99263857 -6.50390625 29.5 C-6.50199783 28.74137161 -6.50008942 27.98274323 -6.49812317 27.2011261 C-6.6227782 21.67942206 -7.97258986 17.33924831 -11.078125 12.73046875 C-16.05779777 8.87122235 -20.87279097 8.22183481 -27.078125 8.73046875 C-32.07440502 10.13145267 -35.17203286 11.4183061 -38.18310547 15.77880859 C-40.52663548 20.03014581 -40.60056001 23.74527304 -40.51171875 28.515625 C-40.5213201 30.19726657 -40.53109081 31.87890718 -40.54101562 33.56054688 C-40.53240999 36.18280669 -40.51552502 38.80482211 -40.4934082 41.42700195 C-40.47885369 43.97785848 -40.49415577 46.52731769 -40.51171875 49.078125 C-40.49523788 49.85640152 -40.47875702 50.63467804 -40.46177673 51.4365387 C-40.49856071 55.46739665 -40.87764657 57.99148044 -43.42993164 61.19702148 C-46.078125 63.73046875 -46.078125 63.73046875 -49.015625 64.91796875 C-52.48383036 64.70562965 -54.20846429 63.72841277 -56.8012085 61.44326782 C-59.35586245 58.0165685 -58.88780328 54.01166874 -58.8046875 49.8984375 C-58.80568451 48.94785965 -58.80668152 47.9972818 -58.80770874 47.01789856 C-58.80303573 45.00981272 -58.78362749 43.0017143 -58.75048828 40.99389648 C-58.70343667 37.93820981 -58.70935128 34.88603348 -58.72265625 31.83007812 C-58.71149634 29.87367732 -58.69727256 27.91729111 -58.6796875 25.9609375 C-58.68242172 24.6027314 -58.68242172 24.6027314 -58.68521118 23.21708679 C-58.48953685 14.34718891 -55.0849243 8.07132842 -49.1171875 1.62109375 C-35.26409918 -11.2235322 -14.7118583 -11.54709809 0 0 Z " fill="#E6E7EA" transform="translate(813.078125,114.26953125)"/>
<path d="M0 0 C0.82830322 -0.02682861 1.65660645 -0.05365723 2.51000977 -0.08129883 C6.89193559 -0.05424169 8.71695934 0.15072952 12.2890625 2.91015625 C14.25 5.5625 14.25 5.5625 14.875 8.5625 C14.25079011 11.55870748 13.57103277 13.50871999 11.28125 15.60546875 C7.28535714 17.48814904 2.77643271 17.18061382 -1.5703125 17.2265625 C-4.69713946 17.29262021 -4.69713946 17.29262021 -6.6171875 18.8984375 C-8.9287841 22.2940932 -9.01241933 25.76321396 -9.3125 29.75 C-9.39628906 30.83667969 -9.48007812 31.92335938 -9.56640625 33.04296875 C-9.65728516 34.29013672 -9.65728516 34.29013672 -9.75 35.5625 C-8.50863281 35.50449219 -7.26726563 35.44648437 -5.98828125 35.38671875 C-4.34639186 35.33980762 -2.70446168 35.29430891 -1.0625 35.25 C-0.24587891 35.20810547 0.57074219 35.16621094 1.41210938 35.12304688 C5.82868998 35.03364241 7.67481097 35.13275267 11.32421875 37.859375 C13.25 40.5625 13.25 40.5625 13.375 44.125 C12.00827042 48.30111816 10.98651067 49.30492278 7.25 51.5625 C4.29137608 52.03046771 1.42319851 51.94263942 -1.5625 51.8125 C-2.35076172 51.79445312 -3.13902344 51.77640625 -3.95117188 51.7578125 C-5.88464261 51.71094048 -7.81748285 51.6392041 -9.75 51.5625 C-9.74111755 52.17780075 -9.73223511 52.7931015 -9.7230835 53.42704773 C-9.63454729 59.83465276 -9.57423956 66.24208385 -9.53027344 72.65014648 C-9.51016582 75.04116881 -9.4828757 77.43214201 -9.44824219 79.82299805 C-9.39968849 83.26102831 -9.37702226 86.69840804 -9.359375 90.13671875 C-9.33872986 91.20460129 -9.31808472 92.27248383 -9.29681396 93.37272644 C-9.29457261 100.79628056 -9.29457261 100.79628056 -11.63574219 104.73510742 C-14.04313369 106.81586094 -15.10037411 107.24143195 -18.25 107.1875 C-19.0028125 107.20039063 -19.755625 107.21328125 -20.53125 107.2265625 C-24.02752782 106.18014132 -24.88154301 104.70602648 -26.75 101.5625 C-27.30747332 97.75108338 -27.214954 93.98143168 -27.140625 90.13671875 C-27.13213531 88.48262749 -27.13213531 88.48262749 -27.12347412 86.79512024 C-27.1011175 83.27963508 -27.05092021 79.76517613 -27 76.25 C-26.97993418 73.86394703 -26.96168355 71.47787806 -26.9453125 69.09179688 C-26.90125501 63.2483489 -26.83434918 57.40549777 -26.75 51.5625 C-27.77951782 51.58969116 -27.77951782 51.58969116 -28.82983398 51.61743164 C-29.73032471 51.63153076 -30.63081543 51.64562988 -31.55859375 51.66015625 C-32.89748657 51.68734741 -32.89748657 51.68734741 -34.26342773 51.71508789 C-36.75 51.5625 -36.75 51.5625 -39.8125 50 C-42.40926639 46.73310035 -42.89617199 44.72840159 -42.75 40.5625 C-41 37.625 -41 37.625 -37.75 35.5625 C-34.04424801 35.15710217 -30.46126561 35.27001847 -26.75 35.5625 C-26.79640625 34.60730469 -26.8428125 33.65210938 -26.890625 32.66796875 C-27.16565849 22.81587633 -26.06738207 15.33720212 -21.0625 6.625 C-14.68092419 0.93332428 -8.31723875 0.15538132 0 0 Z " fill="#E4E6E8" transform="translate(527.75,71.4375)"/>
<path d="M0 0 C0.85142578 -0.02449219 1.70285156 -0.04898438 2.58007812 -0.07421875 C11.99679074 -0.11725019 18.67202913 3.30064627 25.46875 9.65234375 C33.79262854 17.99514019 34.69283098 25.40774205 34.9375 36.8125 C34.97061279 38.05773437 35.00372559 39.30296875 35.0378418 40.5859375 C35.59218519 65.58178487 35.59218519 65.58178487 32.3515625 69.71875 C29.27131866 72.07619294 27.0392578 72.375 23.1875 72.375 C20.3125 71.125 20.3125 71.125 18.1875 68.375 C16.61396977 60.04470407 17.12829919 51.32591559 17.31445312 42.89257812 C17.39915184 35.50386072 17.20693423 28.02551573 13.5625 21.4375 C9.39900684 17.82183489 5.10046221 16.61412028 -0.3125 15.9375 C-6.3183578 16.68823223 -10.41562998 18.65577536 -14.25 23.375 C-16.91514433 28.49207711 -16.933507 32.99069882 -16.91796875 38.68359375 C-16.9314208 40.33399748 -16.94644322 41.98438903 -16.96289062 43.63476562 C-16.98574157 46.22675048 -16.99997674 48.817351 -16.98754883 51.40942383 C-16.9787267 53.91848392 -17.00763076 56.42481632 -17.04296875 58.93359375 C-17.03073776 59.70456894 -17.01850677 60.47554413 -17.00590515 61.2698822 C-17.0718664 64.20659097 -17.23853664 66.62989394 -19.06973267 69.0071106 C-21.99962716 71.62001195 -23.53501124 72.3702968 -27.5 72.4375 C-31.25366247 71.23349506 -31.94108341 70.74026667 -33.8125 67.375 C-34.19163536 64.80498319 -34.41548436 62.45303104 -34.5 59.875 C-34.53270996 59.16085938 -34.56541992 58.44671875 -34.59912109 57.7109375 C-34.68853328 55.59910672 -34.75535213 53.48792678 -34.8125 51.375 C-34.84214844 50.3334375 -34.87179687 49.291875 -34.90234375 48.21875 C-34.93884824 45.26594261 -34.88979699 42.32700902 -34.8125 39.375 C-34.79574219 38.07304687 -34.77898438 36.77109375 -34.76171875 35.4296875 C-34.50741383 25.66644063 -32.92410368 18.26447464 -26.5 10.625 C-17.74507971 3.29529929 -11.59964406 0.01732583 0 0 Z " fill="#E9EAEC" transform="translate(618.8125,106.625)"/>
<path d="M0 0 C0.93481201 0.00829834 1.86962402 0.01659668 2.83276367 0.02514648 C9.44181422 0.18752676 15.04200984 0.73571825 20.6875 4.4375 C21.85732422 5.20126953 21.85732422 5.20126953 23.05078125 5.98046875 C25.96107749 8.17701358 28.22386909 9.98695885 29.35546875 13.52734375 C29.60950769 17.21434129 28.93486232 19.1464855 26.5625 21.9375 C23.00115793 23.79559152 21.66247829 24.1874959 17.6875 23.4375 C16.07995819 22.49860643 14.49877269 21.51397209 12.9375 20.5 C7.26933704 16.90846131 2.11481794 15.47605092 -4.54296875 16.921875 C-9.71238209 18.66764311 -13.98941452 20.82503822 -16.5390625 25.859375 C-19.34640635 32.77269794 -20.09764513 37.44824821 -17.55078125 44.56640625 C-15.43508044 49.4137714 -13.19273432 52.08775755 -8.3125 54.4375 C-1.3935642 56.99106154 3.51127004 56.45953175 10.28125 53.6640625 C12.87081914 52.44608094 12.87081914 52.44608094 15.5 50.1875 C17.6875 48.4375 17.6875 48.4375 20.6875 47.9375 C24.55867244 48.58269541 26.13755852 49.43756885 28.6875 52.4375 C29.2050214 55.69788483 29.43673581 57.36686145 28.6875 60.4375 C24.20369355 66.46261492 16.87555478 70.5392461 9.6875 72.4375 C6.57900589 72.76144347 3.49884945 72.81863783 0.375 72.8125 C-0.47151123 72.81088867 -1.31802246 72.80927734 -2.19018555 72.80761719 C-8.33657561 72.68655283 -13.10564812 71.88093294 -18.3125 68.4375 C-19.34375 67.839375 -20.375 67.24125 -21.4375 66.625 C-29.75270618 60.29821269 -34.46297252 53.55106724 -37.125 43.3125 C-37.186875 42.36375 -37.24875 41.415 -37.3125 40.4375 C-37.36277344 39.78652344 -37.41304687 39.13554687 -37.46484375 38.46484375 C-37.91852921 28.17525759 -34.8478583 19.97621316 -28.55859375 11.88671875 C-25.23826761 8.26611964 -21.66977917 5.67715585 -17.3125 3.4375 C-16.27867187 2.89996094 -15.24484375 2.36242187 -14.1796875 1.80859375 C-9.55129453 -0.12316013 -4.95270617 -0.05610505 0 0 Z " fill="#E1E3E6" transform="translate(872.3125,106.5625)"/>
<path d="M0 0 C4.86363675 6.15107001 5.68321005 12.12925866 5.48046875 19.78515625 C4.95719964 24.05756232 3.50042829 27.14504946 1.125 30.6875 C0.568125 31.574375 0.01125 32.46125 -0.5625 33.375 C-6.0316584 38.8441584 -11.09757322 41.01482943 -18.875 41.25 C-26.30285426 40.96924957 -31.718143 39.30538141 -37.4375 34.5625 C-38.875 32.6875 -38.875 32.6875 -38.875 30.6875 C-39.535 30.6875 -40.195 30.6875 -40.875 30.6875 C-44.11825275 22.52145289 -45.53047552 14.98811091 -41.9765625 6.66796875 C-37.62682432 -1.15230522 -31.77094964 -5.34718345 -23.4375 -8.125 C-13.98047248 -8.81697762 -7.31252977 -5.88181743 0 0 Z " fill="#EBA72A" transform="translate(229.875,8.3125)"/>
<path d="M0 0 C2.62532005 1.65149974 3.58031116 2.34235927 5 5 C5.75416588 9.54747486 5.67608395 14.05594949 5.62890625 18.65625 C5.6297356 20.00476269 5.6321975 21.35327527 5.63621521 22.70178223 C5.63906852 25.52301597 5.62442008 28.34345374 5.59692383 31.16455078 C5.56283985 34.77287426 5.56886257 38.37977521 5.5875864 41.98816681 C5.59817744 44.77129887 5.58919991 47.55410243 5.57420158 50.33720398 C5.56652996 52.31190674 5.5738602 54.28664941 5.58143616 56.26135254 C5.56559982 57.46610229 5.54976349 58.67085205 5.53344727 59.91210938 C5.52724869 60.96958374 5.52105011 62.02705811 5.5146637 63.11657715 C4.87285534 66.71233279 3.52708002 68.40872418 1 71 C-1.21875 71.62890625 -1.21875 71.62890625 -3.5 71.5625 C-4.2528125 71.56378906 -5.005625 71.56507813 -5.78125 71.56640625 C-8.86951979 70.77802752 -10.00565392 69.46703737 -12 67 C-12.5146637 64.1988678 -12.5146637 64.1988678 -12.53344727 60.93383789 C-12.5492836 59.70899185 -12.56511993 58.48414581 -12.58143616 57.22218323 C-12.57647629 55.90233932 -12.57151642 54.58249542 -12.56640625 53.22265625 C-12.57164331 51.85029173 -12.57792009 50.47793082 -12.58518982 49.10557556 C-12.59559021 46.23142543 -12.59103914 43.35777049 -12.57641602 40.48364258 C-12.5592368 36.80678113 -12.58271133 33.13148368 -12.61790562 29.45479679 C-12.63990639 26.62106542 -12.63843182 23.78770669 -12.6301403 20.95391655 C-12.62892517 18.94149064 -12.64883722 16.92908775 -12.66908264 14.91676331 C-12.56548552 4.7662851 -12.56548552 4.7662851 -9.67944336 1.66967773 C-6.10356749 -0.5586061 -4.13999006 -0.73928394 0 0 Z " fill="#E6E7EA" transform="translate(566,107)"/>
<path d="M0 0 C3.0625 1.9375 3.0625 1.9375 5 5 C5.6909471 8.15779957 5.70890469 10.84423072 5 14 C2.58478368 17.40971716 0.94978135 18.68340622 -3 20 C-7.28107887 20 -9.40736258 18.31884261 -12.61328125 15.6640625 C-14.83762129 12.99485445 -14.53917433 10.58555448 -14.40234375 7.23046875 C-14 5 -14 5 -12.0625 1.9375 C-7.94141507 -0.669717 -4.75058323 -1.03945854 0 0 Z " fill="#E0E2E5" transform="translate(567,79)"/>
<path d="M0 0 C1.82371124 -0.00262848 1.82371124 -0.00262848 3.68426514 -0.00531006 C6.99417051 -0.00893814 10.30401275 -0.00811442 13.61391449 -0.00493097 C17.09303364 -0.00238281 20.57215026 -0.00475172 24.05126953 -0.00631714 C29.89160643 -0.0081317 35.73193065 -0.00575129 41.57226562 -0.00097656 C48.30522999 0.00446468 55.03816407 0.00270152 61.7711277 -0.00280297 C67.57267832 -0.00735447 73.37421988 -0.0079747 79.17577171 -0.0053643 C82.63169221 -0.00381271 86.08759851 -0.0035769 89.54351807 -0.00690079 C93.3988155 -0.01035041 97.25407955 -0.00555656 101.109375 0 C102.80691925 -0.00303635 102.80691925 -0.00303635 104.53875732 -0.00613403 C121.46420337 0.0389104 121.46420337 0.0389104 124.4921875 3.06689453 C125.97903926 7.35252608 126.78770442 11.6669475 127.5546875 16.12939453 C127.88356571 17.79694603 128.21563665 19.46388157 128.5546875 21.12939453 C124.81166413 17.99252879 123.98473171 15.8108412 123.4296875 11.00439453 C123.0785131 6.55969876 123.0785131 6.55969876 120.5546875 3.12939453 C117.92797506 2.82998009 117.92797506 2.82998009 114.80941772 2.8888855 C113.58661606 2.88613617 112.36381439 2.88338684 111.10395813 2.8805542 C109.74166773 2.88763294 108.37937831 2.89490256 107.01708984 2.90234375 C105.58824166 2.90290765 104.15939289 2.90259171 102.73054504 2.90145874 C98.84437333 2.90088341 94.95832434 2.91266678 91.07218122 2.92660666 C87.01359137 2.93908405 82.9549989 2.94028215 78.89639282 2.94265747 C71.20762571 2.94888106 63.51891526 2.96530372 55.83017313 2.98535645 C47.07818515 3.00768816 38.3261945 3.018702 29.57418513 3.02874732 C11.56765376 3.04966922 -6.43882482 3.08486222 -24.4453125 3.12939453 C-17.7601862 -1.32735633 -7.79444907 -0.0139417 0 0 Z " fill="#132439" transform="translate(47.4453125,20.87060546875)"/>
<path d="M0 0 C1 3 1 3 1 5 C0.34 5 -0.32 5 -1 5 C-2.78667491 9.61363207 -3.25735105 13.46769614 -3.2784729 18.40316772 C-3.2842653 19.12699949 -3.2900577 19.85083125 -3.29602563 20.59659731 C-3.3129651 23.01024478 -3.31589687 25.42370034 -3.31884766 27.83740234 C-3.32815002 29.57226019 -3.33831915 31.30711357 -3.34928894 33.04196167 C-3.37656825 37.74392629 -3.39173224 42.44586098 -3.40471697 47.14788389 C-3.42035653 52.06465808 -3.44714414 56.98137123 -3.4727478 61.89810181 C-3.51952094 71.20519523 -3.55627216 80.51230014 -3.58942068 89.81945097 C-3.62765239 100.41676601 -3.67705982 111.01401973 -3.72740483 121.61128306 C-3.83070291 143.40747675 -3.91997025 165.20370927 -4 187 C-4.33 187 -4.66 187 -5 187 C-5.13125059 169.5959521 -5.26167692 152.19189823 -5.39115143 134.78783703 C-5.4513023 126.70482788 -5.51171176 118.62182083 -5.57275391 110.53881836 C-5.62602605 103.48460394 -5.67878863 96.43038591 -5.73096704 89.3761633 C-5.75855099 85.64927823 -5.78637122 81.92239529 -5.81480408 78.19551659 C-6.3459339 8.47685635 -6.3459339 8.47685635 0 0 Z " fill="#0F6054" transform="translate(6,36)"/>
<path d="M0 0 C3.8320097 3.8320097 4.11095364 9.82736664 5 15 C5.32887821 16.6675515 5.66094915 18.33448704 6 20 C2.25697663 16.86313426 1.43004421 14.68144667 0.875 9.875 C0.5238256 5.43030422 0.5238256 5.43030422 -2 2 C-5.07211889 1.78192685 -8.05665972 1.68853362 -11.13134766 1.68115234 C-12.55093025 1.66608391 -12.55093025 1.66608391 -13.99919128 1.65071106 C-17.13747532 1.61974016 -20.27567353 1.60280537 -23.4140625 1.5859375 C-25.5859756 1.56723703 -27.75788136 1.54766448 -29.92977905 1.5272522 C-35.65409014 1.47580652 -41.37842482 1.43624747 -47.10284424 1.39910889 C-52.94101862 1.35914703 -58.77909383 1.30801913 -64.6171875 1.2578125 C-76.07805546 1.16090603 -87.53897926 1.07654853 -99 1 C-99 0.67 -99 0.34 -99 0 C-89.18497943 -0.13140001 -79.36994682 -0.26185778 -69.55489826 -0.39115143 C-64.99614671 -0.45123265 -60.43739973 -0.51162416 -55.87866211 -0.57275391 C-51.46959074 -0.63186482 -47.0605088 -0.69012266 -42.65141869 -0.74781799 C-40.97913406 -0.7698451 -39.30685328 -0.79216657 -37.6345768 -0.81480408 C-5.9294978 -1.2432818 -5.9294978 -1.2432818 0 0 Z " fill="#0D2F3A" transform="translate(170,22)"/>
<path d="M0 0 C2.68366357 2.69340146 3.89937833 4.35917105 4.49447632 8.14916992 C4.49020126 9.92191284 4.49020126 9.92191284 4.48583984 11.73046875 C4.48963654 12.38641022 4.49343323 13.04235168 4.49734497 13.71817017 C4.50472278 15.87510817 4.4834096 18.03068281 4.4609375 20.1875 C4.45855124 21.69295087 4.45764814 23.19840475 4.4581604 24.70385742 C4.45503715 27.8545199 4.43850954 31.00472581 4.41162109 34.15527344 C4.37764179 38.18700946 4.36999285 42.21824436 4.37151146 46.25010681 C4.37096672 49.35742954 4.3599829 52.46464347 4.34550858 55.57192993 C4.33915953 57.05822934 4.33520612 58.54454104 4.33372116 60.03085327 C4.32936783 62.11062463 4.31182426 64.18987301 4.29052734 66.26953125 C4.28290375 67.45135986 4.27528015 68.63318848 4.26742554 69.85083008 C4.0030226 72.96440618 3.32677755 75.19014966 2 78 C0.85232472 74.55697416 1.09893304 72.51826945 1.4296875 68.91015625 C2.25157043 58.56465827 2.14993276 48.20713975 2.13037109 37.83569336 C2.1249616 34.41320467 2.13037132 30.99084434 2.13671875 27.56835938 C2.13605874 25.37760388 2.13477917 23.18684846 2.1328125 20.99609375 C2.13483673 19.98042831 2.13686096 18.96476288 2.13894653 17.9183197 C2.12321311 13.16574434 1.99343611 8.67270124 1 4 C-4.99727473 2.99365458 -9.11237154 3.15290087 -15 5 C-17.19921875 4.5625 -17.19921875 4.5625 -19 4 C-13.10510643 0.81049237 -6.75443971 -1.87817754 0 0 Z " fill="#0D6E5B" transform="translate(231,151)"/>
<path d="M0 0 C17.49 0 34.98 0 53 0 C51 2 51 2 48.89926147 2.24050903 C48.03322296 2.23606781 47.16718445 2.23162659 46.27490234 2.22705078 C45.29403656 2.22689972 44.31317078 2.22674866 43.30258179 2.22659302 C42.24108917 2.21627045 41.17959656 2.20594788 40.0859375 2.1953125 C39.00116119 2.1924826 37.91638489 2.18965271 36.79873657 2.18673706 C33.32404687 2.17551578 29.84961218 2.15040762 26.375 2.125 C24.02344121 2.11497272 21.6718784 2.10584643 19.3203125 2.09765625 C13.54678756 2.07557011 7.77341199 2.04207345 2 2 C1.67 2.99 1.34 3.98 1 5 C0.67 3.35 0.34 1.7 0 0 Z " fill="#888F9A" transform="translate(927,147)"/>
<path d="M0 0 C0.66 0 1.32 0 2 0 C3.76462683 3.08809695 4 4.23312136 4 8 C-8.87 8 -21.74 8 -35 8 C-34.67 7.01 -34.34 6.02 -34 5 C-33.01 5.33 -32.02 5.66 -31 6 C-28.64319787 6.08397157 -26.28405919 6.10728187 -23.92578125 6.09765625 C-23.2419487 6.0962413 -22.55811615 6.09482635 -21.8535614 6.09336853 C-19.67316278 6.08777876 -17.49286749 6.07522822 -15.3125 6.0625 C-13.83268378 6.05748367 -12.35286594 6.052921 -10.87304688 6.04882812 C-7.24866443 6.03781271 -3.6243423 6.02055512 0 6 C1.33333333 3 1.33333333 3 0 0 Z " fill="#7D8694" transform="translate(963,128)"/>
<path d="M0 0 C-1.98 0.99 -1.98 0.99 -4 2 C-4.33 1.34 -4.66 0.68 -5 0 C-9.16115468 -1.38705156 -13.07965762 -1.18424545 -17.4375 -1.1875 C-18.29666016 -1.19974609 -19.15582031 -1.21199219 -20.04101562 -1.22460938 C-20.87181641 -1.22654297 -21.70261719 -1.22847656 -22.55859375 -1.23046875 C-23.31454834 -1.23457764 -24.07050293 -1.23868652 -24.84936523 -1.24291992 C-27.27271585 -0.96919602 -28.850708 -0.10999342 -31 1 C-33.25 0.625 -33.25 0.625 -35 0 C-24.10050688 -5.22267379 -10.85283139 -5.80500283 0 0 Z " fill="#626C7C" transform="translate(807,110)"/>
<path d="M0 0 C0.68384766 0.05220703 1.36769531 0.10441406 2.07226562 0.15820312 C3.73621169 0.28619898 5.3994473 0.42337719 7.0625 0.5625 C7.0625 0.8925 7.0625 1.2225 7.0625 1.5625 C5.77214844 1.61148438 4.48179687 1.66046875 3.15234375 1.7109375 C1.43487653 1.78601803 -0.28257041 1.86156354 -2 1.9375 C-2.84755859 1.9684375 -3.69511719 1.999375 -4.56835938 2.03125 C-9.68934753 2.26851586 -14.06538194 2.97160431 -18.9375 4.5625 C-20.59996041 4.91621498 -22.26524271 5.25845322 -23.9375 5.5625 C-18.39075876 -1.21685041 -7.91507505 -0.63040421 0 0 Z " fill="#646D7D" transform="translate(951.9375,106.4375)"/>
<path d="M0 0 C0.33 0 0.66 0 1 0 C1.07403712 5.23271569 1.12854783 10.46512801 1.16479492 15.69824219 C1.17990173 17.47922067 1.20038835 19.26016184 1.22631836 21.04101562 C1.26261943 23.59774978 1.27970688 26.1539931 1.29296875 28.7109375 C1.30845261 29.50994476 1.32393646 30.30895203 1.33988953 31.13217163 C1.34057617 33.37646484 1.34057617 33.37646484 1 37 C0.01 37.66 -0.98 38.32 -2 39 C-2.33 37.68 -2.66 36.36 -3 35 C-2.01 34.505 -2.01 34.505 -1 34 C-0.67 22.78 -0.34 11.56 0 0 Z " fill="#EEF0F2" transform="translate(599,138)"/>
<path d="M0 0 C1.33224609 0.00193359 1.33224609 0.00193359 2.69140625 0.00390625 C9.20131515 0.09254344 9.20131515 0.09254344 12.625 2.375 C11.98997559 2.35928955 11.35495117 2.3435791 10.70068359 2.32739258 C7.8005477 2.2647141 4.90055476 2.22590583 2 2.1875 C0.50146484 2.14979492 0.50146484 2.14979492 -1.02734375 2.11132812 C-6.75458822 2.05443497 -10.28927261 2.51916846 -15.375 5.375 C-17.53369141 4.96411133 -17.53369141 4.96411133 -19.375 4.375 C-12.78571455 0.83463811 -7.43524947 -0.21053613 0 0 Z " fill="#65707F" transform="translate(619.375,106.625)"/>
<path d="M0 0 C0.73347656 -0.01160156 1.46695312 -0.02320312 2.22265625 -0.03515625 C7.04428363 -0.0092799 10.26901496 0.84444249 14.5 3.375 C13.51 3.87 13.51 3.87 12.5 4.375 C11.79101562 4.07078125 11.08203125 3.7665625 10.3515625 3.453125 C6.74139568 2.08818522 3.7262359 2.10980775 -0.125 2.125 C-1.43726563 2.11984375 -2.74953125 2.1146875 -4.1015625 2.109375 C-7.62638217 2.10668215 -7.62638217 2.10668215 -10.5 4.375 C-12.6875 4 -12.6875 4 -14.5 3.375 C-9.48010045 0.37259172 -5.67432167 -0.08975201 0 0 Z " fill="#0F4F48" transform="translate(325.5,106.625)"/>
<path d="M0 0 C0.99 0 1.98 0 3 0 C4.63241288 2.95746768 5.45432765 5.62066088 6.0625 8.9375 C6.21847656 9.77152344 6.37445313 10.60554688 6.53515625 11.46484375 C6.76525391 12.71974609 6.76525391 12.71974609 7 14 C7.33066482 15.66719815 7.66322859 17.33402464 8 19 C4.28141687 15.87608907 3.43198684 13.71929131 2.875 8.9375 C2.29900877 4.1819428 2.29900877 4.1819428 0 0 Z " fill="#0B4443" transform="translate(168,23)"/>
<path d="M0 0 C0.66 0.33 1.32 0.66 2 1 C-0.80627778 5.74908547 -3.25091453 8.19372222 -8 11 C-8 8 -8 8 -5.6875 5.5 C-4.800625 4.675 -3.91375 3.85 -3 3 C-2.401875 2.401875 -1.80375 1.80375 -1.1875 1.1875 C-0.795625 0.795625 -0.40375 0.40375 0 0 Z " fill="#949BA5" transform="translate(598,112)"/>
<path d="M0 0 C0.87914062 0.01353516 1.75828125 0.02707031 2.6640625 0.04101562 C4.81797552 0.07613377 6.97157004 0.12993306 9.125 0.1875 C9.125 0.5175 9.125 0.8475 9.125 1.1875 C7.86042969 1.23648438 6.59585938 1.28546875 5.29296875 1.3359375 C3.63279053 1.4109738 1.97263536 1.48652127 0.3125 1.5625 C-0.52087891 1.5934375 -1.35425781 1.624375 -2.21289062 1.65625 C-3.01533203 1.69492188 -3.81777344 1.73359375 -4.64453125 1.7734375 C-5.38292236 1.8048584 -6.12131348 1.8362793 -6.88208008 1.86865234 C-9.18849588 2.09584614 -9.18849588 2.09584614 -11.875 4.1875 C-14.0625 3.8125 -14.0625 3.8125 -15.875 3.1875 C-10.495384 -0.17255524 -6.12121851 -0.1797647 0 0 Z " fill="#616B7D" transform="translate(527.875,71.8125)"/>
<path d="M0 0 C2.87385045 3.42125054 4.45884606 6.83888437 6 11 C5.67 11.66 5.34 12.32 5 13 C4.34 13 3.68 13 3 13 C2.67 13.99 2.34 14.98 2 16 C1 13 1 13 1.5625 10.0625 C2.04252286 6.70233995 1.65612961 5.82516227 0 3 C0 2.01 0 1.02 0 0 Z " fill="#0F6159" transform="translate(426,166)"/>
<path d="M0 0 C1.32 0.66 2.64 1.32 4 2 C1.76348708 4.66661156 0.38167613 5.8886778 -3 6.875 C-6.0961367 7.0040057 -7.44496838 6.67059759 -10 5 C-6.93109813 3.46554906 -4.29905734 4.45015711 -1 5 C-0.67 3.35 -0.34 1.7 0 0 Z " fill="#9CA2AC" transform="translate(567,92)"/>
<path d="M0 0 C0.66 0.33 1.32 0.66 2 1 C-1.13922331 5.52048157 -4.21495828 7.51545911 -9 10 C-7.61811547 6.78956118 -6.07578097 4.95063635 -3.375 2.75 C-2.74335937 2.22921875 -2.11171875 1.7084375 -1.4609375 1.171875 C-0.73777344 0.59179688 -0.73777344 0.59179688 0 0 Z " fill="#9096A2" transform="translate(770,111)"/>
<path d="M0 0 C2.97 1.65 5.94 3.3 9 5 C9 5.66 9 6.32 9 7 C9.99 7.33 10.98 7.66 12 8 C11.01 8.495 11.01 8.495 10 9 C5.89753489 7.30550354 2.86108337 5.41129171 0 2 C0 1.34 0 0.68 0 0 Z " fill="#7F6732" transform="translate(191,39)"/>
<path d="M0 0 C0.66 1.32 1.32 2.64 2 4 C2.66 4 3.32 4 4 4 C5.85776765 7.13498292 6.20140476 9.37471432 6 13 C2.84297684 9.09130466 0 5.1385061 0 0 Z " fill="#107061" transform="translate(411,134)"/>
<path d="M0 0 C2.32472205 2.85306797 3.7508258 5.54074837 5 9 C4.34 9.66 3.68 10.32 3 11 C0.29417212 7.16674383 -0.32613618 4.67461851 0 0 Z " fill="#0B8669" transform="translate(405,119)"/>
<path d="M0 0 C0.33 0 0.66 0 1 0 C1.29296875 6.0546875 1.29296875 6.0546875 1 8 C0.01 8.66 -0.98 9.32 -2 10 C-2.33 8.68 -2.66 7.36 -3 6 C-2.34 5.67 -1.68 5.34 -1 5 C-0.34444881 2.47266765 -0.34444881 2.47266765 0 0 Z " fill="#C9CED3" transform="translate(599,167)"/>
<path d="M0 0 C0.66 0.33 1.32 0.66 2 1 C1.34 2.32 0.68 3.64 0 5 C-2.31 5 -4.62 5 -7 5 C-4.702779 3.25728062 -2.40133271 1.60088848 0 0 Z " fill="#828A97" transform="translate(967,157)"/>
</svg>
