<?xml version="1.0" encoding="UTF-8"?>
<svg version="1.1" xmlns="http://www.w3.org/2000/svg" width="234" height="246">
<path d="M0 0 C2.04693452 -0.00296385 4.09386387 -0.00707348 6.14079571 -0.01150417 C12.56666697 -0.02508994 18.99252595 -0.0348085 25.41841054 -0.03870606 C32.80155585 -0.04321224 40.18451839 -0.06091472 47.56760812 -0.08970666 C53.30896193 -0.11131315 59.05026412 -0.12140923 64.79165816 -0.12274718 C68.20827556 -0.12379283 71.62471898 -0.12965347 75.04129314 -0.1475668 C78.83679378 -0.16456977 82.63184042 -0.16276291 86.4273634 -0.15625668 C87.55152157 -0.16547146 88.67567974 -0.17468624 89.83390331 -0.18418026 C91.3850156 -0.17582653 91.3850156 -0.17582653 92.96746349 -0.16730404 C93.8625676 -0.1687706 94.7576717 -0.17023716 95.67990017 -0.17174816 C98.79734946 0.2883824 100.67225414 1.34134652 103.19982433 3.20018864 C104.40685558 6.02440739 104.40685558 6.02440739 105.19982433 9.20018864 C108.06749012 19.27099596 111.87345174 28.28796008 121.1226759 34.05590153 C129.905358 38.89422205 138.24571991 39.78187565 148.13732433 39.82518864 C150.52154276 39.85070194 152.90569279 39.88420389 155.28966808 39.92675114 C156.32986095 39.93271305 157.37005383 39.93867496 158.44176769 39.94481754 C161.26153226 40.20590223 162.85714281 40.63840096 165.19982433 42.20018864 C167.47825313 45.61783184 167.46917255 46.91475602 167.52208996 50.93749332 C167.54130505 52.11591801 167.56052013 53.29434269 167.5803175 54.50847721 C167.58881725 55.78346073 167.59731701 57.05844425 167.60607433 58.37206364 C167.61747448 59.68297977 167.62887463 60.99389591 167.64062023 62.34453678 C167.66162359 65.12195731 167.67331859 67.89926239 167.68029308 70.67675114 C167.69123952 74.22238357 167.73924402 77.76647068 167.79623699 81.31161976 C167.84263831 84.70673609 167.84639915 88.10164685 167.85607433 91.49706364 C167.88076794 92.76395023 167.90546154 94.03083683 167.93090343 95.33611393 C167.88125213 105.18856564 167.88125213 105.18856564 164.6695509 109.31102848 C161.23951531 112.56487229 157.38390236 114.40241992 153.02794933 116.12987614 C152.26432079 116.4505405 151.50069225 116.77120487 150.71392345 117.10158634 C148.29957715 118.11081263 145.87542444 119.09336364 143.44982433 120.07518864 C141.80716458 120.75571447 140.16522894 121.43799095 138.52404308 122.12206364 C135.53524056 123.36594881 132.54242462 124.59894406 129.5445509 125.82079411 C127.74170279 126.56430446 125.94408783 127.32805689 124.19982433 128.20018864 C121.13732433 128.32518864 121.13732433 128.32518864 118.19982433 128.20018864 C116.28128832 126.28165262 117.04595554 122.71213062 117.04210949 120.09764957 C117.03702877 119.35451008 117.03194805 118.61137058 117.02671337 117.84571171 C117.01598619 116.22621954 117.00737528 114.60671233 117.00059414 112.98719883 C116.98883512 110.42328923 116.96938885 107.85955038 116.94747448 105.29570866 C116.88576732 98.00399817 116.83184777 90.71230282 116.79845715 83.42040348 C116.77750107 78.9646584 116.74218539 74.5092204 116.69769955 70.05365086 C116.68354107 68.35525729 116.67481745 66.65680934 116.67164516 64.95835972 C116.66673158 62.57868238 116.64356145 60.19981778 116.61632824 57.82030582 C116.61933437 57.11984638 116.62234051 56.41938694 116.62543774 55.69770145 C116.55203136 51.3744555 115.82549505 48.65173932 113.19982433 45.20018864 C108.61147316 42.2763257 103.01658802 42.90661492 97.76232433 42.95018864 C96.8335548 42.94245426 95.90478527 42.93471989 94.94787121 42.92675114 C87.82012366 42.87761998 87.82012366 42.87761998 81.19982433 45.20018864 C78.87716497 50.28924124 78.94163012 55.05157918 79.0079298 60.5226984 C79.01073452 61.4421323 79.01353924 62.3615662 79.01642895 63.30886173 C79.02290877 65.29770968 79.03347493 67.28654764 79.04769039 69.27535534 C79.0672103 72.42360482 79.06935189 75.5714011 79.06582165 78.71970463 C79.05614167 87.66808335 79.05591112 96.61601269 79.12072277 105.56420231 C79.15914875 111.04388827 79.15886202 116.52239819 79.13314724 122.00214291 C79.13073121 124.08856859 79.14283494 126.17506352 79.16973019 128.26131725 C79.20581037 131.17791069 79.19258784 134.0904485 79.16808605 137.0070734 C79.19063961 137.86799091 79.21319317 138.72890842 79.23643017 139.61591434 C79.16260107 143.17996266 79.09972352 145.32274618 76.47497463 147.8819952 C72.98231303 150.18852288 71.0200154 151.23001377 66.76232433 151.07518864 C64.19982433 150.20018864 64.19982433 150.20018864 63.19982433 149.20018864 C63.09184963 147.2073833 63.053537 145.21077685 63.04210949 143.21508121 C63.03184734 141.93317402 63.0215852 140.65126682 63.01101208 139.33051395 C63.00757416 138.64068235 63.00413624 137.95085075 63.00059414 137.24011517 C62.98882493 135.08337617 62.96937478 132.92683923 62.94747448 130.7701807 C62.88581133 124.63648599 62.83191136 118.50280818 62.79845715 112.36888981 C62.77745723 108.61985143 62.74210435 104.87117498 62.69769955 101.12234402 C62.68357283 99.69551908 62.67482463 98.26863003 62.67164516 96.8417387 C62.66671167 94.83850325 62.64190021 92.83534702 62.61632824 90.83226871 C62.60824139 89.69389057 62.60015453 88.55551243 62.59182262 87.38263798 C62.14175569 83.72875666 61.11826549 81.329905 59.19982433 78.20018864 C54.90872144 75.33945337 50.94593136 75.62464986 45.88732433 75.38768864 C44.94953136 75.32388004 44.0117384 75.26007145 43.04552746 75.19432926 C37.66433821 74.92508019 33.73775272 74.91458777 29.19982433 78.20018864 C25.89426424 82.43693327 25.77906955 86.33047867 25.83092785 91.5070734 C25.82716137 92.33043186 25.82339489 93.15379032 25.81951427 94.00209904 C25.81309383 95.78413157 25.81340054 97.56619835 25.81969929 99.34823132 C25.82881782 102.1685775 25.81857803 104.9882601 25.80308056 107.80857182 C25.76299475 115.82476132 25.76178228 123.84089799 25.76403332 131.85717106 C25.76408436 136.76490058 25.74494683 141.67227063 25.71469975 146.5799017 C25.70385883 149.35872142 25.71601241 152.13685999 25.72852612 154.915658 C25.71962376 156.6180117 25.7095501 158.32035982 25.69811535 160.0226984 C25.7127306 161.18156307 25.7127306 161.18156307 25.72764111 162.36383915 C25.68107564 165.83279482 25.47583295 167.8266985 23.38743114 170.65268803 C20.31187124 172.8283216 17.93792952 173.13343676 14.19982433 173.20018864 C12.01221752 172.04171085 12.01221752 172.04171085 10.19982433 170.20018864 C9.70102978 167.74709415 9.70102978 167.74709415 9.70153332 164.79833317 C9.69149776 163.69353611 9.68146221 162.58873905 9.67112255 161.45046329 C9.67930508 160.25670078 9.6874876 159.06293827 9.69591808 157.83300114 C9.68649685 156.60612583 9.67707561 155.37925053 9.66736889 154.11519718 C9.63862372 150.18502559 9.63564412 146.25545709 9.63732433 142.32518864 C9.63372081 138.40214902 9.62421731 134.47955072 9.59656811 130.55660343 C9.57974037 128.11372815 9.57693444 125.67070756 9.58957958 123.22780704 C9.58269619 122.11670567 9.5758128 121.00560429 9.56872082 119.86083317 C9.56968258 118.88615086 9.57064434 117.91146854 9.57163525 116.9072504 C9.13088217 113.69823811 8.07568389 111.81782225 6.19982433 109.20018864 C1.95075143 106.31622717 -2.72158808 106.83233667 -7.67517567 106.82518864 C-8.5607616 106.80069645 -9.44634754 106.77620426 -10.35876942 106.75096989 C-16.15182983 106.72506947 -19.37909097 107.37616361 -23.80017567 111.20018864 C-25.22683583 114.05350896 -24.94325259 116.49207137 -24.96130848 119.68187809 C-24.96627338 120.34713505 -24.97123829 121.01239201 -24.97635365 121.69780827 C-24.99098189 123.90303927 -24.99777893 126.10819829 -25.00330067 128.31346989 C-25.00905234 129.84563035 -25.01481007 131.37779079 -25.02057362 132.90995121 C-25.03108601 136.12543416 -25.03692686 139.34089209 -25.04041004 142.55638981 C-25.04589008 146.67230754 -25.06990634 150.78789367 -25.098382 154.9037075 C-25.11702818 158.07018841 -25.12221506 161.23658983 -25.12374592 164.40312099 C-25.12676939 165.92014914 -25.13478765 167.43717598 -25.1479311 168.9541502 C-25.16503086 171.07979313 -25.16310211 173.20463134 -25.15662098 175.33031559 C-25.16026661 176.53895771 -25.16391224 177.74759983 -25.16766834 178.99286747 C-24.7616231 182.53665919 -23.94272212 184.37519288 -21.80017567 187.20018864 C-12.7615895 193.22591275 5.84412214 190.99892105 16.19982433 189.20018864 C28.34454598 186.10920134 39.72137443 180.08832661 50.96056652 174.68065739 C58.87580044 170.8952555 66.95833548 167.49552596 75.02813244 164.05605412 C78.67320564 162.49845397 82.31047908 160.92309063 85.94790173 159.34772587 C104.04831437 151.510441 122.20729394 143.80959469 140.36419201 136.10431767 C141.16435741 135.76470509 141.96452282 135.42509251 142.78893566 135.07518864 C143.91341106 134.5986182 143.91341106 134.5986182 145.06060314 134.11242008 C146.46227645 133.51470234 147.86167623 132.91161815 149.25847912 132.30260563 C154.14281366 130.17412353 156.91113355 129.51777692 162.19982433 130.20018864 C165.41928936 132.72585656 167.00181954 134.22802258 167.82801342 138.28447819 C167.82897518 139.43647709 167.82993694 140.58847599 167.83092785 141.77538395 C167.84346096 143.08734745 167.85599407 144.39931095 167.86890697 145.75103092 C167.85663317 147.17680189 167.84321232 148.60256338 167.82873058 150.02831364 C167.82956011 151.50176512 167.83202263 152.97521651 167.83603954 154.44866276 C167.83889514 157.53555538 167.82422852 160.62172156 167.79674816 163.70848942 C167.76278447 167.64371583 167.76864516 171.57763365 167.78741074 175.51292133 C167.7980424 178.55698666 167.78898555 181.60075389 167.77402592 184.6447916 C167.76888055 186.09429123 167.76928113 187.54382249 167.77557087 188.9933176 C167.79765529 197.14546707 167.45241278 204.04103271 163.19982433 211.20018864 C162.83180202 211.85182987 162.46377972 212.50347111 162.08460522 213.17485905 C158.72934455 218.86618262 152.72368344 222.68318988 146.51923847 224.76374435 C143.24628839 225.37961555 140.00462534 225.34822222 136.68685436 225.34735966 C135.92686803 225.35103635 135.1668817 225.35471303 134.38386548 225.35850114 C131.83536965 225.3695206 129.28691462 225.37337888 126.73839855 225.37719059 C124.91169131 225.38345661 123.08498533 225.39010354 121.25828075 225.39710331 C115.25703345 225.41813166 109.25578594 225.42850536 103.25451183 225.43846989 C101.18689619 225.44251806 99.11928068 225.446635 97.05166531 225.45081997 C87.33616185 225.46986987 77.62066598 225.48410067 67.90514743 225.49243194 C56.6992379 225.50220044 45.4935261 225.52851076 34.28768623 225.56893283 C25.62085266 225.59912052 16.95407567 225.61390338 8.28719056 225.61721295 C3.11353825 225.61956063 -2.05990278 225.62848426 -7.23349857 225.65367413 C-12.10416926 225.67700588 -16.9744903 225.68116755 -21.84520245 225.67091274 C-23.62773078 225.67041849 -25.41027662 225.67670605 -27.19275188 225.69046879 C-38.80082147 225.77504343 -49.24510592 225.36094063 -58.19861317 217.04393864 C-64.41687289 209.88535671 -66.91615517 203.45618107 -66.94734669 194.10482121 C-66.95286172 193.03222032 -66.95286172 193.03222032 -66.95848817 191.93795073 C-66.96950251 189.54146935 -66.97336504 187.14503136 -66.97717762 184.74852848 C-66.98344404 183.03019416 -66.990091 181.31186119 -66.99709034 179.5935297 C-67.01811442 173.94940475 -67.02849218 168.30527958 -67.03845692 162.66112614 C-67.04250529 160.71609451 -67.04662224 158.77106302 -67.050807 156.82603168 C-67.06985618 147.68611137 -67.08408697 138.54619911 -67.09241897 129.40626276 C-67.10218636 118.86651355 -67.12849405 108.32697464 -67.16891986 97.78729951 C-67.19911491 89.63426201 -67.21389112 81.48128467 -67.21719998 73.32819235 C-67.21954687 68.46193681 -67.22846013 63.59590599 -67.25366116 58.72971058 C-67.27700579 54.14794654 -67.28114949 49.56655417 -67.27089977 44.98474598 C-67.27040583 43.30864568 -67.2766843 41.63252668 -67.29045582 39.95648289 C-67.37822048 28.63632475 -66.72740729 18.52190665 -58.64783192 9.80175114 C-42.97491304 -3.78365423 -19.38307957 0.02669431 0 0 Z " fill="#0DAF7F" transform="translate(66.80017566680908,20.799811363220215)"/>
<path d="M0 0 C5.40289609 4.6107866 9.32212278 9.31844753 10.12109375 16.57421875 C10.21945836 24.78766334 9.67965166 30.42568032 3.9140625 36.4921875 C-2.99835385 42.86885892 -8.40593588 43.98084557 -17.7578125 43.84375 C-23.65646621 43.29720807 -27.28418477 41.16449763 -31.71484375 37.3984375 C-33.21484375 35.5234375 -33.21484375 35.5234375 -33.21484375 33.5234375 C-33.87484375 33.5234375 -34.53484375 33.5234375 -35.21484375 33.5234375 C-38.95432122 26.66772881 -39.46148944 19.59626619 -37.59375 11.99609375 C-35.01112539 5.28126975 -30.39342678 0.74283142 -24.08203125 -2.609375 C-15.89829573 -5.86526978 -7.20234634 -5.11706742 0 0 Z " fill="#FDB733" transform="translate(224.21484375,4.4765625)"/>
<path d="M0 0 C2.05093921 -0.00071817 4.10187202 -0.0028663 6.15280962 -0.00549722 C13.3210102 -0.01468123 20.48919242 -0.01883928 27.6573987 -0.01804566 C34.32478008 -0.01744074 40.99208165 -0.02809075 47.65944278 -0.04378933 C53.41095638 -0.05684653 59.16244371 -0.06223061 64.91397202 -0.06159025 C68.33830695 -0.06133553 71.76257007 -0.06417499 75.18689013 -0.0747683 C78.98751309 -0.08451321 82.78792503 -0.08171396 86.58855104 -0.07566285 C87.71989977 -0.08128236 88.85124849 -0.08690187 90.01688051 -0.09269166 C91.04820604 -0.08849717 92.07953157 -0.08430268 93.14210939 -0.07998109 C94.03905708 -0.08052586 94.93600477 -0.08107062 95.86013269 -0.0816319 C98.1339612 0.16725707 98.1339612 0.16725707 101.1339612 2.16725707 C100.40104168 2.16780184 99.66812216 2.16834661 98.91299295 2.16890788 C81.05062172 2.18389797 63.18850853 2.22643472 45.32627726 2.29934764 C36.6880874 2.33394933 28.05005633 2.35934682 19.41179323 2.36281371 C11.87959524 2.36586033 4.34768039 2.38644428 -3.18440831 2.42778164 C-7.16989556 2.44905034 -11.15498092 2.46174408 -15.14052534 2.45341086 C-18.89838832 2.44583146 -22.65543962 2.46184903 -26.41315413 2.49531722 C-28.43654167 2.50738306 -30.46002971 2.49501217 -32.4834094 2.48169494 C-39.69997373 2.57172629 -44.76687242 3.4258583 -50.98785925 7.19434619 C-51.91755813 7.67593708 -51.91755813 7.67593708 -52.8660388 8.16725707 C-53.5260388 7.83725707 -54.1860388 7.50725707 -54.8660388 7.16725707 C-53.59772186 6.35083453 -52.32627949 5.53926602 -51.0535388 4.72975707 C-49.99199583 4.05106566 -49.99199583 4.05106566 -48.90900755 3.35866332 C-36.69372702 -3.76497064 -13.61421174 0.00268441 0 0 Z " fill="#92DEC7" transform="translate(66.86603879928589,20.832742929458618)"/>
<path d="M0 0 C1.35106087 0.0001133 1.35106087 0.0001133 2.72941589 0.00022888 C3.69825211 0.00539017 4.66708832 0.01055145 5.6652832 0.01586914 C7.15714897 0.01799156 7.15714897 0.01799156 8.67915344 0.02015686 C11.85815428 0.02575779 15.03708488 0.03831043 18.21606445 0.05102539 C20.37036031 0.05604027 22.52465727 0.0606032 24.67895508 0.06469727 C29.9621822 0.07572751 35.24536831 0.09246653 40.52856445 0.11352539 C40.52856445 0.44352539 40.52856445 0.77352539 40.52856445 1.11352539 C39.24804199 1.11763428 37.96751953 1.12174316 36.64819336 1.12597656 C31.85808072 1.1478901 27.06877528 1.20230569 22.27905273 1.26611328 C20.21337674 1.28918715 18.14758487 1.30366387 16.08178711 1.30908203 C13.09717477 1.31844948 10.11435848 1.35960938 7.13012695 1.40649414 C5.7638768 1.40059517 5.7638768 1.40059517 4.37002563 1.39457703 C-1.84367562 1.53325254 -6.0819623 3.02282553 -11.46133423 6.14228821 C-12.12466766 6.46279648 -12.7880011 6.78330475 -13.47143555 7.11352539 C-14.13143555 6.78352539 -14.79143555 6.45352539 -15.47143555 6.11352539 C-14.20311861 5.29710285 -12.93167624 4.48553434 -11.65893555 3.67602539 C-10.95124023 3.22356445 -10.24354492 2.77110352 -9.5144043 2.30493164 C-6.27006402 0.41291676 -3.67886945 -0.01030496 0 0 Z " fill="#26BF8F" transform="translate(27.471435546875,21.886474609375)"/>
<path d="M0 0 C4.05718477 0.09376808 8.11384059 0.19991272 12.17041016 0.31738281 C13.54955243 0.35559338 14.92879167 0.39046002 16.30810547 0.421875 C18.29416967 0.46769624 20.27991679 0.52666263 22.265625 0.5859375 C24.05661621 0.63306885 24.05661621 0.63306885 25.88378906 0.68115234 C28.80774539 0.9803287 30.52727611 1.47461838 33 3 C32.67 3.66 32.34 4.32 32 5 C31.28070313 4.84007568 30.56140625 4.68015137 29.8203125 4.51538086 C27.12310462 4.02249601 24.612292 3.82974354 21.875 3.75390625 C20.92109375 3.72103516 19.9671875 3.68816406 18.984375 3.65429688 C16.99490788 3.59310253 15.0053169 3.5358102 13.015625 3.48242188 C12.06171875 3.44826172 11.1078125 3.41410156 10.125 3.37890625 C9.26132813 3.3538501 8.39765625 3.32879395 7.5078125 3.30297852 C4.73642006 2.96815589 2.53866424 2.13711002 0 1 C0 0.67 0 0.34 0 0 Z " fill="#5CC9AB" transform="translate(199,60)"/>
<path d="M0 0 C-2.38172388 2.73544525 -4.70665291 3.92545358 -8.0625 5.25 C-9.37927734 5.78367188 -9.37927734 5.78367188 -10.72265625 6.328125 C-13 7 -13 7 -15 6 C-12.74109621 3.48045346 -10.582103 2.12667267 -7.5 0.75 C-6.7265625 0.39421875 -5.953125 0.0384375 -5.15625 -0.328125 C-3 -1 -3 -1 0 0 Z " fill="#47BE9D" transform="translate(229,131)"/>
<path d="M0 0 C0.33 0 0.66 0 1 0 C1.55353075 13.6332574 1.55353075 13.6332574 -2 20 C-2.33 20 -2.66 20 -3 20 C-3.25 13.375 -3.25 13.375 -1 10 C-0.54398739 7.49103314 -0.54398739 7.49103314 -0.375 4.8125 C-0.30023438 3.91144531 -0.22546875 3.01039062 -0.1484375 2.08203125 C-0.09945312 1.39496094 -0.05046875 0.70789063 0 0 Z " fill="#FDD789" transform="translate(233,18)"/>
<path d="M0 0 C-2.12040742 1.03033882 -4.24647908 2.04902854 -6.375 3.0625 C-8.15003906 3.91521484 -8.15003906 3.91521484 -9.9609375 4.78515625 C-10.96382812 5.18605469 -11.96671875 5.58695313 -13 6 C-13.66 5.67 -14.32 5.34 -15 5 C-13.73168307 4.18357746 -12.46024069 3.37200895 -11.1875 2.5625 C-10.47980469 2.11003906 -9.77210937 1.65757813 -9.04296875 1.19140625 C-5.62842947 -0.79986426 -3.71173295 -1.15191712 0 0 Z " fill="#66D1B1" transform="translate(27,23)"/>
<path d="M0 0 C0.66 0.99 1.32 1.98 2 3 C0.625 5 0.625 5 -1 7 C-1.66 7 -2.32 7 -3 7 C-3 7.66 -3 8.32 -3 9 C-3.66 9 -4.32 9 -5 9 C-3.90931332 5.22454612 -3.0916909 2.52956528 0 0 Z " fill="#59CCAD" transform="translate(7,33)"/>
<path d="M0 0 C1.32 0.66 2.64 1.32 4 2 C-0.455 3.485 -0.455 3.485 -5 5 C-4.67 4.01 -4.34 3.02 -4 2 C-2.68 2 -1.36 2 0 2 C0 1.34 0 0.68 0 0 Z " fill="#5DCBAD" transform="translate(205,139)"/>
</svg>
